STARTFONT 2.1
FONT -FontForge-STIX Two Math-Book-R-Normal--24-240-72-72-P-164-ISO10646-1
SIZE 24 72 72
FONTBOUNDINGBOX 97 104 -23 -40
COMMENT "Generated by fontforge, http://fontforge.sourceforge.net"
COMMENT "Copyright 2001-2021 The STIX Fonts Project Authors (https://github.com/stipub/stixfonts)"
STARTPROPERTIES 40
FOUNDRY "FontForge"
FAMILY_NAME "STIX Two Math"
WEIGHT_NAME "Book"
SLANT "R"
SETWIDTH_NAME "Normal"
ADD_STYLE_NAME ""
PIXEL_SIZE 24
POINT_SIZE 240
RESOLUTION_X 72
RESOLUTION_Y 72
SPACING "P"
AVERAGE_WIDTH 164
CHARSET_REGISTRY "ISO10646"
CHARSET_ENCODING "1"
FONTNAME_REGISTRY ""
CHARSET_COLLECTIONS "ASCII ISOLatin1Encoding ISO8859-2 ISO8859-5 ISO8859-7 ISO8859-9 ISO8859-4 ISO10646-1"
FONT_NAME "STIXTwoMath-Regular"
FACE_NAME "STIX Two Math Regular"
COPYRIGHT "Copyright 2001-2021 The STIX Fonts Project Authors (https://github.com/stipub/stixfonts)"
FONT_VERSION "2.12 b168a"
FONT_ASCENT 18
FONT_DESCENT 6
UNDERLINE_POSITION -2
UNDERLINE_THICKNESS 2
X_HEIGHT 11
CAP_HEIGHT 15
RAW_ASCENT 762
RAW_DESCENT 238
NORM_SPACE 6
RELATIVE_WEIGHT 40
RELATIVE_SETWIDTH 50
SUPERSCRIPT_X 0
SUPERSCRIPT_Y 12
SUPERSCRIPT_SIZE 12
SUBSCRIPT_X 0
SUBSCRIPT_Y 6
SUBSCRIPT_SIZE 12
FIGURE_WIDTH 12
AVG_LOWERCASE_WIDTH 119
AVG_UPPERCASE_WIDTH 163
ENDPROPERTIES
CHARS 6611
STARTCHAR space
ENCODING 32
SWIDTH 235 0
DWIDTH 6 0
BBX 1 1 0 0
BITMAP
00
ENDCHAR
STARTCHAR exclam
ENCODING 33
SWIDTH 283 0
DWIDTH 7 0
BBX 3 16 2 0
BITMAP
C0
E0
E0
E0
C0
C0
C0
40
40
40
40
40
00
C0
E0
E0
ENDCHAR
STARTCHAR quotedbl
ENCODING 34
SWIDTH 334 0
DWIDTH 8 0
BBX 6 5 1 12
BITMAP
CC
CC
C8
C8
88
ENDCHAR
STARTCHAR numbersign
ENCODING 35
SWIDTH 702 0
DWIDTH 17 0
BBX 15 17 1 -1
BITMAP
0610
0410
0430
0430
0C20
7FFE
0820
0820
0820
0860
0860
FFFC
1840
1040
1040
1040
10C0
ENDCHAR
STARTCHAR dollar
ENCODING 36
SWIDTH 495 0
DWIDTH 12 0
BBX 10 19 1 -2
BITMAP
0800
3F00
6980
C880
C880
C840
E800
7800
3E00
0F80
0B80
09C0
88C0
88C0
88C0
C980
7E00
0800
0800
ENDCHAR
STARTCHAR percent
ENCODING 37
SWIDTH 692 0
DWIDTH 17 0
BBX 15 16 1 0
BITMAP
1C38
63D0
4230
C260
C240
C4C0
CC80
7180
0338
0264
06C2
04C2
08C4
08C4
10C8
3070
ENDCHAR
STARTCHAR ampersand
ENCODING 38
SWIDTH 736 0
DWIDTH 18 0
BBX 16 16 1 0
BITMAP
0F80
18C0
18C0
18C0
1980
0E3E
0C1C
3618
6710
C310
C1A0
C1C0
C0E0
E1F1
FF3E
3C1C
ENDCHAR
STARTCHAR quotesingle
ENCODING 39
SWIDTH 187 0
DWIDTH 4 0
BBX 2 5 1 12
BITMAP
C0
C0
C0
C0
80
ENDCHAR
STARTCHAR parenleft
ENCODING 40
SWIDTH 357 0
DWIDTH 9 0
BBX 7 23 1 -5
BITMAP
02
04
08
10
30
60
60
40
C0
C0
C0
C0
C0
C0
C0
40
60
60
30
10
18
04
02
ENDCHAR
STARTCHAR parenright
ENCODING 41
SWIDTH 357 0
DWIDTH 9 0
BBX 6 23 1 -5
BITMAP
80
C0
20
30
18
18
0C
0C
0C
0C
0C
04
0C
0C
0C
0C
0C
08
18
30
20
C0
80
ENDCHAR
STARTCHAR asterisk
ENCODING 42
SWIDTH 410 0
DWIDTH 10 0
BBX 8 9 1 8
BITMAP
18
DB
F7
3C
3C
D7
DB
18
18
ENDCHAR
STARTCHAR plus
ENCODING 43
SWIDTH 720 0
DWIDTH 17 0
BBX 15 14 1 0
BITMAP
0180
0180
0180
0180
0180
0180
FFFE
FFFE
0180
0180
0180
0180
0180
0180
ENDCHAR
STARTCHAR comma
ENCODING 44
SWIDTH 245 0
DWIDTH 6 0
BBX 4 6 1 -3
BITMAP
60
F0
70
30
20
C0
ENDCHAR
STARTCHAR hyphen
ENCODING 45
SWIDTH 315 0
DWIDTH 8 0
BBX 5 2 1 5
BITMAP
F8
F8
ENDCHAR
STARTCHAR period
ENCODING 46
SWIDTH 245 0
DWIDTH 6 0
BBX 3 3 1 0
BITMAP
60
E0
60
ENDCHAR
STARTCHAR slash
ENCODING 47
SWIDTH 386 0
DWIDTH 9 0
BBX 7 20 1 -2
BITMAP
02
02
06
04
04
0C
0C
08
08
18
10
10
30
20
20
60
40
40
C0
80
ENDCHAR
STARTCHAR zero
ENCODING 48
SWIDTH 495 0
DWIDTH 12 0
BBX 10 16 1 0
BITMAP
1E00
2300
6180
C180
C0C0
C0C0
C0C0
C0C0
C0C0
C0C0
C0C0
C0C0
C180
6180
6300
1E00
ENDCHAR
STARTCHAR one
ENCODING 49
SWIDTH 495 0
DWIDTH 12 0
BBX 8 16 2 0
BITMAP
18
F8
18
18
18
18
18
18
18
18
18
18
18
18
1C
FF
ENDCHAR
STARTCHAR two
ENCODING 50
SWIDTH 495 0
DWIDTH 12 0
BBX 10 16 1 0
BITMAP
1E00
7F00
4380
8180
0180
0180
0180
0100
0300
0600
0C00
1800
1040
2040
7FC0
FF80
ENDCHAR
STARTCHAR three
ENCODING 51
SWIDTH 495 0
DWIDTH 12 0
BBX 10 16 1 0
BITMAP
1E00
3F00
4380
8180
0100
0300
0400
1F00
0380
0180
01C0
00C0
0080
0180
E300
7C00
ENDCHAR
STARTCHAR four
ENCODING 52
SWIDTH 495 0
DWIDTH 12 0
BBX 12 16 0 0
BITMAP
0180
0180
0380
0580
0D80
0980
1180
3180
2180
4180
FFF0
FFF0
0180
0180
0180
0180
ENDCHAR
STARTCHAR five
ENCODING 53
SWIDTH 495 0
DWIDTH 12 0
BBX 10 16 1 0
BITMAP
1F80
3F80
2000
2000
2000
3C00
7F00
0380
0180
00C0
00C0
00C0
0080
0180
E300
7C00
ENDCHAR
STARTCHAR six
ENCODING 54
SWIDTH 495 0
DWIDTH 12 0
BBX 10 16 1 0
BITMAP
0380
0E00
1800
3000
6000
6000
DF00
E180
C1C0
C0C0
C0C0
C0C0
60C0
6180
3180
1F00
ENDCHAR
STARTCHAR seven
ENCODING 55
SWIDTH 495 0
DWIDTH 12 0
BBX 10 16 1 0
BITMAP
7FC0
7FC0
80C0
8080
0180
0100
0300
0300
0200
0600
0600
0C00
0C00
0800
1800
1800
ENDCHAR
STARTCHAR eight
ENCODING 56
SWIDTH 495 0
DWIDTH 12 0
BBX 10 16 1 0
BITMAP
3E00
6180
4180
C180
E180
6100
3A00
1C00
1F00
6380
4180
C0C0
C0C0
C0C0
6180
3F00
ENDCHAR
STARTCHAR nine
ENCODING 57
SWIDTH 495 0
DWIDTH 12 0
BBX 10 16 1 0
BITMAP
3E00
6300
C180
C180
C0C0
C0C0
C0C0
C1C0
61C0
3FC0
0180
0180
0300
0700
0C00
7000
ENDCHAR
STARTCHAR colon
ENCODING 58
SWIDTH 245 0
DWIDTH 6 0
BBX 3 12 1 0
BITMAP
60
E0
60
00
00
00
00
00
00
60
E0
60
ENDCHAR
STARTCHAR semicolon
ENCODING 59
SWIDTH 245 0
DWIDTH 6 0
BBX 4 15 1 -3
BITMAP
60
E0
60
00
00
00
00
00
00
60
F0
70
30
20
C0
ENDCHAR
STARTCHAR less
ENCODING 60
SWIDTH 720 0
DWIDTH 17 0
BBX 14 14 2 -1
BITMAP
000C
003C
00F0
03C0
0F00
3C00
F000
7000
1E00
0780
01E0
0078
001C
0004
ENDCHAR
STARTCHAR equal
ENCODING 61
SWIDTH 720 0
DWIDTH 17 0
BBX 15 7 1 3
BITMAP
FFFE
FFFE
0000
0000
0000
FFFE
FFFE
ENDCHAR
STARTCHAR greater
ENCODING 62
SWIDTH 720 0
DWIDTH 17 0
BBX 14 14 2 -1
BITMAP
8000
E000
3800
0E00
0380
00E0
003C
0070
01C0
0700
1C00
7000
C000
8000
ENDCHAR
STARTCHAR question
ENCODING 63
SWIDTH 411 0
DWIDTH 10 0
BBX 8 16 1 0
BITMAP
7C
C7
C3
C3
C3
03
06
04
0C
08
10
10
00
18
18
18
ENDCHAR
STARTCHAR at
ENCODING 64
SWIDTH 905 0
DWIDTH 22 0
BBX 19 20 1 -4
BITMAP
01FC00
060700
180180
1000C0
300040
60E460
631C60
430C20
C60C20
C60C20
C60C20
C60C20
460C60
660C40
631CC0
31E780
300000
180000
060300
01FC00
ENDCHAR
STARTCHAR A
ENCODING 65
SWIDTH 718 0
DWIDTH 17 0
BBX 17 16 0 0
BITMAP
008000
01C000
01C000
03E000
026000
026000
067000
043000
0C3800
083800
0FFC00
181C00
100C00
300E00
300F00
F81F80
ENDCHAR
STARTCHAR B
ENCODING 66
SWIDTH 618 0
DWIDTH 15 0
BBX 13 16 1 0
BITMAP
FFC0
3060
3030
3030
3030
3030
3060
3F80
3060
3030
3038
3038
3038
3038
3070
FFC0
ENDCHAR
STARTCHAR C
ENCODING 67
SWIDTH 670 0
DWIDTH 16 0
BBX 14 16 1 0
BITMAP
07E4
1C3C
301C
700C
600C
E004
E000
E000
E000
E000
E000
6000
7000
3004
1C18
07E0
ENDCHAR
STARTCHAR D
ENCODING 68
SWIDTH 730 0
DWIDTH 18 0
BBX 15 16 1 0
BITMAP
FFC0
3070
301C
300C
300E
300E
3006
3006
3006
3006
3006
300E
300C
301C
3070
FFC0
ENDCHAR
STARTCHAR E
ENCODING 69
SWIDTH 626 0
DWIDTH 15 0
BBX 13 16 1 0
BITMAP
FFF0
3018
3008
3000
3020
3020
3060
3FE0
3020
3020
3000
3008
3008
3008
3018
FFF8
ENDCHAR
STARTCHAR F
ENCODING 70
SWIDTH 588 0
DWIDTH 14 0
BBX 13 16 1 0
BITMAP
FFF8
3018
3008
3000
3020
3020
3060
3FE0
3060
3020
3000
3000
3000
3000
3800
FE00
ENDCHAR
STARTCHAR G
ENCODING 71
SWIDTH 720 0
DWIDTH 17 0
BBX 15 16 1 0
BITMAP
07E4
1C3C
300C
700C
600C
E004
E000
E000
E03E
E01C
E00C
600C
700C
300C
1C1C
07F0
ENDCHAR
STARTCHAR H
ENCODING 72
SWIDTH 777 0
DWIDTH 19 0
BBX 17 16 1 0
BITMAP
FE3F80
380E00
380600
180600
180600
180600
180600
1FFE00
180600
180600
180600
180600
180600
380600
380E00
FE3F80
ENDCHAR
STARTCHAR I
ENCODING 73
SWIDTH 357 0
DWIDTH 9 0
BBX 7 16 1 0
BITMAP
FE
38
30
30
30
30
30
30
30
30
30
30
30
30
38
FE
ENDCHAR
STARTCHAR J
ENCODING 74
SWIDTH 396 0
DWIDTH 10 0
BBX 9 16 0 0
BITMAP
3F80
0E00
0600
0600
0600
0600
0600
0600
0600
0600
0600
0600
0600
C600
EC00
7800
ENDCHAR
STARTCHAR K
ENCODING 75
SWIDTH 702 0
DWIDTH 17 0
BBX 16 16 1 0
BITMAP
FE7E
3838
3030
3060
3080
3100
3200
3400
3E00
3380
31C0
30E0
3070
3038
383C
FE7F
ENDCHAR
STARTCHAR L
ENCODING 76
SWIDTH 585 0
DWIDTH 14 0
BBX 13 16 1 0
BITMAP
FE00
3800
3800
3000
3000
3000
3000
3000
3000
3000
3000
3008
3010
3010
3830
FFF0
ENDCHAR
STARTCHAR M
ENCODING 77
SWIDTH 895 0
DWIDTH 21 0
BBX 19 16 1 0
BITMAP
F801E0
3803C0
3C0380
3C0780
2C0580
2E0580
260D80
270980
231980
239180
21B180
21A180
21E180
20E180
20C1C0
F847E0
ENDCHAR
STARTCHAR N
ENCODING 78
SWIDTH 742 0
DWIDTH 18 0
BBX 16 16 1 0
BITMAP
F03F
780E
3C04
3C04
2E04
2704
2384
2384
21C4
20E4
2074
203C
203C
201C
200C
F804
ENDCHAR
STARTCHAR O
ENCODING 79
SWIDTH 738 0
DWIDTH 18 0
BBX 16 16 1 0
BITMAP
07E0
1C38
301C
700C
600E
E006
E006
E007
E007
E006
E006
600E
700C
300C
1C38
07E0
ENDCHAR
STARTCHAR P
ENCODING 80
SWIDTH 569 0
DWIDTH 14 0
BBX 12 16 1 0
BITMAP
FFC0
30E0
3070
3030
3030
3030
3060
30E0
3F80
3000
3000
3000
3000
3000
3800
FE00
ENDCHAR
STARTCHAR Q
ENCODING 81
SWIDTH 737 0
DWIDTH 18 0
BBX 16 20 1 -4
BITMAP
07E0
1C38
301C
700C
600E
E006
E006
E006
E006
E006
E006
600E
700C
301C
1838
0FE0
00E0
00F0
0078
001F
ENDCHAR
STARTCHAR R
ENCODING 82
SWIDTH 659 0
DWIDTH 16 0
BBX 15 16 1 0
BITMAP
FF80
30E0
3070
3030
3030
3030
3060
30E0
3F00
3380
31C0
30E0
3060
3070
3838
FE1E
ENDCHAR
STARTCHAR S
ENCODING 83
SWIDTH 504 0
DWIDTH 12 0
BBX 10 16 1 0
BITMAP
3F80
6180
C080
C0C0
E040
F000
7800
3E00
0F80
03C0
01C0
80C0
80C0
C0C0
E180
FF00
ENDCHAR
STARTCHAR T
ENCODING 84
SWIDTH 603 0
DWIDTH 14 0
BBX 14 16 0 0
BITMAP
7FFC
430C
C304
8304
0300
0300
0300
0300
0300
0300
0300
0300
0300
0300
0380
0FE0
ENDCHAR
STARTCHAR U
ENCODING 85
SWIDTH 752 0
DWIDTH 18 0
BBX 18 16 0 0
BITMAP
FE0FC0
380300
180200
180200
180200
180200
180200
180200
180200
180200
180200
180200
180200
0C0600
0E0C00
03F000
ENDCHAR
STARTCHAR V
ENCODING 86
SWIDTH 680 0
DWIDTH 16 0
BBX 16 16 0 0
BITMAP
FC1F
7806
3804
3804
1808
1C08
0C18
0E10
0610
0620
0720
0360
03C0
01C0
0180
0080
ENDCHAR
STARTCHAR W
ENCODING 87
SWIDTH 944 0
DWIDTH 23 0
BBX 23 16 0 0
BITMAP
FCFC3E
703018
383018
383810
181810
1C1C30
0C1C20
0C2C20
0E2E60
066640
074740
0343C0
038380
038380
018100
010100
ENDCHAR
STARTCHAR X
ENCODING 88
SWIDTH 664 0
DWIDTH 16 0
BBX 16 16 0 0
BITMAP
FE3F
3C0C
1C18
0E30
0E20
0740
03C0
0180
01C0
02C0
0460
0C70
1838
1038
301C
F87F
ENDCHAR
STARTCHAR Y
ENCODING 89
SWIDTH 647 0
DWIDTH 16 0
BBX 16 16 0 0
BITMAP
FC3F
780C
3808
1C10
0C30
0E20
0760
0340
0380
0180
0180
0180
0180
0180
0380
0FE0
ENDCHAR
STARTCHAR Z
ENCODING 90
SWIDTH 594 0
DWIDTH 14 0
BBX 13 16 1 0
BITMAP
7FF0
4070
40E0
80C0
01C0
0380
0300
0700
0E00
0C00
1C00
3800
3008
7010
E030
FFF0
ENDCHAR
STARTCHAR bracketleft
ENCODING 91
SWIDTH 349 0
DWIDTH 8 0
BBX 5 23 2 -5
BITMAP
F8
C0
C0
C0
C0
C0
C0
C0
C0
C0
C0
C0
C0
C0
C0
C0
C0
C0
C0
C0
C0
C0
F8
ENDCHAR
STARTCHAR backslash
ENCODING 92
SWIDTH 385 0
DWIDTH 9 0
BBX 7 20 1 -2
BITMAP
80
80
C0
40
40
60
20
20
30
10
10
18
08
08
0C
04
04
06
02
02
ENDCHAR
STARTCHAR bracketright
ENCODING 93
SWIDTH 349 0
DWIDTH 8 0
BBX 5 23 1 -5
BITMAP
F8
18
18
18
18
18
18
18
18
18
18
18
18
18
18
18
18
18
18
18
18
18
F8
ENDCHAR
STARTCHAR asciicircum
ENCODING 94
SWIDTH 480 0
DWIDTH 12 0
BBX 10 9 1 8
BITMAP
0C00
1C00
1600
3200
2300
6100
4180
C080
80C0
ENDCHAR
STARTCHAR underscore
ENCODING 95
SWIDTH 512 0
DWIDTH 12 0
BBX 12 1 0 -3
BITMAP
FFF0
ENDCHAR
STARTCHAR grave
ENCODING 96
SWIDTH 222 0
DWIDTH 5 0
BBX 4 4 1 13
BITMAP
C0
60
60
30
ENDCHAR
STARTCHAR a
ENCODING 97
SWIDTH 480 0
DWIDTH 12 0
BBX 10 12 1 0
BITMAP
3E00
6300
C300
C300
0300
0700
3B00
6300
C300
C300
C740
79C0
ENDCHAR
STARTCHAR b
ENCODING 98
SWIDTH 522 0
DWIDTH 13 0
BBX 12 17 0 0
BITMAP
7000
F000
3000
3000
3000
33C0
37E0
38E0
3060
3070
3070
3070
3060
3060
3060
30C0
1F00
ENDCHAR
STARTCHAR c
ENCODING 99
SWIDTH 446 0
DWIDTH 11 0
BBX 9 12 1 0
BITMAP
1F00
6380
4180
C100
C000
C000
C000
C000
C080
E180
7F00
3E00
ENDCHAR
STARTCHAR d
ENCODING 100
SWIDTH 539 0
DWIDTH 13 0
BBX 11 17 1 0
BITMAP
01C0
03C0
00C0
00C0
00C0
1EC0
21C0
41C0
C0C0
C0C0
C0C0
C0C0
C0C0
C0C0
E1C0
7EC0
3CE0
ENDCHAR
STARTCHAR e
ENCODING 101
SWIDTH 464 0
DWIDTH 11 0
BBX 9 12 1 0
BITMAP
1E00
6300
4180
C180
FF80
C000
C000
C000
E080
7080
7F00
1E00
ENDCHAR
STARTCHAR f
ENCODING 102
SWIDTH 307 0
DWIDTH 7 0
BBX 9 18 0 0
BITMAP
0F00
1980
1180
1000
3000
3000
7E00
3000
3000
3000
3000
3000
3000
3000
3000
3000
3800
FE00
ENDCHAR
STARTCHAR g
ENCODING 103
SWIDTH 484 0
DWIDTH 12 0
BBX 11 17 0 -5
BITMAP
1FE0
3180
60C0
60C0
70C0
7180
3F00
1000
2000
6000
7FC0
3FE0
2060
4020
E020
60C0
3F00
ENDCHAR
STARTCHAR h
ENCODING 104
SWIDTH 577 0
DWIDTH 14 0
BBX 12 17 1 0
BITMAP
E000
6000
6000
6000
6000
6380
6FC0
70C0
60E0
6060
6060
6060
6060
6060
6060
70E0
F9F0
ENDCHAR
STARTCHAR i
ENCODING 105
SWIDTH 285 0
DWIDTH 7 0
BBX 5 16 1 0
BITMAP
70
70
20
00
E0
60
60
60
60
60
60
60
60
60
70
F8
ENDCHAR
STARTCHAR j
ENCODING 106
SWIDTH 263 0
DWIDTH 6 0
BBX 7 21 -2 -5
BITMAP
0C
0E
04
00
1C
0C
0C
0C
0C
0C
0C
0C
0C
0C
0C
0C
0C
0C
CC
C8
F0
ENDCHAR
STARTCHAR k
ENCODING 107
SWIDTH 542 0
DWIDTH 13 0
BBX 12 17 1 0
BITMAP
E000
6000
6000
6000
6000
63E0
6180
6300
6600
6C00
7C00
6E00
6700
6300
6180
71C0
F9F0
ENDCHAR
STARTCHAR l
ENCODING 108
SWIDTH 283 0
DWIDTH 7 0
BBX 5 17 1 0
BITMAP
60
E0
60
60
60
60
60
60
60
60
60
60
60
60
60
70
F8
ENDCHAR
STARTCHAR m
ENCODING 109
SWIDTH 852 0
DWIDTH 20 0
BBX 19 12 1 0
BITMAP
E78F00
68F180
70E180
60C180
60C180
60C180
60C180
60C180
60C180
60C180
70E180
F9F7E0
ENDCHAR
STARTCHAR n
ENCODING 110
SWIDTH 576 0
DWIDTH 14 0
BBX 12 12 1 0
BITMAP
E780
68C0
70C0
60E0
6060
6060
6060
6060
6060
6060
70E0
F9F0
ENDCHAR
STARTCHAR o
ENCODING 111
SWIDTH 514 0
DWIDTH 12 0
BBX 11 12 1 0
BITMAP
1F00
6180
60C0
C0C0
C0C0
C0E0
C0E0
C0C0
C0C0
60C0
7180
1F00
ENDCHAR
STARTCHAR p
ENCODING 112
SWIDTH 537 0
DWIDTH 13 0
BBX 11 17 1 -5
BITMAP
6780
EFC0
70C0
60E0
6060
6060
6060
6060
6060
60C0
7180
6F00
6000
6000
6000
7000
FC00
ENDCHAR
STARTCHAR q
ENCODING 113
SWIDTH 521 0
DWIDTH 13 0
BBX 11 17 1 -5
BITMAP
1EC0
21C0
41C0
C0C0
C0C0
C0C0
C0C0
C0C0
C0C0
E1C0
7EC0
3CC0
00C0
00C0
00C0
01C0
07E0
ENDCHAR
STARTCHAR r
ENCODING 114
SWIDTH 380 0
DWIDTH 9 0
BBX 8 12 1 0
BITMAP
67
EF
6B
70
60
60
60
60
60
60
70
FC
ENDCHAR
STARTCHAR s
ENCODING 115
SWIDTH 395 0
DWIDTH 9 0
BBX 8 12 1 0
BITMAP
7E
C6
C2
C2
E0
78
1E
0F
83
83
C6
FC
ENDCHAR
STARTCHAR t
ENCODING 116
SWIDTH 315 0
DWIDTH 8 0
BBX 6 16 1 0
BITMAP
20
20
20
60
FC
60
60
60
60
60
60
60
60
60
64
38
ENDCHAR
STARTCHAR u
ENCODING 117
SWIDTH 570 0
DWIDTH 14 0
BBX 12 12 1 0
BITMAP
E3C0
60C0
60C0
60C0
60C0
60C0
60C0
60C0
60C0
60C0
31C0
1EF0
ENDCHAR
STARTCHAR v
ENCODING 118
SWIDTH 481 0
DWIDTH 12 0
BBX 12 12 0 0
BITMAP
F8F0
7060
3040
3040
3080
1880
1980
1D00
0D00
0E00
0600
0600
ENDCHAR
STARTCHAR w
ENCODING 119
SWIDTH 749 0
DWIDTH 18 0
BBX 18 12 0 0
BITMAP
FBE3C0
70C180
30C180
306100
38E100
18E200
18B200
1D3200
0D1C00
0E1C00
061C00
060800
ENDCHAR
STARTCHAR x
ENCODING 120
SWIDTH 479 0
DWIDTH 12 0
BBX 12 12 0 0
BITMAP
F9E0
30C0
3880
1900
0E00
0E00
0600
0B00
1180
31C0
60C0
F1F0
ENDCHAR
STARTCHAR y
ENCODING 121
SWIDTH 483 0
DWIDTH 12 0
BBX 12 17 0 -5
BITMAP
F8F0
7060
7040
30C0
3880
1880
1D80
0D00
0D00
0600
0600
0600
0400
0400
0800
F800
F000
ENDCHAR
STARTCHAR z
ENCODING 122
SWIDTH 458 0
DWIDTH 11 0
BBX 9 12 1 0
BITMAP
FF80
C380
8300
8600
0E00
0C00
1800
3800
3080
6080
E180
FF80
ENDCHAR
STARTCHAR braceleft
ENCODING 123
SWIDTH 327 0
DWIDTH 8 0
BBX 6 23 1 -5
BITMAP
1C
30
60
60
60
60
20
20
20
20
60
80
40
20
20
20
20
60
60
60
60
30
1C
ENDCHAR
STARTCHAR bar
ENCODING 124
SWIDTH 267 0
DWIDTH 6 0
BBX 1 22 3 -5
BITMAP
80
80
80
80
80
80
80
80
80
80
80
80
80
80
80
80
80
80
80
80
80
80
ENDCHAR
STARTCHAR braceright
ENCODING 125
SWIDTH 327 0
DWIDTH 8 0
BBX 6 23 1 -5
BITMAP
E0
30
10
18
18
10
30
30
30
10
18
0C
18
10
30
30
30
10
10
18
10
30
E0
ENDCHAR
STARTCHAR asciitilde
ENCODING 126
SWIDTH 557 0
DWIDTH 13 0
BBX 12 3 1 5
BITMAP
7C30
FFE0
C3C0
ENDCHAR
STARTCHAR uni00A0
ENCODING 160
SWIDTH 235 0
DWIDTH 6 0
BBX 1 1 0 0
BITMAP
00
ENDCHAR
STARTCHAR exclamdown
ENCODING 161
SWIDTH 282 0
DWIDTH 7 0
BBX 3 17 2 -5
BITMAP
E0
E0
C0
00
40
40
40
40
40
40
C0
C0
C0
E0
E0
E0
40
ENDCHAR
STARTCHAR cent
ENCODING 162
SWIDTH 495 0
DWIDTH 12 0
BBX 10 17 1 -1
BITMAP
0400
0400
0E00
3780
6580
4580
C400
C400
C400
C400
C400
E440
7480
3F00
1E00
0800
0800
ENDCHAR
STARTCHAR sterling
ENCODING 163
SWIDTH 495 0
DWIDTH 12 0
BBX 12 16 0 0
BITMAP
03C0
0CE0
0860
1800
1800
1800
1C00
7F80
0C00
0C00
0C00
0C00
7810
8C20
9FC0
7380
ENDCHAR
STARTCHAR currency
ENCODING 164
SWIDTH 617 0
DWIDTH 15 0
BBX 13 12 1 1
BITMAP
C018
6FB0
30E0
2060
6020
6030
6030
6020
2060
38E0
6FB0
C018
ENDCHAR
STARTCHAR yen
ENCODING 165
SWIDTH 495 0
DWIDTH 12 0
BBX 12 16 0 0
BITMAP
F8F0
7060
3040
38C0
1880
1C80
1D00
0D00
0F00
3FC0
0600
3FC0
0600
0600
0700
1F80
ENDCHAR
STARTCHAR brokenbar
ENCODING 166
SWIDTH 267 0
DWIDTH 6 0
BBX 1 17 3 0
BITMAP
80
80
80
80
80
80
80
00
00
00
80
80
80
80
80
80
80
ENDCHAR
STARTCHAR section
ENCODING 167
SWIDTH 491 0
DWIDTH 12 0
BBX 8 21 2 -5
BITMAP
3C
42
43
C3
60
70
38
5C
8E
87
C3
C1
61
3A
1C
0E
06
C2
82
C6
78
ENDCHAR
STARTCHAR dieresis
ENCODING 168
SWIDTH 392 0
DWIDTH 9 0
BBX 8 3 1 14
BITMAP
C2
C7
C6
ENDCHAR
STARTCHAR copyright
ENCODING 169
SWIDTH 781 0
DWIDTH 19 0
BBX 16 17 1 0
BITMAP
03E0
0C18
1004
2002
43F1
4631
8C11
8C01
8C01
8C01
8C01
4611
43E1
2002
3004
0818
07E0
ENDCHAR
STARTCHAR ordfeminine
ENCODING 170
SWIDTH 410 0
DWIDTH 10 0
BBX 9 10 1 6
BITMAP
7C00
C600
C600
0600
0E00
7600
C600
C600
C600
7F80
ENDCHAR
STARTCHAR guillemotleft
ENCODING 171
SWIDTH 517 0
DWIDTH 12 0
BBX 10 10 1 1
BITMAP
0840
18C0
3180
6300
C600
C600
6300
3180
1080
0840
ENDCHAR
STARTCHAR logicalnot
ENCODING 172
SWIDTH 720 0
DWIDTH 17 0
BBX 14 8 1 3
BITMAP
FFFC
FFFC
0004
0004
0004
0004
0004
0004
ENDCHAR
STARTCHAR uni00AD
ENCODING 173
SWIDTH 315 0
DWIDTH 8 0
BBX 5 2 1 5
BITMAP
F8
F8
ENDCHAR
STARTCHAR registered
ENCODING 174
SWIDTH 413 0
DWIDTH 10 0
BBX 8 9 1 9
BITMAP
3C
42
B9
A5
B9
A9
B5
42
1C
ENDCHAR
STARTCHAR macron
ENCODING 175
SWIDTH 350 0
DWIDTH 8 0
BBX 7 1 1 14
BITMAP
FE
ENDCHAR
STARTCHAR degree
ENCODING 176
SWIDTH 409 0
DWIDTH 10 0
BBX 8 8 1 10
BITMAP
3C
66
C2
C3
C3
C2
46
3C
ENDCHAR
STARTCHAR plusminus
ENCODING 177
SWIDTH 720 0
DWIDTH 17 0
BBX 15 15 1 -1
BITMAP
0100
0100
0100
0100
0100
FFFE
FFFE
0100
0100
0100
0100
0100
0000
FFFE
FFFE
ENDCHAR
STARTCHAR twosuperior
ENCODING 178
SWIDTH 373 0
DWIDTH 9 0
BBX 8 12 1 6
BITMAP
78
8E
86
06
06
0C
08
10
21
42
FE
FE
ENDCHAR
STARTCHAR threesuperior
ENCODING 179
SWIDTH 374 0
DWIDTH 9 0
BBX 7 12 1 6
BITMAP
78
8C
84
04
08
38
0E
06
06
06
84
F8
ENDCHAR
STARTCHAR acute
ENCODING 180
SWIDTH 222 0
DWIDTH 5 0
BBX 4 4 1 13
BITMAP
70
60
C0
80
ENDCHAR
STARTCHAR uni00B5
ENCODING 181
SWIDTH 556 0
DWIDTH 13 0
BBX 12 17 1 -5
BITMAP
60C0
60C0
60C0
6080
4080
4080
4180
4180
4280
6290
FEF0
DCE0
C000
C000
C000
C000
C000
ENDCHAR
STARTCHAR paragraph
ENCODING 182
SWIDTH 605 0
DWIDTH 15 0
BBX 12 20 1 -4
BITMAP
1FF0
66C0
66C0
C6C0
C6C0
C6C0
C6C0
66C0
26C0
1EC0
06C0
06C0
06C0
06C0
06C0
06C0
06C0
06C0
06C0
1EF0
ENDCHAR
STARTCHAR periodcentered
ENCODING 183
SWIDTH 282 0
DWIDTH 7 0
BBX 3 3 2 5
BITMAP
C0
E0
C0
ENDCHAR
STARTCHAR cedilla
ENCODING 184
SWIDTH 247 0
DWIDTH 6 0
BBX 4 6 1 -5
BITMAP
40
40
70
10
10
E0
ENDCHAR
STARTCHAR onesuperior
ENCODING 185
SWIDTH 343 0
DWIDTH 8 0
BBX 6 12 1 6
BITMAP
70
B0
30
30
30
30
30
30
30
30
30
FC
ENDCHAR
STARTCHAR ordmasculine
ENCODING 186
SWIDTH 432 0
DWIDTH 10 0
BBX 9 10 1 6
BITMAP
3C00
6300
C300
C100
C180
C180
C100
C300
6300
3C00
ENDCHAR
STARTCHAR guillemotright
ENCODING 187
SWIDTH 517 0
DWIDTH 12 0
BBX 11 10 1 1
BITMAP
8400
4200
6100
3180
18C0
1CE0
18C0
3180
4300
8600
ENDCHAR
STARTCHAR onequarter
ENCODING 188
SWIDTH 861 0
DWIDTH 21 0
BBX 19 18 1 0
BITMAP
000200
700400
B00400
300800
301800
301000
302000
302080
304180
30C280
FC8280
018480
010880
021880
021FE0
040080
0C0080
080000
ENDCHAR
STARTCHAR onehalf
ENCODING 189
SWIDTH 889 0
DWIDTH 21 0
BBX 20 17 1 0
BITMAP
100600
F00400
300C00
300800
301000
301000
302000
3063C0
304CE0
308060
FC8060
010060
0300C0
020100
060210
0407F0
080FE0
ENDCHAR
STARTCHAR threequarters
ENCODING 190
SWIDTH 861 0
DWIDTH 21 0
BBX 19 18 1 0
BITMAP
000200
780400
8C0400
840800
0C1800
081000
3C2000
062080
064180
C6C280
F88280
018480
010880
021880
021FE0
040080
0C0080
080000
ENDCHAR
STARTCHAR questiondown
ENCODING 191
SWIDTH 411 0
DWIDTH 10 0
BBX 8 17 1 -5
BITMAP
18
18
18
00
08
18
10
10
20
60
C0
C0
C3
C3
C3
E3
3C
ENDCHAR
STARTCHAR Agrave
ENCODING 192
SWIDTH 718 0
DWIDTH 17 0
BBX 17 20 0 0
BITMAP
038000
01C000
006000
000000
008000
01C000
01C000
03E000
026000
026000
067000
043000
0C3800
083800
0FFC00
181C00
100C00
300E00
300F00
F81F80
ENDCHAR
STARTCHAR Aacute
ENCODING 193
SWIDTH 718 0
DWIDTH 17 0
BBX 17 20 0 0
BITMAP
00E000
01C000
030000
000000
008000
01C000
01C000
03E000
026000
026000
067000
043000
0C3800
083800
0FFC00
181C00
100C00
300E00
300F00
F81F80
ENDCHAR
STARTCHAR Acircumflex
ENCODING 194
SWIDTH 718 0
DWIDTH 17 0
BBX 17 21 0 0
BITMAP
008000
01C000
036000
063000
000000
008000
01C000
01C000
03E000
026000
026000
067000
043000
0C3800
083800
0FFC00
181C00
100C00
300E00
300F00
F81F80
ENDCHAR
STARTCHAR Atilde
ENCODING 195
SWIDTH 718 0
DWIDTH 17 0
BBX 17 21 0 0
BITMAP
030800
079000
04E000
000000
000000
008000
01C000
01C000
03E000
026000
026000
067000
043000
0C3800
083800
0FFC00
181C00
100C00
300E00
300F00
F81F80
ENDCHAR
STARTCHAR Adieresis
ENCODING 196
SWIDTH 718 0
DWIDTH 17 0
BBX 17 20 0 0
BITMAP
063000
0E3800
063000
000000
008000
01C000
01C000
03E000
026000
026000
067000
043000
0C3800
083800
0FFC00
181C00
100C00
300E00
300F00
F81F80
ENDCHAR
STARTCHAR Aring
ENCODING 197
SWIDTH 718 0
DWIDTH 17 0
BBX 17 22 0 0
BITMAP
01C000
022000
022000
022000
01C000
000000
008000
01C000
01C000
03E000
026000
026000
067000
043000
0C3800
083800
0FFC00
181C00
100C00
300E00
300F00
F81F80
ENDCHAR
STARTCHAR AE
ENCODING 198
SWIDTH 894 0
DWIDTH 21 0
BBX 22 16 -1 0
BITMAP
00FFF8
007818
005808
00D808
009800
019820
011820
031820
03FFE0
061820
0C1820
081800
181804
101808
301818
FC7FF8
ENDCHAR
STARTCHAR Ccedilla
ENCODING 199
SWIDTH 670 0
DWIDTH 16 0
BBX 14 21 1 -5
BITMAP
07E4
1C3C
301C
700C
600C
E004
E000
E000
E000
E000
E000
6000
7000
3004
1C18
07E0
0200
0380
00C0
00C0
0780
ENDCHAR
STARTCHAR Egrave
ENCODING 200
SWIDTH 626 0
DWIDTH 15 0
BBX 13 20 1 0
BITMAP
0E00
0300
0180
0000
FFF0
3018
3008
3000
3020
3020
3060
3FE0
3020
3020
3000
3008
3008
3008
3018
FFF8
ENDCHAR
STARTCHAR Eacute
ENCODING 201
SWIDTH 626 0
DWIDTH 15 0
BBX 13 20 1 0
BITMAP
0380
0300
0C00
0000
FFF0
3018
3008
3000
3020
3020
3060
3FE0
3020
3020
3000
3008
3008
3008
3018
FFF8
ENDCHAR
STARTCHAR Ecircumflex
ENCODING 202
SWIDTH 626 0
DWIDTH 15 0
BBX 13 21 1 0
BITMAP
0300
0700
0D80
1840
0000
FFF0
3018
3008
3000
3020
3020
3060
3FE0
3020
3020
3000
3008
3008
3008
3018
FFF8
ENDCHAR
STARTCHAR Edieresis
ENCODING 203
SWIDTH 626 0
DWIDTH 15 0
BBX 13 20 1 0
BITMAP
1840
18E0
18C0
0000
FFF0
3018
3008
3000
3020
3020
3060
3FE0
3020
3020
3000
3008
3008
3008
3018
FFF8
ENDCHAR
STARTCHAR Igrave
ENCODING 204
SWIDTH 357 0
DWIDTH 9 0
BBX 7 20 1 0
BITMAP
70
30
0C
00
FE
38
30
30
30
30
30
30
30
30
30
30
30
30
38
FE
ENDCHAR
STARTCHAR Iacute
ENCODING 205
SWIDTH 357 0
DWIDTH 9 0
BBX 7 20 1 0
BITMAP
1C
30
60
00
FE
38
30
30
30
30
30
30
30
30
30
30
30
30
38
FE
ENDCHAR
STARTCHAR Icircumflex
ENCODING 206
SWIDTH 357 0
DWIDTH 9 0
BBX 7 21 1 0
BITMAP
30
38
6C
86
00
FE
38
30
30
30
30
30
30
30
30
30
30
30
30
38
FE
ENDCHAR
STARTCHAR Idieresis
ENCODING 207
SWIDTH 357 0
DWIDTH 9 0
BBX 8 20 0 0
BITMAP
63
E3
63
00
7F
1C
18
18
18
18
18
18
18
18
18
18
18
18
1C
7F
ENDCHAR
STARTCHAR Eth
ENCODING 208
SWIDTH 737 0
DWIDTH 18 0
BBX 15 16 1 0
BITMAP
FFC0
3870
381C
380C
380E
380E
3806
FF86
3806
3806
3806
380E
380C
381C
3838
FFC0
ENDCHAR
STARTCHAR Ntilde
ENCODING 209
SWIDTH 742 0
DWIDTH 18 0
BBX 16 21 1 0
BITMAP
0310
0790
08E0
0000
0000
F03F
780E
3C04
3C04
2E04
2704
2384
2384
21C4
20E4
2074
203C
203C
201C
200C
F804
ENDCHAR
STARTCHAR Ograve
ENCODING 210
SWIDTH 738 0
DWIDTH 18 0
BBX 16 20 1 0
BITMAP
0700
0180
00C0
0000
07E0
1C38
301C
700C
600E
E006
E006
E007
E007
E006
E006
600E
700C
300C
1C38
07E0
ENDCHAR
STARTCHAR Oacute
ENCODING 211
SWIDTH 738 0
DWIDTH 18 0
BBX 16 20 1 0
BITMAP
00C0
0180
0200
0000
07E0
1C38
301C
700C
600E
E006
E006
E007
E007
E006
E006
600E
700C
300C
1C38
07E0
ENDCHAR
STARTCHAR Ocircumflex
ENCODING 212
SWIDTH 738 0
DWIDTH 18 0
BBX 16 21 1 0
BITMAP
0180
03C0
0640
0C20
0000
07E0
1C38
301C
700C
600E
E006
E006
E007
E007
E006
E006
600E
700C
300C
1C38
07E0
ENDCHAR
STARTCHAR Otilde
ENCODING 213
SWIDTH 738 0
DWIDTH 18 0
BBX 16 21 1 0
BITMAP
0610
0790
08E0
0000
0000
07E0
1C38
301C
700C
600E
E006
E006
E007
E007
E006
E006
600E
700C
300C
1C38
07E0
ENDCHAR
STARTCHAR Odieresis
ENCODING 214
SWIDTH 738 0
DWIDTH 18 0
BBX 16 20 1 0
BITMAP
0C20
0E70
0C70
0000
07E0
1C38
301C
700C
600E
E006
E006
E007
E007
E006
E006
600E
700C
300C
1C38
07E0
ENDCHAR
STARTCHAR multiply
ENCODING 215
SWIDTH 720 0
DWIDTH 17 0
BBX 13 14 2 -1
BITMAP
8008
C018
6030
3060
18C0
0D80
0700
0780
0DC0
18E0
3070
6038
C018
8008
ENDCHAR
STARTCHAR Oslash
ENCODING 216
SWIDTH 737 0
DWIDTH 18 0
BBX 15 16 1 0
BITMAP
07E4
1C38
301C
703C
602E
E046
E086
E186
E106
E206
E406
680E
780C
300C
3838
47E0
ENDCHAR
STARTCHAR Ugrave
ENCODING 217
SWIDTH 752 0
DWIDTH 18 0
BBX 18 20 0 0
BITMAP
01C000
00E000
003000
000000
FE0FC0
380300
180200
180200
180200
180200
180200
180200
180200
180200
180200
180200
180200
0C0600
0E0C00
03F000
ENDCHAR
STARTCHAR Uacute
ENCODING 218
SWIDTH 752 0
DWIDTH 18 0
BBX 18 20 0 0
BITMAP
007000
006000
018000
000000
FE0FC0
380300
180200
180200
180200
180200
180200
180200
180200
180200
180200
180200
180200
0C0600
0E0C00
03F000
ENDCHAR
STARTCHAR Ucircumflex
ENCODING 219
SWIDTH 752 0
DWIDTH 18 0
BBX 18 21 0 0
BITMAP
004000
00E000
01B000
030800
000000
FE0FC0
380300
180200
180200
180200
180200
180200
180200
180200
180200
180200
180200
180200
0C0600
0E0C00
03F000
ENDCHAR
STARTCHAR Udieresis
ENCODING 220
SWIDTH 752 0
DWIDTH 18 0
BBX 18 20 0 0
BITMAP
031800
031C00
031800
000000
FE0FC0
380300
180200
180200
180200
180200
180200
180200
180200
180200
180200
180200
180200
0C0600
0E0C00
03F000
ENDCHAR
STARTCHAR Yacute
ENCODING 221
SWIDTH 647 0
DWIDTH 16 0
BBX 16 20 0 0
BITMAP
00E0
0180
0300
0000
FC3F
780C
3808
1C10
0C30
0E20
0760
0340
0380
0180
0180
0180
0180
0180
0380
0FE0
ENDCHAR
STARTCHAR Thorn
ENCODING 222
SWIDTH 572 0
DWIDTH 14 0
BBX 12 16 1 0
BITMAP
FE00
3800
3000
3F80
30E0
3070
3030
3030
3070
3060
30E0
3F80
3000
3000
3800
FE00
ENDCHAR
STARTCHAR germandbls
ENCODING 223
SWIDTH 563 0
DWIDTH 14 0
BBX 12 18 1 0
BITMAP
0F00
10C0
30C0
20C0
60C0
60C0
E180
6600
6180
60C0
6060
6070
6070
6070
6070
6660
6660
E380
ENDCHAR
STARTCHAR agrave
ENCODING 224
SWIDTH 480 0
DWIDTH 12 0
BBX 10 17 1 0
BITMAP
3000
1800
0800
0C00
0000
3E00
6300
C300
C300
0300
0700
3B00
6300
C300
C300
C740
79C0
ENDCHAR
STARTCHAR aacute
ENCODING 225
SWIDTH 480 0
DWIDTH 12 0
BBX 10 17 1 0
BITMAP
0600
0C00
0800
1800
0000
3E00
6300
C300
C300
0300
0700
3B00
6300
C300
C300
C740
79C0
ENDCHAR
STARTCHAR acircumflex
ENCODING 226
SWIDTH 480 0
DWIDTH 12 0
BBX 10 17 1 0
BITMAP
1C00
1C00
3200
6100
0000
3E00
6300
C300
C300
0300
0700
3B00
6300
C300
C300
C740
79C0
ENDCHAR
STARTCHAR atilde
ENCODING 227
SWIDTH 480 0
DWIDTH 12 0
BBX 10 16 1 0
BITMAP
3080
7900
4E00
0000
3E00
6300
C300
C300
0300
0700
3B00
6300
C300
C300
C740
79C0
ENDCHAR
STARTCHAR adieresis
ENCODING 228
SWIDTH 480 0
DWIDTH 12 0
BBX 10 17 1 0
BITMAP
6300
6380
6300
0000
0000
3E00
6300
C300
C300
0300
0700
3B00
6300
C300
C300
C740
79C0
ENDCHAR
STARTCHAR aring
ENCODING 229
SWIDTH 480 0
DWIDTH 12 0
BBX 10 18 1 0
BITMAP
1C00
2200
2200
2200
1C00
0000
3E00
6300
C300
C300
0300
0700
3B00
6300
C300
C300
C740
79C0
ENDCHAR
STARTCHAR ae
ENCODING 230
SWIDTH 709 0
DWIDTH 17 0
BBX 15 12 1 0
BITMAP
3C78
678C
C306
4306
07FE
1B00
6300
C300
C382
C382
E5FC
7878
ENDCHAR
STARTCHAR ccedilla
ENCODING 231
SWIDTH 446 0
DWIDTH 11 0
BBX 9 17 1 -5
BITMAP
1F00
6380
4180
C100
C000
C000
C000
C000
C080
E180
7F00
3E00
0800
0E00
0200
0200
1C00
ENDCHAR
STARTCHAR egrave
ENCODING 232
SWIDTH 464 0
DWIDTH 11 0
BBX 9 17 1 0
BITMAP
3800
1800
0800
0400
0000
1E00
6300
4180
C180
FF80
C000
C000
C000
E080
7080
7F00
1E00
ENDCHAR
STARTCHAR eacute
ENCODING 233
SWIDTH 464 0
DWIDTH 11 0
BBX 9 17 1 0
BITMAP
0600
0600
0C00
0800
0000
1E00
6300
4180
C180
FF80
C000
C000
C000
E080
7080
7F00
1E00
ENDCHAR
STARTCHAR ecircumflex
ENCODING 234
SWIDTH 464 0
DWIDTH 11 0
BBX 9 17 1 0
BITMAP
0C00
1E00
3200
6100
0000
1E00
6300
4180
C180
FF80
C000
C000
C000
E080
7080
7F00
1E00
ENDCHAR
STARTCHAR edieresis
ENCODING 235
SWIDTH 464 0
DWIDTH 11 0
BBX 9 17 1 0
BITMAP
6100
7380
6300
0000
0000
1E00
6300
4180
C180
FF80
C000
C000
C000
E080
7080
7F00
1E00
ENDCHAR
STARTCHAR igrave
ENCODING 236
SWIDTH 285 0
DWIDTH 7 0
BBX 6 17 0 0
BITMAP
E0
60
30
10
00
70
30
30
30
30
30
30
30
30
30
38
7C
ENDCHAR
STARTCHAR iacute
ENCODING 237
SWIDTH 285 0
DWIDTH 7 0
BBX 5 17 1 0
BITMAP
38
30
60
40
00
E0
60
60
60
60
60
60
60
60
60
70
F8
ENDCHAR
STARTCHAR icircumflex
ENCODING 238
SWIDTH 285 0
DWIDTH 7 0
BBX 6 17 0 0
BITMAP
30
78
48
84
00
70
30
30
30
30
30
30
30
30
30
38
7C
ENDCHAR
STARTCHAR idieresis
ENCODING 239
SWIDTH 285 0
DWIDTH 7 0
BBX 8 16 -1 0
BITMAP
66
E7
42
00
38
18
18
18
18
18
18
18
18
18
1C
3E
ENDCHAR
STARTCHAR eth
ENCODING 240
SWIDTH 532 0
DWIDTH 13 0
BBX 11 18 1 0
BITMAP
7C20
07C0
0380
1D80
00C0
00C0
1EC0
61C0
60C0
C0E0
C0E0
C0E0
C0C0
C0C0
C0C0
6080
7180
1E00
ENDCHAR
STARTCHAR ntilde
ENCODING 241
SWIDTH 576 0
DWIDTH 14 0
BBX 12 16 1 0
BITMAP
0C40
1E40
2380
0000
E780
68C0
70C0
60E0
6060
6060
6060
6060
6060
6060
70E0
F9F0
ENDCHAR
STARTCHAR ograve
ENCODING 242
SWIDTH 514 0
DWIDTH 12 0
BBX 11 17 1 0
BITMAP
1800
0C00
0C00
0600
0000
1F00
6180
60C0
C0C0
C0C0
C0E0
C0E0
C0C0
C0C0
60C0
7180
1F00
ENDCHAR
STARTCHAR oacute
ENCODING 243
SWIDTH 514 0
DWIDTH 12 0
BBX 11 17 1 0
BITMAP
0700
0600
0400
0800
0000
1F00
6180
60C0
C0C0
C0C0
C0E0
C0E0
C0C0
C0C0
60C0
7180
1F00
ENDCHAR
STARTCHAR ocircumflex
ENCODING 244
SWIDTH 514 0
DWIDTH 12 0
BBX 11 17 1 0
BITMAP
0C00
1E00
1300
2180
0000
1F00
6180
60C0
C0C0
C0C0
C0E0
C0E0
C0C0
C0C0
60C0
7180
1F00
ENDCHAR
STARTCHAR otilde
ENCODING 245
SWIDTH 514 0
DWIDTH 12 0
BBX 11 16 1 0
BITMAP
1880
3C80
4700
0000
1F00
6180
60C0
C0C0
C0C0
C0E0
C0E0
C0C0
C0C0
60C0
7180
1F00
ENDCHAR
STARTCHAR odieresis
ENCODING 246
SWIDTH 514 0
DWIDTH 12 0
BBX 11 17 1 0
BITMAP
3180
7180
3180
0000
0000
1F00
6180
60C0
C0C0
C0C0
C0E0
C0E0
C0C0
C0C0
60C0
7180
1F00
ENDCHAR
STARTCHAR divide
ENCODING 247
SWIDTH 720 0
DWIDTH 17 0
BBX 15 13 1 0
BITMAP
0180
0380
0100
0000
0000
FFFE
FFFE
0000
0000
0000
0100
0380
0180
ENDCHAR
STARTCHAR oslash
ENCODING 248
SWIDTH 514 0
DWIDTH 12 0
BBX 11 12 1 0
BITMAP
1FC0
6180
61C0
C2C0
C6C0
C4C0
C8E0
D0C0
E0C0
60C0
6180
9F00
ENDCHAR
STARTCHAR ugrave
ENCODING 249
SWIDTH 570 0
DWIDTH 14 0
BBX 12 17 1 0
BITMAP
1800
0C00
0400
0200
0000
E3C0
60C0
60C0
60C0
60C0
60C0
60C0
60C0
60C0
60C0
31C0
1EF0
ENDCHAR
STARTCHAR uacute
ENCODING 250
SWIDTH 570 0
DWIDTH 14 0
BBX 12 17 1 0
BITMAP
0300
0600
0600
0C00
0000
E3C0
60C0
60C0
60C0
60C0
60C0
60C0
60C0
60C0
60C0
31C0
1EF0
ENDCHAR
STARTCHAR ucircumflex
ENCODING 251
SWIDTH 570 0
DWIDTH 14 0
BBX 12 17 1 0
BITMAP
0E00
0E00
1900
3080
0000
E3C0
60C0
60C0
60C0
60C0
60C0
60C0
60C0
60C0
60C0
31C0
1EF0
ENDCHAR
STARTCHAR udieresis
ENCODING 252
SWIDTH 570 0
DWIDTH 14 0
BBX 12 17 1 0
BITMAP
3180
31C0
3180
0000
0000
E3C0
60C0
60C0
60C0
60C0
60C0
60C0
60C0
60C0
60C0
31C0
1EF0
ENDCHAR
STARTCHAR yacute
ENCODING 253
SWIDTH 483 0
DWIDTH 12 0
BBX 12 22 0 -5
BITMAP
0380
0300
0200
0400
0000
F8F0
7060
7040
30C0
3880
1880
1D80
0D00
0D00
0600
0600
0600
0400
0400
0800
F800
F000
ENDCHAR
STARTCHAR thorn
ENCODING 254
SWIDTH 524 0
DWIDTH 13 0
BBX 12 22 0 -5
BITMAP
7000
F000
3000
3000
3000
33C0
37E0
38E0
3070
3070
3030
3030
3070
3060
3060
38C0
3F80
3000
3000
3000
3000
FC00
ENDCHAR
STARTCHAR ydieresis
ENCODING 255
SWIDTH 483 0
DWIDTH 12 0
BBX 12 22 0 -5
BITMAP
18C0
38C0
18C0
0000
0000
F8F0
7060
7040
30C0
3880
1880
1D80
0D00
0D00
0600
0600
0600
0400
0400
0800
F800
F000
ENDCHAR
STARTCHAR Amacron
ENCODING 256
SWIDTH 718 0
DWIDTH 17 0
BBX 17 19 0 0
BITMAP
07F000
000000
000000
008000
01C000
01C000
03E000
026000
026000
067000
043000
0C3800
083800
0FFC00
181C00
100C00
300E00
300F00
F81F80
ENDCHAR
STARTCHAR amacron
ENCODING 257
SWIDTH 480 0
DWIDTH 12 0
BBX 10 15 1 0
BITMAP
7F00
0000
0000
3E00
6300
C300
C300
0300
0700
3B00
6300
C300
C300
C740
79C0
ENDCHAR
STARTCHAR Abreve
ENCODING 258
SWIDTH 718 0
DWIDTH 17 0
BBX 17 22 0 0
BITMAP
041000
041000
03E000
03C000
000000
000000
008000
01C000
01C000
03E000
026000
026000
067000
043000
0C3800
083800
0FFC00
181C00
100C00
300E00
300F00
F81F80
ENDCHAR
STARTCHAR abreve
ENCODING 259
SWIDTH 480 0
DWIDTH 12 0
BBX 10 17 1 0
BITMAP
4100
4100
3E00
3C00
0000
3E00
6300
C300
C300
0300
0700
3B00
6300
C300
C300
C740
79C0
ENDCHAR
STARTCHAR Aogonek
ENCODING 260
SWIDTH 719 0
DWIDTH 17 0
BBX 17 21 0 -5
BITMAP
008000
01C000
01C000
01E000
026000
026000
043000
043000
083800
0FF800
081C00
100C00
100C00
300E00
300F00
F83F80
006000
004000
00C000
00C400
007800
ENDCHAR
STARTCHAR aogonek
ENCODING 261
SWIDTH 480 0
DWIDTH 12 0
BBX 11 17 1 -5
BITMAP
3E00
6300
C300
4300
0300
0700
3B00
6300
C300
C300
C720
79C0
0100
0200
0600
0620
03C0
ENDCHAR
STARTCHAR Cacute
ENCODING 262
SWIDTH 670 0
DWIDTH 16 0
BBX 14 20 1 0
BITMAP
00E0
0180
0300
0000
07E4
1C3C
301C
700C
600C
E004
E000
E000
E000
E000
E000
6000
7000
3004
1C18
07E0
ENDCHAR
STARTCHAR cacute
ENCODING 263
SWIDTH 446 0
DWIDTH 11 0
BBX 9 17 1 0
BITMAP
0600
0600
0C00
1800
0000
1F00
6380
4180
C100
C000
C000
C000
C000
C080
E180
7F00
3E00
ENDCHAR
STARTCHAR Ccircumflex
ENCODING 264
SWIDTH 670 0
DWIDTH 16 0
BBX 14 21 1 0
BITMAP
0180
03C0
0240
0430
0000
07E4
1C3C
301C
700C
600C
E004
E000
E000
E000
E000
E000
6000
7000
3004
1C18
07E0
ENDCHAR
STARTCHAR ccircumflex
ENCODING 265
SWIDTH 446 0
DWIDTH 11 0
BBX 9 17 1 0
BITMAP
0C00
1E00
3200
6100
0000
1F00
6380
4180
C100
C000
C000
C000
C000
C080
E180
7F00
3E00
ENDCHAR
STARTCHAR Cdotaccent
ENCODING 266
SWIDTH 670 0
DWIDTH 16 0
BBX 14 20 1 0
BITMAP
0180
0180
0180
0000
07E4
1C3C
301C
700C
600C
E004
E000
E000
E000
E000
E000
6000
7000
3004
1C18
07E0
ENDCHAR
STARTCHAR cdotaccent
ENCODING 267
SWIDTH 446 0
DWIDTH 11 0
BBX 9 17 1 0
BITMAP
0C00
1C00
0C00
0000
0000
1F00
6380
4180
C100
C000
C000
C000
C000
C080
E180
7F00
3E00
ENDCHAR
STARTCHAR Ccaron
ENCODING 268
SWIDTH 670 0
DWIDTH 16 0
BBX 14 21 1 0
BITMAP
0410
0660
03C0
0180
0000
07E4
1C3C
301C
700C
600C
E004
E000
E000
E000
E000
E000
6000
7000
3004
1C18
07E0
ENDCHAR
STARTCHAR ccaron
ENCODING 269
SWIDTH 446 0
DWIDTH 11 0
BBX 9 17 1 0
BITMAP
6100
3200
1E00
0C00
0000
1F00
6380
4180
C100
C000
C000
C000
C000
C080
E180
7F00
3E00
ENDCHAR
STARTCHAR Dcaron
ENCODING 270
SWIDTH 730 0
DWIDTH 18 0
BBX 15 21 1 0
BITMAP
0820
0C40
0780
0300
0000
FFC0
3070
301C
300C
300E
300E
3006
3006
3006
3006
3006
300E
300C
301C
3070
FFC0
ENDCHAR
STARTCHAR dcaron
ENCODING 271
SWIDTH 626 0
DWIDTH 15 0
BBX 14 17 1 0
BITMAP
01CC
03D8
00D8
00D8
00D0
1EC0
21C0
41C0
C0C0
C0C0
C0C0
C0C0
C0C0
C0C0
E1C0
7EC0
3CE0
ENDCHAR
STARTCHAR Dcroat
ENCODING 272
SWIDTH 733 0
DWIDTH 18 0
BBX 15 16 1 0
BITMAP
FFC0
3070
301C
301C
300E
300E
3006
FF86
3006
3006
300E
300E
300C
301C
3070
FFC0
ENDCHAR
STARTCHAR dcroat
ENCODING 273
SWIDTH 540 0
DWIDTH 13 0
BBX 11 17 1 0
BITMAP
01C0
03C0
00C0
0FE0
00C0
1EC0
21C0
41C0
C0C0
C0C0
C0C0
C0C0
C0C0
C0C0
E1C0
7EC0
3CE0
ENDCHAR
STARTCHAR Emacron
ENCODING 274
SWIDTH 626 0
DWIDTH 15 0
BBX 13 19 1 0
BITMAP
1FC0
0000
0000
FFF0
3018
3008
3000
3020
3020
3060
3FE0
3020
3020
3000
3008
3008
3008
3018
FFF8
ENDCHAR
STARTCHAR emacron
ENCODING 275
SWIDTH 464 0
DWIDTH 11 0
BBX 9 15 1 0
BITMAP
7F00
0000
0000
1E00
6300
4180
C180
FF80
C000
C000
C000
E080
7080
7F00
1E00
ENDCHAR
STARTCHAR Ebreve
ENCODING 276
SWIDTH 626 0
DWIDTH 15 0
BBX 13 22 1 0
BITMAP
1040
1840
0FC0
0780
0000
0000
FFF0
3018
3008
3000
3020
3020
3060
3FE0
3020
3020
3000
3008
3008
3008
3018
FFF8
ENDCHAR
STARTCHAR ebreve
ENCODING 277
SWIDTH 464 0
DWIDTH 11 0
BBX 9 17 1 0
BITMAP
4100
6100
3F00
1E00
0000
1E00
6300
4180
C180
FF80
C000
C000
C000
E080
7080
7F00
1E00
ENDCHAR
STARTCHAR Edotaccent
ENCODING 278
SWIDTH 626 0
DWIDTH 15 0
BBX 13 20 1 0
BITMAP
0200
0700
0300
0000
FFF0
3018
3008
3000
3020
3020
3060
3FE0
3020
3020
3000
3008
3008
3008
3018
FFF8
ENDCHAR
STARTCHAR edotaccent
ENCODING 279
SWIDTH 464 0
DWIDTH 11 0
BBX 9 17 1 0
BITMAP
0C00
1C00
0C00
0000
0000
1E00
6300
4180
C180
FF80
C000
C000
C000
E080
7080
7F00
1E00
ENDCHAR
STARTCHAR Eogonek
ENCODING 280
SWIDTH 625 0
DWIDTH 15 0
BBX 13 21 1 -5
BITMAP
FFF0
3018
3008
3000
3020
3020
3060
3FE0
3020
3020
3000
3008
3008
3008
3018
FFF8
0020
0040
00C0
00C8
0070
ENDCHAR
STARTCHAR eogonek
ENCODING 281
SWIDTH 464 0
DWIDTH 11 0
BBX 9 17 1 -5
BITMAP
1E00
6300
4180
C180
FF80
C000
C000
C000
E080
7080
7F00
1E00
0400
0800
1800
1900
0E00
ENDCHAR
STARTCHAR Ecaron
ENCODING 282
SWIDTH 626 0
DWIDTH 15 0
BBX 13 21 1 0
BITMAP
1040
0880
0780
0700
0000
FFF0
3018
3008
3000
3020
3020
3060
3FE0
3020
3020
3000
3008
3008
3008
3018
FFF8
ENDCHAR
STARTCHAR ecaron
ENCODING 283
SWIDTH 464 0
DWIDTH 11 0
BBX 9 17 1 0
BITMAP
6100
3200
1E00
0C00
0000
1E00
6300
4180
C180
FF80
C000
C000
C000
E080
7080
7F00
1E00
ENDCHAR
STARTCHAR Gcircumflex
ENCODING 284
SWIDTH 720 0
DWIDTH 17 0
BBX 15 21 1 0
BITMAP
0180
03C0
0240
0430
0800
07E4
1C3C
300C
700C
600C
E004
E000
E000
E03E
E01C
E00C
600C
700C
300C
1C1C
07F0
ENDCHAR
STARTCHAR gcircumflex
ENCODING 285
SWIDTH 484 0
DWIDTH 12 0
BBX 11 22 0 -5
BITMAP
0600
0F00
1900
3080
0000
1FE0
3180
60C0
60C0
70C0
7180
3F00
1000
2000
6000
7FC0
3FE0
2060
4020
E020
60C0
3F00
ENDCHAR
STARTCHAR Gbreve
ENCODING 286
SWIDTH 720 0
DWIDTH 17 0
BBX 15 22 1 0
BITMAP
0810
0420
07E0
03C0
0000
0000
07E4
1C3C
300C
700C
600C
E004
E000
E000
E03E
E01C
E00C
600C
700C
300C
1C1C
07F0
ENDCHAR
STARTCHAR gbreve
ENCODING 287
SWIDTH 484 0
DWIDTH 12 0
BBX 11 22 0 -5
BITMAP
2080
3080
1F80
0F00
0000
1FE0
3180
60C0
60C0
70C0
7180
3F00
1000
2000
6000
7FC0
3FE0
2060
4020
E020
60C0
3F00
ENDCHAR
STARTCHAR Gdotaccent
ENCODING 288
SWIDTH 720 0
DWIDTH 17 0
BBX 15 20 1 0
BITMAP
0180
0180
0180
0000
07E4
1C3C
300C
700C
600C
E004
E000
E000
E03E
E01C
E00C
600C
700C
300C
1C1C
07F0
ENDCHAR
STARTCHAR gdotaccent
ENCODING 289
SWIDTH 484 0
DWIDTH 12 0
BBX 11 22 0 -5
BITMAP
0600
0E00
0600
0000
0000
1FE0
3180
60C0
60C0
70C0
7180
3F00
1000
2000
6000
7FC0
3FE0
2060
4020
E020
60C0
3F00
ENDCHAR
STARTCHAR Gcommaaccent
ENCODING 290
SWIDTH 720 0
DWIDTH 17 0
BBX 15 23 1 -7
BITMAP
07E4
1C3C
300C
700C
600C
E004
E000
E000
E03E
E01C
E00C
600C
700C
300C
1C1C
07F0
0000
0180
0380
0380
0080
0180
0200
ENDCHAR
STARTCHAR gcommaaccent
ENCODING 291
SWIDTH 484 0
DWIDTH 12 0
BBX 11 24 0 -5
BITMAP
0200
0400
0800
0E00
0E00
0600
0000
1FE0
3180
60C0
60C0
70C0
7180
3F00
1000
2000
6000
7FC0
3FE0
2060
4020
E020
60C0
3F00
ENDCHAR
STARTCHAR Hcircumflex
ENCODING 292
SWIDTH 777 0
DWIDTH 19 0
BBX 17 21 1 0
BITMAP
008000
01C000
036000
043000
000000
FE3F80
380E00
300C00
300C00
300C00
300C00
300C00
3FFC00
300C00
300C00
300C00
300C00
300C00
300C00
380E00
FE3F80
ENDCHAR
STARTCHAR hcircumflex
ENCODING 293
SWIDTH 577 0
DWIDTH 14 0
BBX 12 22 1 0
BITMAP
0400
0E00
1B00
3180
0000
E000
6000
6000
6000
6000
6380
6FC0
70C0
60E0
6060
6060
6060
6060
6060
6060
70E0
F9F0
ENDCHAR
STARTCHAR Hbar
ENCODING 294
SWIDTH 788 0
DWIDTH 19 0
BBX 17 16 1 0
BITMAP
FE3F80
380E00
380E00
380E00
FFFF80
380E00
380E00
3FFE00
380E00
380E00
380E00
380E00
380E00
380E00
380E00
FE3F80
ENDCHAR
STARTCHAR hbar
ENCODING 295
SWIDTH 579 0
DWIDTH 14 0
BBX 12 17 1 0
BITMAP
E000
6000
6000
FE00
6000
6380
6FC0
78C0
60E0
6060
6060
6060
6060
6060
6060
70E0
F9F0
ENDCHAR
STARTCHAR Itilde
ENCODING 296
SWIDTH 357 0
DWIDTH 9 0
BBX 8 21 0 0
BITMAP
31
79
8E
00
00
7F
1C
18
18
18
18
18
18
18
18
18
18
18
18
1C
7F
ENDCHAR
STARTCHAR itilde
ENCODING 297
SWIDTH 285 0
DWIDTH 7 0
BBX 7 16 0 0
BITMAP
62
F4
9C
00
70
30
30
30
30
30
30
30
30
30
38
7C
ENDCHAR
STARTCHAR Imacron
ENCODING 298
SWIDTH 357 0
DWIDTH 9 0
BBX 7 19 1 0
BITMAP
FE
00
00
FE
38
30
30
30
30
30
30
30
30
30
30
30
30
38
FE
ENDCHAR
STARTCHAR imacron
ENCODING 299
SWIDTH 285 0
DWIDTH 7 0
BBX 6 15 0 0
BITMAP
FC
00
00
70
30
30
30
30
30
30
30
30
30
38
7C
ENDCHAR
STARTCHAR Ibreve
ENCODING 300
SWIDTH 357 0
DWIDTH 9 0
BBX 7 22 1 0
BITMAP
82
86
FC
78
00
00
FE
38
30
30
30
30
30
30
30
30
30
30
30
30
38
FE
ENDCHAR
STARTCHAR ibreve
ENCODING 301
SWIDTH 285 0
DWIDTH 7 0
BBX 6 17 0 0
BITMAP
84
84
C8
78
00
70
30
30
30
30
30
30
30
30
30
38
7C
ENDCHAR
STARTCHAR Iogonek
ENCODING 302
SWIDTH 357 0
DWIDTH 9 0
BBX 7 21 1 -5
BITMAP
FE
38
30
30
30
30
30
30
30
30
30
30
30
30
38
FE
10
20
60
64
38
ENDCHAR
STARTCHAR iogonek
ENCODING 303
SWIDTH 285 0
DWIDTH 7 0
BBX 5 22 1 -5
BITMAP
70
70
20
00
00
E0
60
60
60
60
60
60
60
60
60
70
F8
20
40
C0
C8
70
ENDCHAR
STARTCHAR Idotaccent
ENCODING 304
SWIDTH 357 0
DWIDTH 9 0
BBX 7 20 1 0
BITMAP
30
38
30
00
FE
38
30
30
30
30
30
30
30
30
30
30
30
30
38
FE
ENDCHAR
STARTCHAR dotlessi
ENCODING 305
SWIDTH 285 0
DWIDTH 7 0
BBX 5 12 1 0
BITMAP
E0
60
60
60
60
60
60
60
60
60
70
F8
ENDCHAR
STARTCHAR IJ
ENCODING 306
SWIDTH 753 0
DWIDTH 18 0
BBX 17 16 1 0
BITMAP
FE3F80
380E00
300C00
300C00
300C00
300C00
300C00
300C00
300C00
300C00
300C00
300C00
300C00
30CC00
38CC00
FEF800
ENDCHAR
STARTCHAR ij
ENCODING 307
SWIDTH 548 0
DWIDTH 13 0
BBX 11 21 1 -5
BITMAP
70C0
70E0
20C0
0000
E1C0
62C0
60C0
60C0
60C0
60C0
60C0
60C0
60C0
60C0
70C0
F8C0
00C0
00C0
08C0
0C80
0F00
ENDCHAR
STARTCHAR Jcircumflex
ENCODING 308
SWIDTH 396 0
DWIDTH 10 0
BBX 9 21 0 0
BITMAP
0600
0E00
1B00
3080
0000
3F80
0E00
0600
0600
0600
0600
0600
0600
0600
0600
0600
0600
0600
C600
EC00
7800
ENDCHAR
STARTCHAR jcircumflex
ENCODING 309
SWIDTH 263 0
DWIDTH 6 0
BBX 8 22 -2 -5
BITMAP
0C
1E
13
21
00
1C
0C
0C
0C
0C
0C
0C
0C
0C
0C
0C
0C
0C
0C
CC
C8
F0
ENDCHAR
STARTCHAR Kcommaaccent
ENCODING 310
SWIDTH 702 0
DWIDTH 17 0
BBX 16 23 1 -7
BITMAP
FE7E
3838
3030
3060
3080
3100
3200
3400
3E00
3380
31C0
30E0
3070
3038
383C
FE7F
0000
0100
0380
0380
0080
0100
0200
ENDCHAR
STARTCHAR kcommaaccent
ENCODING 311
SWIDTH 542 0
DWIDTH 13 0
BBX 12 24 1 -7
BITMAP
E000
6000
6000
6000
6000
63E0
6180
6300
6600
6C00
7C00
6E00
6700
6300
6180
71C0
F9F0
0000
0400
0E00
0E00
0200
0600
0800
ENDCHAR
STARTCHAR kgreenlandic
ENCODING 312
SWIDTH 542 0
DWIDTH 13 0
BBX 12 12 1 0
BITMAP
E3E0
6180
6100
6200
6400
7C00
6E00
6600
6300
6180
70C0
F9F0
ENDCHAR
STARTCHAR Lacute
ENCODING 313
SWIDTH 585 0
DWIDTH 14 0
BBX 13 20 1 0
BITMAP
0E00
1800
3000
0000
FE00
3800
3800
3000
3000
3000
3000
3000
3000
3000
3000
3008
3010
3010
3830
FFF0
ENDCHAR
STARTCHAR lacute
ENCODING 314
SWIDTH 283 0
DWIDTH 7 0
BBX 5 21 1 0
BITMAP
38
30
C0
00
60
E0
60
60
60
60
60
60
60
60
60
60
60
60
60
70
F8
ENDCHAR
STARTCHAR Lcommaaccent
ENCODING 315
SWIDTH 585 0
DWIDTH 14 0
BBX 13 23 1 -7
BITMAP
FE00
3800
3800
3000
3000
3000
3000
3000
3000
3000
3000
3008
3010
3010
3830
FFF0
0000
0600
0F00
0700
0200
0200
0400
ENDCHAR
STARTCHAR lcommaaccent
ENCODING 316
SWIDTH 283 0
DWIDTH 7 0
BBX 5 24 1 -7
BITMAP
60
E0
60
60
60
60
60
60
60
60
60
60
60
60
60
70
F8
00
60
70
70
10
20
40
ENDCHAR
STARTCHAR Lcaron
ENCODING 317
SWIDTH 585 0
DWIDTH 14 0
BBX 13 16 1 0
BITMAP
FE60
3860
3860
3040
3040
3000
3000
3000
3000
3000
3000
3008
3010
3010
3830
FFF0
ENDCHAR
STARTCHAR lcaron
ENCODING 318
SWIDTH 366 0
DWIDTH 9 0
BBX 7 17 1 0
BITMAP
66
E6
66
64
64
60
60
60
60
60
60
60
60
60
60
70
F8
ENDCHAR
STARTCHAR Ldot
ENCODING 319
SWIDTH 605 0
DWIDTH 15 0
BBX 13 16 1 0
BITMAP
FE00
3800
3800
3000
3000
3020
3070
3030
3000
3000
3000
3008
3010
3010
3830
FFF0
ENDCHAR
STARTCHAR ldot
ENCODING 320
SWIDTH 357 0
DWIDTH 9 0
BBX 8 17 1 0
BITMAP
60
E0
60
60
60
60
62
67
63
60
60
60
60
60
60
70
F8
ENDCHAR
STARTCHAR Lslash
ENCODING 321
SWIDTH 590 0
DWIDTH 14 0
BBX 13 16 1 0
BITMAP
FE00
3800
3800
3800
3800
3980
3E00
3800
3800
F800
B800
3808
3808
3810
3830
FFF0
ENDCHAR
STARTCHAR lslash
ENCODING 322
SWIDTH 290 0
DWIDTH 7 0
BBX 7 17 0 0
BITMAP
38
78
18
18
18
1A
1C
18
38
D8
18
18
18
18
38
38
7C
ENDCHAR
STARTCHAR Nacute
ENCODING 323
SWIDTH 742 0
DWIDTH 18 0
BBX 16 20 1 0
BITMAP
00E0
0180
0300
0000
F03F
780E
3C04
3C04
2E04
2704
2384
2384
21C4
20E4
2074
203C
203C
201C
200C
F804
ENDCHAR
STARTCHAR nacute
ENCODING 324
SWIDTH 576 0
DWIDTH 14 0
BBX 12 17 1 0
BITMAP
0380
0300
0200
0400
0000
E780
68C0
70C0
60E0
6060
6060
6060
6060
6060
6060
70E0
F9F0
ENDCHAR
STARTCHAR Ncommaaccent
ENCODING 325
SWIDTH 742 0
DWIDTH 18 0
BBX 16 23 1 -7
BITMAP
F03F
780E
3C04
3C04
2E04
2704
2384
2384
21C4
20E4
2074
203C
203C
201C
200C
F804
0000
0180
0380
0380
0080
0180
0200
ENDCHAR
STARTCHAR ncommaaccent
ENCODING 326
SWIDTH 576 0
DWIDTH 14 0
BBX 12 19 1 -7
BITMAP
E780
68C0
70C0
60E0
6060
6060
6060
6060
6060
6060
70E0
F9F0
0000
0600
0E00
0E00
0200
0600
0800
ENDCHAR
STARTCHAR Ncaron
ENCODING 327
SWIDTH 742 0
DWIDTH 18 0
BBX 16 21 1 0
BITMAP
0410
0660
03C0
0180
0000
F03F
780E
3C04
3C04
2E04
2704
2384
2384
21C4
20E4
2074
203C
203C
201C
200C
F804
ENDCHAR
STARTCHAR ncaron
ENCODING 328
SWIDTH 576 0
DWIDTH 14 0
BBX 12 17 1 0
BITMAP
10C0
0980
0F00
0600
0000
E780
68C0
70C0
60E0
6060
6060
6060
6060
6060
6060
70E0
F9F0
ENDCHAR
STARTCHAR napostrophe
ENCODING 329
SWIDTH 576 0
DWIDTH 14 0
BBX 17 17 -4 0
BITMAP
600000
F00000
700000
300000
200000
C73C00
034600
038600
030700
030300
030300
030300
030300
030300
030300
038700
07CF80
ENDCHAR
STARTCHAR Eng
ENCODING 330
SWIDTH 742 0
DWIDTH 18 0
BBX 16 21 1 -5
BITMAP
F03F
780C
3C04
3C04
2E04
2704
2384
2384
21C4
20E4
2074
2074
203C
201C
200C
F80C
0004
0004
0084
01C8
00F0
ENDCHAR
STARTCHAR eng
ENCODING 331
SWIDTH 559 0
DWIDTH 13 0
BBX 11 17 1 -5
BITMAP
E780
68C0
70C0
6060
6060
6060
6060
6060
6060
6060
7060
F860
0060
00C0
08C0
0CC0
0F80
ENDCHAR
STARTCHAR Omacron
ENCODING 332
SWIDTH 738 0
DWIDTH 18 0
BBX 16 19 1 0
BITMAP
0FE0
0000
0000
07E0
1C38
301C
700C
600E
E006
E006
E007
E007
E006
E006
600E
700C
300C
1C38
07E0
ENDCHAR
STARTCHAR omacron
ENCODING 333
SWIDTH 514 0
DWIDTH 12 0
BBX 11 15 1 0
BITMAP
3F80
0000
0000
1F00
6180
60C0
C0C0
C0C0
C0E0
C0E0
C0C0
C0C0
60C0
7180
1F00
ENDCHAR
STARTCHAR Obreve
ENCODING 334
SWIDTH 738 0
DWIDTH 18 0
BBX 16 22 1 0
BITMAP
0820
0C20
07E0
03C0
0000
0000
07E0
1C38
301C
700C
600E
E006
E006
E007
E007
E006
E006
600E
700C
300C
1C38
07E0
ENDCHAR
STARTCHAR obreve
ENCODING 335
SWIDTH 514 0
DWIDTH 12 0
BBX 11 17 1 0
BITMAP
2080
2100
3F00
1E00
0000
1F00
6180
60C0
C0C0
C0C0
C0E0
C0E0
C0C0
C0C0
60C0
7180
1F00
ENDCHAR
STARTCHAR Ohungarumlaut
ENCODING 336
SWIDTH 738 0
DWIDTH 18 0
BBX 16 20 1 0
BITMAP
01F8
0330
0640
0000
07E0
1C38
301C
700C
600E
E006
E006
E007
E007
E006
E006
600E
700C
300C
1C38
07E0
ENDCHAR
STARTCHAR ohungarumlaut
ENCODING 337
SWIDTH 514 0
DWIDTH 12 0
BBX 11 17 1 0
BITMAP
0EC0
0D80
0900
1200
0000
1F00
6180
60C0
C0C0
C0C0
C0E0
C0E0
C0C0
C0C0
60C0
7180
1F00
ENDCHAR
STARTCHAR OE
ENCODING 338
SWIDTH 945 0
DWIDTH 23 0
BBX 21 16 1 0
BITMAP
07FFF0
1C3030
303010
703000
603040
E03040
E03040
E03FC0
E03040
E03040
E03000
603008
703008
303018
183038
07FFF0
ENDCHAR
STARTCHAR oe
ENCODING 339
SWIDTH 807 0
DWIDTH 19 0
BBX 18 12 1 0
BITMAP
1E1E00
61A300
61E180
C0C180
C0FFC0
C0C000
C0C000
C0E000
C0E040
60F080
71BF00
1E1E00
ENDCHAR
STARTCHAR Racute
ENCODING 340
SWIDTH 659 0
DWIDTH 16 0
BBX 15 20 1 0
BITMAP
0380
0700
0C00
0000
FF80
30E0
3070
3030
3030
3030
3060
30E0
3F00
3380
31C0
30E0
3060
3070
3838
FE1E
ENDCHAR
STARTCHAR racute
ENCODING 341
SWIDTH 380 0
DWIDTH 9 0
BBX 8 17 1 0
BITMAP
0C
18
18
30
00
67
EF
6B
70
60
60
60
60
60
60
70
FC
ENDCHAR
STARTCHAR Rcommaaccent
ENCODING 342
SWIDTH 659 0
DWIDTH 16 0
BBX 15 23 1 -7
BITMAP
FF80
30E0
3070
3030
3030
3030
3060
30E0
3F00
3380
31C0
30E0
3060
3070
3838
FE1E
0000
0300
0700
0380
0100
0100
0200
ENDCHAR
STARTCHAR rcommaaccent
ENCODING 343
SWIDTH 380 0
DWIDTH 9 0
BBX 8 19 1 -7
BITMAP
67
EF
6B
70
60
60
60
60
60
60
70
FC
00
30
70
70
10
30
40
ENDCHAR
STARTCHAR Rcaron
ENCODING 344
SWIDTH 659 0
DWIDTH 16 0
BBX 15 21 1 0
BITMAP
1040
0880
0D80
0700
0000
FF80
30E0
3070
3030
3030
3030
3060
30E0
3F00
3380
31C0
30E0
3060
3070
3838
FE1E
ENDCHAR
STARTCHAR rcaron
ENCODING 345
SWIDTH 380 0
DWIDTH 9 0
BBX 8 17 1 0
BITMAP
C2
64
38
18
00
67
EF
6B
70
60
60
60
60
60
60
70
FC
ENDCHAR
STARTCHAR Sacute
ENCODING 346
SWIDTH 504 0
DWIDTH 12 0
BBX 10 20 1 0
BITMAP
0700
0C00
1800
0000
3F80
6180
C080
C0C0
E040
F000
7800
3E00
0F80
03C0
01C0
80C0
80C0
C0C0
E180
FF00
ENDCHAR
STARTCHAR sacute
ENCODING 347
SWIDTH 394 0
DWIDTH 9 0
BBX 8 17 1 0
BITMAP
0C
0C
18
10
00
7E
C6
C2
C2
E0
78
1E
0F
83
83
C6
FC
ENDCHAR
STARTCHAR Scircumflex
ENCODING 348
SWIDTH 504 0
DWIDTH 12 0
BBX 10 21 1 0
BITMAP
0C00
1E00
1200
6180
0000
3F80
6180
C080
C0C0
E040
F000
7800
3E00
0F80
03C0
01C0
80C0
80C0
C0C0
E180
FF00
ENDCHAR
STARTCHAR scircumflex
ENCODING 349
SWIDTH 394 0
DWIDTH 9 0
BBX 8 17 1 0
BITMAP
18
3C
64
C2
00
7E
C6
C2
C2
E0
78
1E
0F
83
83
C6
FC
ENDCHAR
STARTCHAR uni015E
ENCODING 350
SWIDTH 504 0
DWIDTH 12 0
BBX 10 21 1 -5
BITMAP
3F80
6180
C080
C0C0
E040
F000
7800
3E00
0F80
03C0
01C0
80C0
80C0
C0C0
E180
FF00
0800
0E00
0200
0200
1C00
ENDCHAR
STARTCHAR uni015F
ENCODING 351
SWIDTH 394 0
DWIDTH 9 0
BBX 8 17 1 -5
BITMAP
7E
C6
C2
C2
E0
78
1E
0F
83
83
C6
FC
10
18
04
04
38
ENDCHAR
STARTCHAR Scaron
ENCODING 352
SWIDTH 504 0
DWIDTH 12 0
BBX 10 21 1 0
BITMAP
2080
3300
1E00
0C00
0000
3F80
6180
C080
C0C0
E040
F000
7800
3E00
0F80
03C0
01C0
80C0
80C0
C0C0
E180
FF00
ENDCHAR
STARTCHAR scaron
ENCODING 353
SWIDTH 394 0
DWIDTH 9 0
BBX 8 17 1 0
BITMAP
C2
64
3C
18
00
7E
C6
C2
C2
E0
78
1E
0F
83
83
C6
FC
ENDCHAR
STARTCHAR uni0162
ENCODING 354
SWIDTH 603 0
DWIDTH 14 0
BBX 14 21 0 -5
BITMAP
7FFC
430C
C304
8304
0300
0300
0300
0300
0300
0300
0300
0300
0300
0300
0380
0FE0
0200
0380
00C0
00C0
0780
ENDCHAR
STARTCHAR uni0163
ENCODING 355
SWIDTH 315 0
DWIDTH 8 0
BBX 6 21 1 -5
BITMAP
20
20
20
60
FC
60
60
60
60
60
60
60
60
60
64
38
20
38
0C
0C
78
ENDCHAR
STARTCHAR Tcaron
ENCODING 356
SWIDTH 603 0
DWIDTH 14 0
BBX 14 21 0 0
BITMAP
0820
0C40
0780
0380
0000
7FFC
430C
C304
8304
0300
0300
0300
0300
0300
0300
0300
0300
0300
0300
0380
0FE0
ENDCHAR
STARTCHAR tcaron
ENCODING 357
SWIDTH 353 0
DWIDTH 8 0
BBX 7 17 1 0
BITMAP
06
26
26
24
64
FC
60
60
60
60
60
60
60
60
60
64
38
ENDCHAR
STARTCHAR Tbar
ENCODING 358
SWIDTH 603 0
DWIDTH 14 0
BBX 14 16 0 0
BITMAP
7FFC
430C
C304
8304
0300
0300
0300
1FE0
0300
0300
0300
0300
0300
0300
0380
0FE0
ENDCHAR
STARTCHAR tbar
ENCODING 359
SWIDTH 328 0
DWIDTH 8 0
BBX 7 16 1 0
BITMAP
20
20
20
60
FC
60
60
60
FC
60
60
60
60
60
62
3C
ENDCHAR
STARTCHAR Utilde
ENCODING 360
SWIDTH 752 0
DWIDTH 18 0
BBX 18 21 0 0
BITMAP
018400
03C800
027000
000000
000000
FE0FC0
380300
180200
180200
180200
180200
180200
180200
180200
180200
180200
180200
180200
0C0600
0E0C00
03F000
ENDCHAR
STARTCHAR utilde
ENCODING 361
SWIDTH 570 0
DWIDTH 14 0
BBX 12 16 1 0
BITMAP
1840
3C80
2700
0000
E3C0
60C0
60C0
60C0
60C0
60C0
60C0
60C0
60C0
60C0
31C0
1EF0
ENDCHAR
STARTCHAR Umacron
ENCODING 362
SWIDTH 752 0
DWIDTH 18 0
BBX 18 19 0 0
BITMAP
03F800
000000
000000
FE0FC0
380300
180200
180200
180200
180200
180200
180200
180200
180200
180200
180200
180200
0C0600
0E0C00
03F000
ENDCHAR
STARTCHAR umacron
ENCODING 363
SWIDTH 570 0
DWIDTH 14 0
BBX 12 15 1 0
BITMAP
3F80
0000
0000
E3C0
60C0
60C0
60C0
60C0
60C0
60C0
60C0
60C0
60C0
31C0
1EF0
ENDCHAR
STARTCHAR Ubreve
ENCODING 364
SWIDTH 752 0
DWIDTH 18 0
BBX 18 22 0 0
BITMAP
020800
020800
01F000
00F000
000000
000000
FE0FC0
380300
180200
180200
180200
180200
180200
180200
180200
180200
180200
180200
180200
0C0600
0E0C00
03F000
ENDCHAR
STARTCHAR ubreve
ENCODING 365
SWIDTH 570 0
DWIDTH 14 0
BBX 12 17 1 0
BITMAP
2080
2080
1F00
0F00
0000
E3C0
60C0
60C0
60C0
60C0
60C0
60C0
60C0
60C0
60C0
31C0
1EF0
ENDCHAR
STARTCHAR Uring
ENCODING 366
SWIDTH 752 0
DWIDTH 18 0
BBX 18 22 0 0
BITMAP
00E000
011000
011000
011000
00E000
000000
FE0FC0
380300
180200
180200
180200
180200
180200
180200
180200
180200
180200
180200
180200
0C0600
0E0C00
03F000
ENDCHAR
STARTCHAR uring
ENCODING 367
SWIDTH 570 0
DWIDTH 14 0
BBX 12 18 1 0
BITMAP
0E00
1100
1100
1900
0E00
0000
E3C0
60C0
60C0
60C0
60C0
60C0
60C0
60C0
60C0
60C0
31C0
1EF0
ENDCHAR
STARTCHAR Uhungarumlaut
ENCODING 368
SWIDTH 752 0
DWIDTH 18 0
BBX 18 20 0 0
BITMAP
006E00
00C800
019000
000000
FE0FC0
380300
180200
180200
180200
180200
180200
180200
180200
180200
180200
180200
180200
0C0600
0E0C00
03F000
ENDCHAR
STARTCHAR uhungarumlaut
ENCODING 369
SWIDTH 570 0
DWIDTH 14 0
BBX 12 17 1 0
BITMAP
06C0
0D80
0980
1900
0000
E3C0
60C0
60C0
60C0
60C0
60C0
60C0
60C0
60C0
60C0
31C0
1EF0
ENDCHAR
STARTCHAR Uogonek
ENCODING 370
SWIDTH 753 0
DWIDTH 18 0
BBX 18 21 0 -5
BITMAP
FE0FC0
380300
180200
180200
180200
180200
180200
180200
180200
180200
180200
180200
180200
0C0600
0E0C00
03F800
006000
00C000
00C000
00C800
007000
ENDCHAR
STARTCHAR uogonek
ENCODING 371
SWIDTH 570 0
DWIDTH 14 0
BBX 12 17 1 -5
BITMAP
E3C0
60C0
60C0
60C0
60C0
60C0
60C0
60C0
60C0
71C0
3FF0
1CE0
0180
0100
0300
0320
01C0
ENDCHAR
STARTCHAR Wcircumflex
ENCODING 372
SWIDTH 944 0
DWIDTH 23 0
BBX 23 21 0 0
BITMAP
003000
007800
004800
008600
000000
FCFC3E
703018
383018
383810
181810
1C1C30
0C1C20
0C2C20
0E2E60
066640
074740
0343C0
038380
038380
018100
010100
ENDCHAR
STARTCHAR wcircumflex
ENCODING 373
SWIDTH 749 0
DWIDTH 18 0
BBX 18 17 0 0
BITMAP
00C000
01E000
012000
021000
000000
FBE3C0
70C180
30C180
306100
38E100
18E200
18B200
1D3200
0D1C00
0E1C00
061C00
060800
ENDCHAR
STARTCHAR Ycircumflex
ENCODING 374
SWIDTH 647 0
DWIDTH 16 0
BBX 16 21 0 0
BITMAP
0180
01C0
0360
0430
0000
FC3F
780C
3808
1C10
0C30
0E20
0760
0340
0380
0180
0180
0180
0180
0180
0380
0FE0
ENDCHAR
STARTCHAR ycircumflex
ENCODING 375
SWIDTH 483 0
DWIDTH 12 0
BBX 12 22 0 -5
BITMAP
0600
0F00
0980
10C0
0000
F8F0
7060
7040
30C0
3880
1880
1D80
0D00
0D00
0600
0600
0600
0400
0400
0800
F800
F000
ENDCHAR
STARTCHAR Ydieresis
ENCODING 376
SWIDTH 647 0
DWIDTH 16 0
BBX 16 20 0 0
BITMAP
0430
0E70
0E30
0000
FC3F
780C
3808
1C10
0C30
0E20
0760
0340
0380
0180
0180
0180
0180
0180
0380
0FE0
ENDCHAR
STARTCHAR Zacute
ENCODING 377
SWIDTH 594 0
DWIDTH 14 0
BBX 13 20 1 0
BITMAP
0380
0700
0C00
0000
7FF0
4070
40E0
80C0
01C0
0380
0300
0700
0E00
0C00
1C00
3800
3008
7010
E030
FFF0
ENDCHAR
STARTCHAR zacute
ENCODING 378
SWIDTH 458 0
DWIDTH 11 0
BBX 9 17 1 0
BITMAP
0600
0E00
0C00
1800
0000
FF80
C380
8300
8600
0E00
0C00
1800
3800
3080
6080
E180
FF80
ENDCHAR
STARTCHAR Zdotaccent
ENCODING 379
SWIDTH 594 0
DWIDTH 14 0
BBX 13 20 1 0
BITMAP
0200
0700
0300
0000
7FF0
4070
40E0
80C0
01C0
0380
0300
0700
0E00
0C00
1C00
3800
3008
7010
E030
FFF0
ENDCHAR
STARTCHAR zdotaccent
ENCODING 380
SWIDTH 458 0
DWIDTH 11 0
BBX 9 17 1 0
BITMAP
0C00
1C00
0C00
0000
0000
FF80
C380
8300
8600
0E00
0C00
1800
3800
3080
6080
E180
FF80
ENDCHAR
STARTCHAR Zcaron
ENCODING 381
SWIDTH 594 0
DWIDTH 14 0
BBX 13 21 1 0
BITMAP
1040
0880
0580
0700
0000
7FF0
4070
40E0
80C0
01C0
0380
0300
0700
0E00
0C00
1C00
3800
3008
7010
E030
FFF0
ENDCHAR
STARTCHAR zcaron
ENCODING 382
SWIDTH 458 0
DWIDTH 11 0
BBX 9 17 1 0
BITMAP
6100
3200
1E00
0C00
0000
FF80
C380
8300
8600
0E00
0C00
1800
3800
3080
6080
E180
FF80
ENDCHAR
STARTCHAR longs
ENCODING 383
SWIDTH 285 0
DWIDTH 7 0
BBX 9 18 0 0
BITMAP
0F00
1980
1180
1000
3000
3000
7000
3000
3000
3000
3000
3000
3000
3000
3000
3000
3800
FE00
ENDCHAR
STARTCHAR uni0180
ENCODING 384
SWIDTH 522 0
DWIDTH 13 0
BBX 12 17 0 0
BITMAP
7000
F000
3000
FF80
3000
33C0
37E0
38E0
3060
3070
3070
3070
3060
3060
3060
30C0
1F00
ENDCHAR
STARTCHAR uni0188
ENCODING 392
SWIDTH 446 0
DWIDTH 11 0
BBX 12 16 1 0
BITMAP
00E0
0130
0100
0100
1F00
6380
4180
C100
C000
C000
C000
C000
C080
E180
7F00
3E00
ENDCHAR
STARTCHAR uni0190
ENCODING 400
SWIDTH 518 0
DWIDTH 12 0
BBX 11 16 1 0
BITMAP
1F80
61C0
E0C0
C0C0
E000
6000
3000
0F00
7000
6000
C000
C000
E020
E040
7F80
3F00
ENDCHAR
STARTCHAR uni0192
ENCODING 402
SWIDTH 301 0
DWIDTH 7 0
BBX 11 23 -2 -5
BITMAP
03C0
06E0
0460
0400
0C00
0C00
1F80
0C00
0C00
0C00
0C00
0C00
0C00
0C00
0C00
0C00
0C00
0C00
0C00
0C00
8C00
CC00
7800
ENDCHAR
STARTCHAR uni0195
ENCODING 405
SWIDTH 798 0
DWIDTH 19 0
BBX 17 17 1 0
BITMAP
E00000
600000
600000
600000
600000
678300
6FC300
70C180
60C180
60C080
60C080
60C080
60C080
60C080
60C100
706300
F83C00
ENDCHAR
STARTCHAR uni0199
ENCODING 409
SWIDTH 538 0
DWIDTH 13 0
BBX 12 18 1 0
BITMAP
0F00
3380
2180
6000
6000
6000
63E0
6180
6300
6600
6800
7C00
6E00
6600
6300
6180
61C0
F9F0
ENDCHAR
STARTCHAR uni019A
ENCODING 410
SWIDTH 287 0
DWIDTH 7 0
BBX 5 17 1 0
BITMAP
E0
60
60
60
60
60
60
F8
60
60
60
60
60
60
60
70
F8
ENDCHAR
STARTCHAR uni019B
ENCODING 411
SWIDTH 495 0
DWIDTH 12 0
BBX 12 17 0 0
BITMAP
7000
7880
0700
0C00
3200
0200
0200
0700
0700
0C80
0C80
1880
1840
3040
3040
7060
F8F0
ENDCHAR
STARTCHAR uni019E
ENCODING 414
SWIDTH 559 0
DWIDTH 13 0
BBX 12 17 1 -5
BITMAP
E780
68C0
70C0
60E0
6060
6060
6060
6060
6060
6060
7060
F860
0060
0060
0060
0060
0070
ENDCHAR
STARTCHAR Ohorn
ENCODING 416
SWIDTH 737 0
DWIDTH 18 0
BBX 16 20 1 0
BITMAP
0003
0003
0003
0003
07FE
1C38
301C
700E
600E
E006
E006
E006
E006
E006
E006
600E
700C
301C
1838
07E0
ENDCHAR
STARTCHAR ohorn
ENCODING 417
SWIDTH 516 0
DWIDTH 12 0
BBX 11 16 1 0
BITMAP
0060
0060
0020
0020
1FC0
6180
60C0
C0C0
C0C0
C0E0
C0E0
C0C0
C0C0
60C0
7180
1F00
ENDCHAR
STARTCHAR uni01A5
ENCODING 421
SWIDTH 522 0
DWIDTH 13 0
BBX 12 23 0 -5
BITMAP
0F00
1180
3180
3000
3000
3000
3380
37E0
38E0
3060
3070
3070
3070
3060
3060
3060
38C0
3F80
3000
3000
3000
3000
FC00
ENDCHAR
STARTCHAR uni01AA
ENCODING 426
SWIDTH 298 0
DWIDTH 7 0
BBX 12 23 -2 -5
BITMAP
3800
4400
8600
8600
4600
3E00
0600
0600
0600
0600
0600
0600
0600
0600
0600
0600
0600
0600
0600
0600
0620
0270
01E0
ENDCHAR
STARTCHAR uni01AB
ENCODING 427
SWIDTH 321 0
DWIDTH 8 0
BBX 6 21 1 -5
BITMAP
20
20
60
60
FC
60
60
60
60
60
60
60
60
60
64
3C
04
04
04
64
38
ENDCHAR
STARTCHAR uni01AD
ENCODING 429
SWIDTH 315 0
DWIDTH 8 0
BBX 9 18 1 0
BITMAP
0F00
3380
2100
6000
6000
6000
FC00
6000
6000
6000
6000
6000
6000
6000
6000
6000
6400
3800
ENDCHAR
STARTCHAR Uhorn
ENCODING 431
SWIDTH 762 0
DWIDTH 18 0
BBX 20 21 0 0
BITMAP
000060
000070
000030
000020
000060
FE0F80
380200
180200
180200
180200
180200
180200
180200
180200
180200
180200
180200
180200
0C0400
0E0C00
03F000
ENDCHAR
STARTCHAR uhorn
ENCODING 432
SWIDTH 574 0
DWIDTH 14 0
BBX 13 16 1 0
BITMAP
0010
0018
0018
0018
E3F0
E1C0
60C0
60C0
60C0
60C0
60C0
60C0
60C0
60C0
31C0
1EF0
ENDCHAR
STARTCHAR uni01B5
ENCODING 437
SWIDTH 594 0
DWIDTH 14 0
BBX 13 16 1 0
BITMAP
7FF0
4070
40E0
80C0
01C0
0380
0300
3FE0
0E00
0C00
1C00
3800
3008
7010
E030
FFF0
ENDCHAR
STARTCHAR uni01BA
ENCODING 442
SWIDTH 430 0
DWIDTH 10 0
BBX 8 17 1 -5
BITMAP
FF
86
8C
18
18
38
5F
03
03
03
03
0E
70
80
83
86
7C
ENDCHAR
STARTCHAR uni01BB
ENCODING 443
SWIDTH 508 0
DWIDTH 12 0
BBX 10 17 1 0
BITMAP
1E00
7F80
4380
8180
01C0
0180
0180
0180
FFC0
0600
0C00
0800
1000
3040
6040
FFC0
FFC0
ENDCHAR
STARTCHAR uni01BE
ENCODING 446
SWIDTH 406 0
DWIDTH 10 0
BBX 8 16 1 0
BITMAP
10
20
20
60
FC
60
60
1C
06
03
03
03
83
83
C6
FC
ENDCHAR
STARTCHAR uni01C0
ENCODING 448
SWIDTH 250 0
DWIDTH 6 0
BBX 2 17 2 0
BITMAP
C0
C0
C0
C0
C0
C0
C0
C0
C0
C0
C0
C0
C0
C0
C0
C0
C0
ENDCHAR
STARTCHAR uni01C1
ENCODING 449
SWIDTH 423 0
DWIDTH 10 0
BBX 6 17 2 0
BITMAP
CC
CC
CC
CC
CC
CC
CC
CC
CC
CC
CC
CC
CC
CC
CC
CC
CC
ENDCHAR
STARTCHAR uni01C2
ENCODING 450
SWIDTH 422 0
DWIDTH 10 0
BBX 8 17 1 0
BITMAP
18
18
18
18
18
FF
18
18
18
FF
18
18
18
18
18
18
18
ENDCHAR
STARTCHAR uni01C3
ENCODING 451
SWIDTH 245 0
DWIDTH 6 0
BBX 2 17 2 0
BITMAP
C0
C0
C0
C0
C0
C0
C0
C0
C0
C0
C0
80
80
00
C0
C0
C0
ENDCHAR
STARTCHAR uni01DE
ENCODING 478
SWIDTH 718 0
DWIDTH 17 0
BBX 17 22 0 0
BITMAP
07F000
000000
063000
0E3800
063000
000000
008000
01C000
01C000
03E000
026000
026000
067000
043000
0C3800
083800
0FFC00
181C00
100C00
300E00
300F00
F81F80
ENDCHAR
STARTCHAR uni01DF
ENCODING 479
SWIDTH 480 0
DWIDTH 12 0
BBX 10 19 1 0
BITMAP
7F00
0000
6300
6380
6300
0000
0000
3E00
6300
C300
C300
0300
0700
3B00
6300
C300
C300
C740
79C0
ENDCHAR
STARTCHAR uni01F0
ENCODING 496
SWIDTH 263 0
DWIDTH 6 0
BBX 8 22 -2 -5
BITMAP
21
13
1E
0C
00
1C
0C
0C
0C
0C
0C
0C
0C
0C
0C
0C
0C
0C
0C
CC
C8
F0
ENDCHAR
STARTCHAR Aringacute
ENCODING 506
SWIDTH 718 0
DWIDTH 17 0
BBX 17 25 0 0
BITMAP
00E000
01C000
030000
01C000
022000
022000
022000
01C000
000000
008000
01C000
01C000
03E000
026000
026000
067000
043000
0C3800
083800
0FFC00
181C00
100C00
300E00
300F00
F81F80
ENDCHAR
STARTCHAR aringacute
ENCODING 507
SWIDTH 480 0
DWIDTH 12 0
BBX 10 21 1 0
BITMAP
0E00
1C00
3000
1C00
2200
2200
2200
1C00
0000
3E00
6300
C300
C300
0300
0700
3B00
6300
C300
C300
C740
79C0
ENDCHAR
STARTCHAR AEacute
ENCODING 508
SWIDTH 894 0
DWIDTH 21 0
BBX 22 20 -1 0
BITMAP
000380
000700
000C00
000000
00FFF8
007818
005808
00D808
009800
019820
011820
031820
03FFE0
061820
0C1820
081800
181804
101808
301818
FC7FF8
ENDCHAR
STARTCHAR aeacute
ENCODING 509
SWIDTH 709 0
DWIDTH 17 0
BBX 15 17 1 0
BITMAP
0180
0300
0300
0600
0000
3C78
678C
C306
4306
07FE
1B00
6300
C300
C382
C382
E5FC
7878
ENDCHAR
STARTCHAR Oslashacute
ENCODING 510
SWIDTH 737 0
DWIDTH 18 0
BBX 15 20 1 0
BITMAP
00C0
0180
0200
0400
07E4
1C38
301C
703C
602E
E046
E086
E186
E106
E206
E406
680E
780C
300C
3838
47E0
ENDCHAR
STARTCHAR oslashacute
ENCODING 511
SWIDTH 514 0
DWIDTH 12 0
BBX 11 17 1 0
BITMAP
0600
0E00
0C00
1800
0000
1FC0
6180
61C0
C2C0
C6C0
C4C0
C8E0
D0C0
E0C0
60C0
6180
9F00
ENDCHAR
STARTCHAR uni0218
ENCODING 536
SWIDTH 504 0
DWIDTH 12 0
BBX 10 23 1 -7
BITMAP
3F80
6180
C080
C0C0
E040
F000
7800
3E00
0F80
03C0
01C0
80C0
80C0
C0C0
E180
FF00
0000
0C00
1C00
0E00
0400
0400
1800
ENDCHAR
STARTCHAR uni0219
ENCODING 537
SWIDTH 394 0
DWIDTH 9 0
BBX 8 19 1 -7
BITMAP
7E
C6
C2
C2
E0
78
1E
0F
83
83
C6
FC
00
18
38
38
08
18
20
ENDCHAR
STARTCHAR uni021A
ENCODING 538
SWIDTH 603 0
DWIDTH 14 0
BBX 14 23 0 -7
BITMAP
7FFC
430C
C304
8304
0300
0300
0300
0300
0300
0300
0300
0300
0300
0300
0380
0FE0
0000
0300
0380
0380
0080
0100
0200
ENDCHAR
STARTCHAR uni021B
ENCODING 539
SWIDTH 315 0
DWIDTH 8 0
BBX 6 23 1 -7
BITMAP
20
20
20
60
FC
60
60
60
60
60
60
60
60
60
64
38
00
10
38
38
08
10
20
ENDCHAR
STARTCHAR uni0221
ENCODING 545
SWIDTH 674 0
DWIDTH 16 0
BBX 15 21 1 -4
BITMAP
01C0
03C0
00C0
00C0
00C0
1EC0
21C0
41C0
C0C0
C0C0
C0C0
C0C0
C0C0
C0CE
E1D2
7EE2
3C7C
0040
0040
0080
0080
ENDCHAR
STARTCHAR uni0228
ENCODING 552
SWIDTH 626 0
DWIDTH 15 0
BBX 13 21 1 -5
BITMAP
FFF0
3018
3008
3000
3020
3020
3060
3FE0
3020
3020
3000
3008
3008
3008
3018
FFF8
0200
0300
0080
0080
0700
ENDCHAR
STARTCHAR uni0229
ENCODING 553
SWIDTH 464 0
DWIDTH 11 0
BBX 9 17 1 -5
BITMAP
1E00
6300
4180
C180
FF80
C000
C000
C000
E080
7080
7F00
1E00
0800
0C00
0200
0200
1C00
ENDCHAR
STARTCHAR uni0234
ENCODING 564
SWIDTH 399 0
DWIDTH 10 0
BBX 10 21 0 -4
BITMAP
7000
F000
3000
3000
3000
3000
3000
3000
3000
3000
3000
3000
3000
3380
3440
38C0
1F00
1000
1000
2000
2000
ENDCHAR
STARTCHAR uni0235
ENCODING 565
SWIDTH 702 0
DWIDTH 17 0
BBX 16 16 1 -4
BITMAP
E780
68C0
70C0
60C0
60C0
60C0
60C0
60C0
60C7
60C9
70D1
F87C
0020
0040
0040
00C0
ENDCHAR
STARTCHAR uni0236
ENCODING 566
SWIDTH 406 0
DWIDTH 10 0
BBX 9 20 1 -4
BITMAP
2000
2000
2000
6000
FC00
6000
6000
6000
6000
6000
6000
6000
6300
6480
6880
3F00
1000
2000
2000
4000
ENDCHAR
STARTCHAR uni0237
ENCODING 567
SWIDTH 263 0
DWIDTH 6 0
BBX 6 17 -2 -5
BITMAP
1C
0C
0C
0C
0C
0C
0C
0C
0C
0C
0C
0C
0C
0C
CC
C8
F0
ENDCHAR
STARTCHAR uni0250
ENCODING 592
SWIDTH 475 0
DWIDTH 11 0
BBX 10 12 0 0
BITMAP
7780
B8C0
30C0
30C0
30C0
3380
3C00
3000
30C0
30C0
18C0
0F00
ENDCHAR
STARTCHAR uni0251
ENCODING 593
SWIDTH 542 0
DWIDTH 13 0
BBX 11 12 1 0
BITMAP
1EC0
21C0
61C0
C0C0
C0C0
C0C0
C0C0
C0C0
C0C0
E1C0
7EC0
3CE0
ENDCHAR
STARTCHAR uni0252
ENCODING 594
SWIDTH 544 0
DWIDTH 13 0
BBX 11 12 1 0
BITMAP
E780
6FC0
70E0
6060
6060
6060
6060
6060
6060
6040
7080
6F00
ENDCHAR
STARTCHAR uni0253
ENCODING 595
SWIDTH 518 0
DWIDTH 12 0
BBX 10 18 2 0
BITMAP
3C00
4E00
C600
C000
C000
C000
CE00
DF00
E380
C180
C1C0
C1C0
C1C0
C180
C180
C180
C300
7C00
ENDCHAR
STARTCHAR uni0254
ENCODING 596
SWIDTH 454 0
DWIDTH 11 0
BBX 9 12 1 0
BITMAP
3C00
7F00
8300
8380
0180
0180
0180
0180
C180
C100
E200
7C00
ENDCHAR
STARTCHAR uni0255
ENCODING 597
SWIDTH 447 0
DWIDTH 11 0
BBX 9 15 1 -3
BITMAP
1F00
6380
4180
C000
C000
C000
C000
C700
C880
E880
7080
3F00
2000
2000
4000
ENDCHAR
STARTCHAR uni0256
ENCODING 598
SWIDTH 528 0
DWIDTH 13 0
BBX 14 22 1 -5
BITMAP
01C0
03C0
00C0
00C0
00C0
1FC0
21C0
41C0
C0C0
C0C0
C0C0
C0C0
C0C0
C0C0
E1C0
7EC0
3CC0
00C0
00C0
00C4
00CC
007C
ENDCHAR
STARTCHAR uni0257
ENCODING 599
SWIDTH 542 0
DWIDTH 13 0
BBX 15 18 1 0
BITMAP
003C
004E
00C4
00C0
00C0
00C0
1FC0
21C0
41C0
C0C0
C0C0
C0C0
C0C0
C0C0
C0C0
E1C0
7EC0
3CE0
ENDCHAR
STARTCHAR uni0258
ENCODING 600
SWIDTH 466 0
DWIDTH 11 0
BBX 9 12 1 0
BITMAP
3E00
6300
C180
C180
FF80
0180
0180
0180
8180
8380
7F00
3C00
ENDCHAR
STARTCHAR uni0259
ENCODING 601
SWIDTH 464 0
DWIDTH 11 0
BBX 9 12 1 0
BITMAP
3C00
7F00
8380
8380
0180
0180
0180
FF80
C180
C180
6300
3E00
ENDCHAR
STARTCHAR uni025A
ENCODING 602
SWIDTH 642 0
DWIDTH 15 0
BBX 14 12 1 0
BITMAP
3C00
7F00
83A4
83F4
019C
0180
0180
FF80
C180
C180
6300
3E00
ENDCHAR
STARTCHAR uni025B
ENCODING 603
SWIDTH 399 0
DWIDTH 10 0
BBX 8 12 1 0
BITMAP
3E
C7
C3
C0
60
1C
60
C0
C0
C0
E1
3E
ENDCHAR
STARTCHAR uni025C
ENCODING 604
SWIDTH 398 0
DWIDTH 10 0
BBX 9 12 0 0
BITMAP
3E00
6300
4180
0300
0300
1C00
0300
0380
0180
8180
4300
3E00
ENDCHAR
STARTCHAR uni025D
ENCODING 605
SWIDTH 575 0
DWIDTH 14 0
BBX 14 12 0 0
BITMAP
3E00
6300
4164
03A4
0238
1E00
0300
0380
0180
8180
4300
3E00
ENDCHAR
STARTCHAR uni025E
ENCODING 606
SWIDTH 500 0
DWIDTH 12 0
BBX 10 12 1 0
BITMAP
1F00
31C0
60C0
C0C0
C180
CE00
C180
C0C0
C0C0
60C0
31C0
1F00
ENDCHAR
STARTCHAR uni025F
ENCODING 607
SWIDTH 272 0
DWIDTH 7 0
BBX 8 17 -2 -5
BITMAP
1C
0C
0C
0C
1F
0C
0C
0C
0C
0C
0C
0C
0C
0C
CC
CC
F0
ENDCHAR
STARTCHAR uni0260
ENCODING 608
SWIDTH 541 0
DWIDTH 13 0
BBX 15 23 1 -5
BITMAP
003C
004E
00C6
00C0
00C0
00C0
1EC0
21C0
41C0
C0C0
C0C0
C0C0
C0C0
C0C0
C0C0
E1C0
7EC0
3CC0
00C0
0180
C180
E300
7E00
ENDCHAR
STARTCHAR uni0261
ENCODING 609
SWIDTH 521 0
DWIDTH 13 0
BBX 10 17 1 -5
BITMAP
1EC0
21C0
41C0
C0C0
C0C0
C0C0
C0C0
C0C0
C0C0
E1C0
7EC0
3CC0
00C0
0180
C180
E300
7E00
ENDCHAR
STARTCHAR uni0262
ENCODING 610
SWIDTH 535 0
DWIDTH 13 0
BBX 11 12 1 0
BITMAP
1FC0
30C0
6040
C040
C000
C000
C1E0
C0C0
C0C0
60C0
70C0
1F80
ENDCHAR
STARTCHAR uni0263
ENCODING 611
SWIDTH 479 0
DWIDTH 12 0
BBX 12 17 0 -5
BITMAP
F8F0
7060
3040
30C0
3880
1880
1900
0D00
0D00
0E00
0600
0600
0B00
0B00
0B00
0B00
0E00
ENDCHAR
STARTCHAR uni0264
ENCODING 612
SWIDTH 466 0
DWIDTH 11 0
BBX 11 12 0 0
BITMAP
79C0
CE60
CE60
0B00
1300
1180
1180
2180
2180
2180
1300
0E00
ENDCHAR
STARTCHAR uni0265
ENCODING 613
SWIDTH 553 0
DWIDTH 13 0
BBX 12 17 1 -5
BITMAP
E1C0
60C0
60C0
60C0
60C0
60C0
60C0
60C0
60C0
71C0
3FC0
1CC0
00C0
00C0
00C0
00E0
00F0
ENDCHAR
STARTCHAR uni0266
ENCODING 614
SWIDTH 577 0
DWIDTH 14 0
BBX 12 18 1 0
BITMAP
0F00
1380
2180
2000
6000
6000
6380
6FC0
70C0
60E0
6060
6060
6060
6060
6060
6060
70E0
F9F0
ENDCHAR
STARTCHAR uni0267
ENCODING 615
SWIDTH 562 0
DWIDTH 13 0
BBX 11 23 1 -5
BITMAP
0F00
1380
2180
2000
6000
6000
6380
6FC0
70C0
60E0
6060
6060
6060
6060
6060
6060
7060
F860
0060
0040
08C0
0CC0
0F80
ENDCHAR
STARTCHAR uni0268
ENCODING 616
SWIDTH 295 0
DWIDTH 7 0
BBX 5 17 1 0
BITMAP
30
70
20
00
00
F0
70
30
30
30
F8
30
30
30
30
70
F8
ENDCHAR
STARTCHAR uni0269
ENCODING 617
SWIDTH 286 0
DWIDTH 7 0
BBX 6 12 1 0
BITMAP
E0
60
60
60
60
60
60
60
60
60
64
38
ENDCHAR
STARTCHAR uni026A
ENCODING 618
SWIDTH 287 0
DWIDTH 7 0
BBX 5 12 1 0
BITMAP
F8
70
60
60
60
60
60
60
60
60
70
F8
ENDCHAR
STARTCHAR uni026B
ENCODING 619
SWIDTH 290 0
DWIDTH 7 0
BBX 7 17 0 0
BITMAP
30
F0
30
30
30
30
30
72
BC
30
30
30
30
30
30
38
7C
ENDCHAR
STARTCHAR uni026C
ENCODING 620
SWIDTH 318 0
DWIDTH 8 0
BBX 8 17 0 0
BITMAP
78
18
18
18
18
78
D8
98
99
DE
78
18
18
18
18
18
7E
ENDCHAR
STARTCHAR uni026D
ENCODING 621
SWIDTH 248 0
DWIDTH 6 0
BBX 9 22 0 -5
BITMAP
7000
F000
3000
3000
3000
3000
3000
3000
3000
3000
3000
3000
3000
3000
3000
3000
3000
3000
3000
3100
1380
0F00
ENDCHAR
STARTCHAR uni026E
ENCODING 622
SWIDTH 590 0
DWIDTH 14 0
BBX 13 22 1 -5
BITMAP
E000
6000
6000
6000
6000
7FF0
6070
6060
60C0
61C0
6180
6300
6700
60E0
6030
7038
F818
0018
0038
1830
1C60
0F80
ENDCHAR
STARTCHAR uni026F
ENCODING 623
SWIDTH 846 0
DWIDTH 20 0
BBX 19 12 1 0
BITMAP
E1C380
63C780
60C180
60C180
60C180
60C180
60C180
60C180
60C180
60C180
31E780
3E79E0
ENDCHAR
STARTCHAR uni0270
ENCODING 624
SWIDTH 826 0
DWIDTH 20 0
BBX 19 17 1 -5
BITMAP
E3C780
60C180
60C180
60C180
60C180
60C180
60C180
60C180
60C180
71C380
3E7D80
3C7980
000180
000180
000180
000180
0001E0
ENDCHAR
STARTCHAR uni0271
ENCODING 625
SWIDTH 835 0
DWIDTH 20 0
BBX 17 17 1 -5
BITMAP
E78F00
78F180
70C180
60C180
60C180
60C180
60C180
60C180
60C180
60C180
70E180
F9F180
000180
000180
001180
003900
001E00
ENDCHAR
STARTCHAR uni0272
ENCODING 626
SWIDTH 574 0
DWIDTH 14 0
BBX 15 17 -2 -5
BITMAP
1CF0
0D18
0E18
0C18
0C1C
0C1C
0C1C
0C1C
0C1C
0C1C
0C1C
0C3E
0C00
0C00
8C00
C800
F000
ENDCHAR
STARTCHAR uni0273
ENCODING 627
SWIDTH 563 0
DWIDTH 14 0
BBX 15 17 1 -5
BITMAP
E780
68C0
70C0
60C0
6060
6060
6060
6060
6060
6060
7060
F860
0060
0060
0062
0066
003C
ENDCHAR
STARTCHAR uni0274
ENCODING 628
SWIDTH 568 0
DWIDTH 14 0
BBX 13 12 0 0
BITMAP
F078
3830
3C10
2E10
2610
2710
2390
21D0
20F0
2070
2070
F830
ENDCHAR
STARTCHAR uni0275
ENCODING 629
SWIDTH 514 0
DWIDTH 12 0
BBX 11 12 1 0
BITMAP
1F00
6180
60C0
C0C0
C0C0
FFE0
C0E0
C0C0
C0C0
60C0
7180
1F00
ENDCHAR
STARTCHAR uni0276
ENCODING 630
SWIDTH 732 0
DWIDTH 18 0
BBX 16 12 1 0
BITMAP
1FFE
7182
6182
C180
C184
C1FC
C184
C184
C181
6181
7182
1FFE
ENDCHAR
STARTCHAR uni0277
ENCODING 631
SWIDTH 672 0
DWIDTH 16 0
BBX 14 12 1 0
BITMAP
0FC0
3830
6018
601C
C30C
C30C
C30C
C30C
C30C
C30C
6318
3CF0
ENDCHAR
STARTCHAR uni0278
ENCODING 632
SWIDTH 658 0
DWIDTH 16 0
BBX 14 22 1 -5
BITMAP
0F00
0300
0300
0300
0300
1FE0
3330
6318
C31C
C30C
C30C
C30C
C30C
C318
6318
7330
1FE0
0300
0300
0300
0300
0FC0
ENDCHAR
STARTCHAR uni0279
ENCODING 633
SWIDTH 380 0
DWIDTH 9 0
BBX 8 12 0 0
BITMAP
3F
0E
06
06
06
06
06
06
0E
CE
F7
E6
ENDCHAR
STARTCHAR uni027A
ENCODING 634
SWIDTH 374 0
DWIDTH 9 0
BBX 8 17 0 0
BITMAP
0E
1E
06
06
06
06
06
06
06
06
06
06
06
0E
CE
F7
E6
ENDCHAR
STARTCHAR uni027B
ENCODING 635
SWIDTH 375 0
DWIDTH 9 0
BBX 11 17 0 -5
BITMAP
3F00
0E00
0600
0600
0600
0600
0600
0600
0E00
CE00
F600
E600
0600
0600
0620
0260
01E0
ENDCHAR
STARTCHAR uni027C
ENCODING 636
SWIDTH 378 0
DWIDTH 9 0
BBX 8 17 1 -5
BITMAP
67
EF
6B
70
60
60
60
60
60
60
60
60
60
60
60
70
FC
ENDCHAR
STARTCHAR uni027D
ENCODING 637
SWIDTH 373 0
DWIDTH 9 0
BBX 8 17 1 -5
BITMAP
66
EF
72
70
60
60
60
60
60
60
60
60
60
60
22
37
1E
ENDCHAR
STARTCHAR uni027E
ENCODING 638
SWIDTH 371 0
DWIDTH 9 0
BBX 8 12 1 0
BITMAP
1E
37
20
60
60
60
60
60
60
60
70
FC
ENDCHAR
STARTCHAR uni027F
ENCODING 639
SWIDTH 371 0
DWIDTH 9 0
BBX 8 12 0 0
BITMAP
78
CC
04
04
06
06
06
06
06
06
0E
3F
ENDCHAR
STARTCHAR uni0280
ENCODING 640
SWIDTH 494 0
DWIDTH 12 0
BBX 11 12 1 0
BITMAP
FE00
6180
6180
6180
6180
6300
7C00
6600
6700
6380
71C0
F8E0
ENDCHAR
STARTCHAR uni0281
ENCODING 641
SWIDTH 494 0
DWIDTH 12 0
BBX 11 12 1 0
BITMAP
F8E0
71C0
6380
6700
6600
7C00
6300
6180
6180
6180
6180
FF00
ENDCHAR
STARTCHAR uni0282
ENCODING 642
SWIDTH 395 0
DWIDTH 9 0
BBX 8 17 1 -5
BITMAP
7E
C6
C2
C2
E0
78
1E
0F
83
83
C6
FC
80
80
80
98
78
ENDCHAR
STARTCHAR uni0283
ENCODING 643
SWIDTH 253 0
DWIDTH 6 0
BBX 12 23 -3 -5
BITMAP
01E0
0270
0620
0600
0600
0600
0600
0600
0600
0600
0600
0600
0600
0600
0600
0600
0600
0600
0600
0600
4600
E400
7800
ENDCHAR
STARTCHAR uni0284
ENCODING 644
SWIDTH 286 0
DWIDTH 7 0
BBX 11 22 -2 -5
BITMAP
03C0
0660
0600
0400
0C00
0C00
0C00
0C00
0C00
0C00
0C00
0C00
0C00
0C00
0C00
0C00
1F00
0C00
0C00
0C00
CC00
F000
ENDCHAR
STARTCHAR uni0285
ENCODING 645
SWIDTH 361 0
DWIDTH 9 0
BBX 11 17 0 -5
BITMAP
7800
CC00
4400
0600
0600
0600
0600
0600
0600
0600
0600
0600
0600
0600
0620
0660
03C0
ENDCHAR
STARTCHAR uni0286
ENCODING 646
SWIDTH 253 0
DWIDTH 6 0
BBX 11 23 -2 -5
BITMAP
03C0
04E0
0C40
0C00
0C00
0C00
0C00
0C00
0C00
0C00
0C00
0C00
0C00
0C00
0C00
0C00
0C00
0C00
7C00
8E00
8D00
8800
7000
ENDCHAR
STARTCHAR uni0287
ENCODING 647
SWIDTH 315 0
DWIDTH 8 0
BBX 7 15 0 -3
BITMAP
78
98
18
18
18
18
18
18
18
18
18
7E
1C
18
10
ENDCHAR
STARTCHAR uni0288
ENCODING 648
SWIDTH 309 0
DWIDTH 7 0
BBX 8 21 1 -5
BITMAP
20
20
20
60
FC
60
60
60
60
60
60
60
60
60
60
60
60
60
23
37
1E
ENDCHAR
STARTCHAR uni0289
ENCODING 649
SWIDTH 580 0
DWIDTH 14 0
BBX 12 12 1 0
BITMAP
E3C0
60C0
60C0
60C0
60C0
FFF0
60C0
60C0
60C0
60C0
31C0
1EF0
ENDCHAR
STARTCHAR uni028A
ENCODING 650
SWIDTH 548 0
DWIDTH 13 0
BBX 11 12 1 0
BITMAP
F1E0
3080
2080
60C0
4060
C060
C060
C060
C060
60E0
70C0
1F00
ENDCHAR
STARTCHAR uni028B
ENCODING 651
SWIDTH 530 0
DWIDTH 13 0
BBX 11 12 1 0
BITMAP
E180
61C0
60C0
6040
6060
6060
6020
6040
6040
6040
3080
1F00
ENDCHAR
STARTCHAR uni028C
ENCODING 652
SWIDTH 495 0
DWIDTH 12 0
BBX 12 12 0 0
BITMAP
0600
0600
0E00
0B00
0B00
1380
1180
3180
20C0
20C0
60E0
F1F0
ENDCHAR
STARTCHAR uni028D
ENCODING 653
SWIDTH 764 0
DWIDTH 18 0
BBX 19 12 0 0
BITMAP
060800
061C00
0E1C00
0B2C00
0B2E00
132600
11C600
31C300
21C300
20C380
60C180
F1F7E0
ENDCHAR
STARTCHAR uni028E
ENCODING 654
SWIDTH 492 0
DWIDTH 12 0
BBX 12 17 0 0
BITMAP
00F0
01E0
0300
0200
0600
0400
0600
0E00
0F00
0B00
1300
1180
3180
20C0
20C0
60E0
F1F0
ENDCHAR
STARTCHAR uni028F
ENCODING 655
SWIDTH 454 0
DWIDTH 11 0
BBX 11 12 0 0
BITMAP
F0E0
6040
3080
3080
1900
0E00
0E00
0600
0600
0600
0E00
1F00
ENDCHAR
STARTCHAR uni0290
ENCODING 656
SWIDTH 458 0
DWIDTH 11 0
BBX 13 17 1 -5
BITMAP
FF80
C380
8700
8600
0E00
0C00
1800
3800
3080
6080
E180
FF80
0080
0080
0080
0098
0070
ENDCHAR
STARTCHAR uni0291
ENCODING 657
SWIDTH 458 0
DWIDTH 11 0
BBX 10 16 1 -4
BITMAP
FF80
C380
8700
8600
0E00
0C00
1800
3800
3380
6440
EC40
FF80
1000
1000
2000
2000
ENDCHAR
STARTCHAR uni0292
ENCODING 658
SWIDTH 443 0
DWIDTH 11 0
BBX 9 17 1 -5
BITMAP
FF80
8300
8700
0E00
0C00
1800
3800
3C00
0700
0380
0180
0180
0180
0180
C380
C700
7C00
ENDCHAR
STARTCHAR uni0293
ENCODING 659
SWIDTH 443 0
DWIDTH 11 0
BBX 9 21 1 -9
BITMAP
FF80
8300
8700
0E00
0C00
1800
3800
3C00
0700
0380
0180
0180
E180
9180
8B80
8B00
7C00
0400
0200
0200
0100
ENDCHAR
STARTCHAR uni0294
ENCODING 660
SWIDTH 383 0
DWIDTH 9 0
BBX 8 18 1 0
BITMAP
7C
C6
C3
C3
03
03
03
06
06
18
60
60
60
60
60
60
70
F8
ENDCHAR
STARTCHAR uni0295
ENCODING 661
SWIDTH 383 0
DWIDTH 9 0
BBX 9 18 0 0
BITMAP
1E00
6300
4380
C100
C000
C000
E000
6000
6000
1800
0600
0600
0600
0600
0600
0600
0600
1F80
ENDCHAR
STARTCHAR uni0296
ENCODING 662
SWIDTH 408 0
DWIDTH 10 0
BBX 8 17 1 0
BITMAP
70
F0
30
30
30
30
30
30
0C
06
03
03
03
83
C3
C6
7C
ENDCHAR
STARTCHAR uni0297
ENCODING 663
SWIDTH 437 0
DWIDTH 10 0
BBX 9 17 1 -5
BITMAP
1E00
2300
6380
4180
C000
C000
C000
C000
C000
C000
C000
C000
C000
6080
7180
3F00
1C00
ENDCHAR
STARTCHAR uni0298
ENCODING 664
SWIDTH 736 0
DWIDTH 18 0
BBX 16 17 1 0
BITMAP
07E0
1838
300C
600E
6006
C006
C007
C183
C383
C183
C007
C006
6006
600E
300C
1838
07E0
ENDCHAR
STARTCHAR uni0299
ENCODING 665
SWIDTH 485 0
DWIDTH 12 0
BBX 10 12 1 0
BITMAP
FF00
6180
6180
6180
6180
7E00
6180
61C0
60C0
60C0
6180
FF00
ENDCHAR
STARTCHAR uni029A
ENCODING 666
SWIDTH 500 0
DWIDTH 12 0
BBX 10 12 1 0
BITMAP
3E00
E300
C180
C0C0
60C0
1CC0
60C0
C0C0
C0C0
C180
E300
3E00
ENDCHAR
STARTCHAR uni029B
ENCODING 667
SWIDTH 536 0
DWIDTH 13 0
BBX 14 16 1 0
BITMAP
003C
006C
0040
0040
1FC0
30C0
6040
C040
C000
C000
C1E0
C0C0
C0C0
60C0
70C0
1F80
ENDCHAR
STARTCHAR uni029C
ENCODING 668
SWIDTH 599 0
DWIDTH 14 0
BBX 13 12 1 0
BITMAP
F9F8
7060
6060
6060
6060
7FE0
6060
6060
6060
6060
7060
F9F8
ENDCHAR
STARTCHAR uni029D
ENCODING 669
SWIDTH 263 0
DWIDTH 6 0
BBX 9 21 -2 -5
BITMAP
0C00
0E00
0400
0000
1C00
0C00
0C00
0C00
0C00
0C00
0C00
0C00
0C00
0C00
0C00
0C00
3C00
CF00
8D80
8C00
7800
ENDCHAR
STARTCHAR uni029E
ENCODING 670
SWIDTH 542 0
DWIDTH 13 0
BBX 12 17 0 -5
BITMAP
F9F0
38E0
1860
0C60
0E60
0760
03E0
0160
0660
0C60
1860
7C60
0060
0060
0060
0060
0070
ENDCHAR
STARTCHAR uni029F
ENCODING 671
SWIDTH 440 0
DWIDTH 11 0
BBX 10 12 0 0
BITMAP
FC00
3000
3000
3000
3000
3000
3000
3000
3040
3040
30C0
FFC0
ENDCHAR
STARTCHAR uni02A0
ENCODING 672
SWIDTH 541 0
DWIDTH 13 0
BBX 15 23 1 -5
BITMAP
003C
004E
00C6
00C0
00C0
00C0
1EC0
21C0
41C0
C0C0
C0C0
C0C0
C0C0
C0C0
C0C0
E1C0
7EC0
3CC0
00C0
00C0
00C0
01C0
07E0
ENDCHAR
STARTCHAR uni02A1
ENCODING 673
SWIDTH 393 0
DWIDTH 9 0
BBX 8 18 1 0
BITMAP
3C
C6
C3
C3
03
03
03
06
0E
38
30
30
FC
30
70
70
70
FC
ENDCHAR
STARTCHAR uni02A2
ENCODING 674
SWIDTH 393 0
DWIDTH 9 0
BBX 9 18 0 0
BITMAP
1E00
6300
6180
C180
C000
C000
E000
6000
3000
1C00
0600
0600
3F80
0600
0600
0600
0600
1F80
ENDCHAR
STARTCHAR uni02A3
ENCODING 675
SWIDTH 830 0
DWIDTH 20 0
BBX 18 17 1 0
BITMAP
01C000
03C000
00C000
00C000
00C000
1FFFC0
21C1C0
40C380
C0C300
C0C700
C0CE00
C0CC00
C0DC00
C0F840
E1F040
7EF0C0
3CFFC0
ENDCHAR
STARTCHAR uni02A4
ENCODING 676
SWIDTH 838 0
DWIDTH 20 0
BBX 19 22 1 -5
BITMAP
01C000
03C000
00C000
00C000
00C000
1FFFC0
21C1C0
40C180
C0C380
C0C700
C0C600
C0CC00
C0DC00
C0C380
E1C0C0
7EC0C0
3CE0E0
0000E0
0000C0
0060C0
007180
003E00
ENDCHAR
STARTCHAR uni02A5
ENCODING 677
SWIDTH 829 0
DWIDTH 20 0
BBX 19 21 1 -4
BITMAP
01C000
03C000
00C000
00C000
00C000
1FFFC0
21C1C0
40C380
C0C300
C0C700
C0CE00
C0CC00
C0DC00
C0D9C0
E1F220
7EF440
3CFFC0
000800
000800
001000
001000
ENDCHAR
STARTCHAR uni02A6
ENCODING 678
SWIDTH 614 0
DWIDTH 15 0
BBX 13 16 1 0
BITMAP
2000
2000
2000
6000
FFF0
6610
6610
6608
6380
61E0
60F0
6038
6018
6018
3030
1FE0
ENDCHAR
STARTCHAR uni02A7
ENCODING 679
SWIDTH 513 0
DWIDTH 12 0
BBX 14 23 1 -5
BITMAP
0078
00DC
008C
2180
2180
6180
FF80
6180
6180
6180
6180
6180
6180
6180
6180
6180
6580
3980
0180
0180
1180
1980
1F00
ENDCHAR
STARTCHAR uni02A8
ENCODING 680
SWIDTH 687 0
DWIDTH 16 0
BBX 15 16 1 0
BITMAP
2000
2000
2000
6000
FC78
618C
630E
6300
6200
6200
6300
631C
6362
6382
73C4
3CF8
ENDCHAR
STARTCHAR uni02A9
ENCODING 681
SWIDTH 866 0
DWIDTH 21 0
BBX 19 23 0 -5
BITMAP
0F0000
198000
118000
100000
300000
300000
7FF7C0
3038C0
303060
303060
303060
303060
303060
303060
303060
303060
383060
FEFC60
000060
000060
000440
000EC0
000780
ENDCHAR
STARTCHAR uni02AA
ENCODING 682
SWIDTH 595 0
DWIDTH 14 0
BBX 14 17 0 0
BITMAP
7000
B000
3000
3000
3000
31F8
3318
3308
3308
3380
31E0
30F8
3038
301C
300C
3818
0FE0
ENDCHAR
STARTCHAR uni02AB
ENCODING 683
SWIDTH 580 0
DWIDTH 14 0
BBX 12 17 1 0
BITMAP
E000
6000
6000
6000
6000
7FF0
6060
60E0
60C0
61C0
6180
6300
6700
6610
6C10
6C30
FFF0
ENDCHAR
STARTCHAR uni02AC
ENCODING 684
SWIDTH 599 0
DWIDTH 14 0
BBX 14 17 0 0
BITMAP
F79C
6308
3188
3390
1AD0
1CE0
0C60
0000
F79C
6308
3108
3190
3290
1AD0
1CE0
0C60
0C60
ENDCHAR
STARTCHAR uni02AD
ENCODING 685
SWIDTH 479 0
DWIDTH 12 0
BBX 8 16 2 0
BITMAP
FF
FF
83
83
83
83
83
00
00
FF
FF
83
83
83
83
83
ENDCHAR
STARTCHAR uni02AE
ENCODING 686
SWIDTH 595 0
DWIDTH 14 0
BBX 15 17 -1 -5
BITMAP
7018
C838
0C18
0C18
0C18
0C18
0C18
0C18
0E18
0638
07F8
0398
0018
0018
0018
001C
001E
ENDCHAR
STARTCHAR uni02AF
ENCODING 687
SWIDTH 600 0
DWIDTH 14 0
BBX 18 17 -1 -5
BITMAP
701800
C83800
0C1800
0C1800
0C1800
0C1800
0C1800
0C1800
0E1800
063800
07F800
039800
001800
000800
000880
000DC0
000780
ENDCHAR
STARTCHAR uni02B0
ENCODING 688
SWIDTH 488 0
DWIDTH 12 0
BBX 10 14 1 6
BITMAP
E000
6000
6000
6000
6E00
7300
6180
6180
6180
6180
6180
6180
6180
F3C0
ENDCHAR
STARTCHAR uni02B1
ENCODING 689
SWIDTH 488 0
DWIDTH 12 0
BBX 10 15 1 6
BITMAP
1E00
2700
6200
6000
6000
6E00
7300
6180
6180
6180
6180
6180
6180
6180
F3C0
ENDCHAR
STARTCHAR uni02B2
ENCODING 690
SWIDTH 222 0
DWIDTH 5 0
BBX 6 18 -2 2
BITMAP
0C
0C
00
00
1C
0C
0C
0C
0C
0C
0C
0C
0C
0C
0C
0C
C8
70
ENDCHAR
STARTCHAR uni02B3
ENCODING 691
SWIDTH 325 0
DWIDTH 8 0
BBX 7 10 1 6
BITMAP
EC
7E
60
60
60
60
60
60
60
F8
ENDCHAR
STARTCHAR uni02B4
ENCODING 692
SWIDTH 325 0
DWIDTH 8 0
BBX 7 10 1 6
BITMAP
3E
18
18
18
18
18
18
18
F8
DC
ENDCHAR
STARTCHAR uni02B5
ENCODING 693
SWIDTH 325 0
DWIDTH 8 0
BBX 9 13 1 3
BITMAP
3E00
1800
1800
1800
1800
1800
1800
1800
F800
D800
0800
0980
0700
ENDCHAR
STARTCHAR uni02B6
ENCODING 694
SWIDTH 443 0
DWIDTH 11 0
BBX 9 10 1 6
BITMAP
F180
6300
6600
6600
6C00
7C00
6200
6300
6300
FE00
ENDCHAR
STARTCHAR uni02B7
ENCODING 695
SWIDTH 653 0
DWIDTH 16 0
BBX 16 10 0 6
BITMAP
F3CF
6184
3184
31C4
31C8
1AC8
1A68
0A70
0C30
0C20
ENDCHAR
STARTCHAR uni02B8
ENCODING 696
SWIDTH 427 0
DWIDTH 10 0
BBX 10 14 0 2
BITMAP
F1C0
6080
3180
3100
1900
1A00
1A00
0E00
0C00
0400
0C00
0800
F800
7000
ENDCHAR
STARTCHAR uni02B9
ENCODING 697
SWIDTH 296 0
DWIDTH 7 0
BBX 3 8 2 9
BITMAP
20
60
60
40
C0
80
80
80
ENDCHAR
STARTCHAR uni02BA
ENCODING 698
SWIDTH 456 0
DWIDTH 11 0
BBX 7 8 2 9
BITMAP
26
66
66
4C
CC
88
88
98
ENDCHAR
STARTCHAR uni02BB
ENCODING 699
SWIDTH 245 0
DWIDTH 6 0
BBX 4 6 1 11
BITMAP
30
40
40
E0
F0
60
ENDCHAR
STARTCHAR uni02BC
ENCODING 700
SWIDTH 244 0
DWIDTH 6 0
BBX 3 6 1 12
BITMAP
60
E0
E0
20
20
C0
ENDCHAR
STARTCHAR uni02BD
ENCODING 701
SWIDTH 244 0
DWIDTH 6 0
BBX 4 6 1 12
BITMAP
60
F0
E0
40
40
30
ENDCHAR
STARTCHAR uni02BE
ENCODING 702
SWIDTH 203 0
DWIDTH 5 0
BBX 3 5 1 12
BITMAP
C0
20
20
20
C0
ENDCHAR
STARTCHAR uni02BF
ENCODING 703
SWIDTH 203 0
DWIDTH 5 0
BBX 3 5 1 12
BITMAP
60
80
80
80
60
ENDCHAR
STARTCHAR uni02C0
ENCODING 704
SWIDTH 364 0
DWIDTH 9 0
BBX 7 9 1 9
BITMAP
78
CC
C6
06
06
04
1C
20
20
ENDCHAR
STARTCHAR uni02C1
ENCODING 705
SWIDTH 364 0
DWIDTH 9 0
BBX 7 9 1 9
BITMAP
3C
CE
C6
C0
C0
C0
60
18
18
ENDCHAR
STARTCHAR uni02C2
ENCODING 706
SWIDTH 324 0
DWIDTH 8 0
BBX 6 8 1 10
BITMAP
0C
18
70
C0
60
18
0C
04
ENDCHAR
STARTCHAR uni02C3
ENCODING 707
SWIDTH 324 0
DWIDTH 8 0
BBX 6 8 1 10
BITMAP
80
60
38
0C
18
60
C0
80
ENDCHAR
STARTCHAR uni02C4
ENCODING 708
SWIDTH 324 0
DWIDTH 8 0
BBX 8 6 0 12
BITMAP
18
18
3C
64
46
C3
ENDCHAR
STARTCHAR uni02C5
ENCODING 709
SWIDTH 324 0
DWIDTH 8 0
BBX 8 6 0 12
BITMAP
C3
46
64
2C
18
18
ENDCHAR
STARTCHAR circumflex
ENCODING 710
SWIDTH 342 0
DWIDTH 8 0
BBX 6 4 1 13
BITMAP
30
78
4C
84
ENDCHAR
STARTCHAR caron
ENCODING 711
SWIDTH 342 0
DWIDTH 8 0
BBX 6 4 1 13
BITMAP
84
4C
78
30
ENDCHAR
STARTCHAR uni02C8
ENCODING 712
SWIDTH 284 0
DWIDTH 7 0
BBX 1 7 3 11
BITMAP
80
80
80
80
80
80
80
ENDCHAR
STARTCHAR uni02C9
ENCODING 713
SWIDTH 350 0
DWIDTH 8 0
BBX 7 1 1 14
BITMAP
FE
ENDCHAR
STARTCHAR uni02CA
ENCODING 714
SWIDTH 222 0
DWIDTH 5 0
BBX 4 4 1 13
BITMAP
70
60
C0
80
ENDCHAR
STARTCHAR uni02CB
ENCODING 715
SWIDTH 222 0
DWIDTH 5 0
BBX 4 4 1 13
BITMAP
C0
60
60
30
ENDCHAR
STARTCHAR uni02CC
ENCODING 716
SWIDTH 284 0
DWIDTH 7 0
BBX 1 7 3 -5
BITMAP
80
80
80
80
80
80
80
ENDCHAR
STARTCHAR uni02CD
ENCODING 717
SWIDTH 342 0
DWIDTH 8 0
BBX 8 1 0 -4
BITMAP
FF
ENDCHAR
STARTCHAR uni02CE
ENCODING 718
SWIDTH 222 0
DWIDTH 5 0
BBX 4 4 1 -4
BITMAP
C0
60
60
30
ENDCHAR
STARTCHAR uni02CF
ENCODING 719
SWIDTH 223 0
DWIDTH 5 0
BBX 4 4 1 -4
BITMAP
70
60
C0
80
ENDCHAR
STARTCHAR uni02D0
ENCODING 720
SWIDTH 341 0
DWIDTH 8 0
BBX 4 11 2 0
BITMAP
F0
60
60
60
00
00
00
60
60
60
F0
ENDCHAR
STARTCHAR uni02D1
ENCODING 721
SWIDTH 341 0
DWIDTH 8 0
BBX 4 4 2 8
BITMAP
F0
60
60
60
ENDCHAR
STARTCHAR uni02D2
ENCODING 722
SWIDTH 341 0
DWIDTH 8 0
BBX 5 7 2 2
BITMAP
E0
30
10
18
10
30
E0
ENDCHAR
STARTCHAR uni02D3
ENCODING 723
SWIDTH 341 0
DWIDTH 8 0
BBX 4 7 2 2
BITMAP
70
C0
80
80
80
C0
70
ENDCHAR
STARTCHAR uni02D4
ENCODING 724
SWIDTH 341 0
DWIDTH 8 0
BBX 6 5 1 4
BITMAP
10
10
10
10
FC
ENDCHAR
STARTCHAR uni02D5
ENCODING 725
SWIDTH 341 0
DWIDTH 8 0
BBX 6 4 1 5
BITMAP
FC
10
10
10
ENDCHAR
STARTCHAR uni02D6
ENCODING 726
SWIDTH 341 0
DWIDTH 8 0
BBX 4 5 2 4
BITMAP
20
20
F0
20
20
ENDCHAR
STARTCHAR uni02D7
ENCODING 727
SWIDTH 341 0
DWIDTH 8 0
BBX 4 1 2 6
BITMAP
F0
ENDCHAR
STARTCHAR breve
ENCODING 728
SWIDTH 353 0
DWIDTH 8 0
BBX 7 4 1 13
BITMAP
82
84
FC
78
ENDCHAR
STARTCHAR dotaccent
ENCODING 729
SWIDTH 194 0
DWIDTH 5 0
BBX 3 3 1 14
BITMAP
C0
E0
C0
ENDCHAR
STARTCHAR ring
ENCODING 730
SWIDTH 265 0
DWIDTH 6 0
BBX 5 5 1 13
BITMAP
70
90
88
90
70
ENDCHAR
STARTCHAR ogonek
ENCODING 731
SWIDTH 277 0
DWIDTH 7 0
BBX 5 5 1 -5
BITMAP
60
C0
80
C8
F0
ENDCHAR
STARTCHAR tilde
ENCODING 732
SWIDTH 381 0
DWIDTH 9 0
BBX 7 3 1 13
BITMAP
62
F2
9C
ENDCHAR
STARTCHAR hungarumlaut
ENCODING 733
SWIDTH 350 0
DWIDTH 8 0
BBX 7 4 1 13
BITMAP
6E
6C
D8
90
ENDCHAR
STARTCHAR uni02DE
ENCODING 734
SWIDTH 205 0
DWIDTH 5 0
BBX 6 3 -1 5
BITMAP
64
A4
38
ENDCHAR
STARTCHAR uni02DF
ENCODING 735
SWIDTH 302 0
DWIDTH 7 0
BBX 6 6 1 12
BITMAP
88
CC
70
30
58
88
ENDCHAR
STARTCHAR uni02E0
ENCODING 736
SWIDTH 413 0
DWIDTH 10 0
BBX 10 14 0 2
BITMAP
F1C0
6080
3100
3100
3100
1A00
1A00
0C00
0C00
0C00
0E00
1600
1200
0C00
ENDCHAR
STARTCHAR uni02E1
ENCODING 737
SWIDTH 244 0
DWIDTH 6 0
BBX 4 14 1 6
BITMAP
E0
60
60
60
60
60
60
60
60
60
60
60
60
F0
ENDCHAR
STARTCHAR uni02E2
ENCODING 738
SWIDTH 337 0
DWIDTH 8 0
BBX 6 10 1 6
BITMAP
7C
84
84
E0
70
3C
8C
84
84
F8
ENDCHAR
STARTCHAR uni02E3
ENCODING 739
SWIDTH 445 0
DWIDTH 11 0
BBX 10 10 0 6
BITMAP
7BC0
3100
1900
1A00
0C00
0E00
1E00
1300
2180
F3C0
ENDCHAR
STARTCHAR uni02E4
ENCODING 740
SWIDTH 364 0
DWIDTH 9 0
BBX 8 14 1 6
BITMAP
3E
67
C3
C0
C0
C0
60
70
0C
0C
0C
0C
0C
3E
ENDCHAR
STARTCHAR uni02E5
ENCODING 741
SWIDTH 423 0
DWIDTH 10 0
BBX 8 16 1 1
BITMAP
FF
01
01
01
01
01
01
01
01
01
01
01
01
01
01
01
ENDCHAR
STARTCHAR uni02E6
ENCODING 742
SWIDTH 414 0
DWIDTH 10 0
BBX 8 17 1 0
BITMAP
01
01
01
01
01
FF
01
01
01
01
01
01
01
01
01
01
01
ENDCHAR
STARTCHAR uni02E7
ENCODING 743
SWIDTH 414 0
DWIDTH 10 0
BBX 8 16 1 1
BITMAP
01
01
01
01
01
01
01
01
FF
01
01
01
01
01
01
01
ENDCHAR
STARTCHAR uni02E8
ENCODING 744
SWIDTH 414 0
DWIDTH 10 0
BBX 8 16 1 1
BITMAP
01
01
01
01
01
01
01
01
01
01
01
FF
01
01
01
01
ENDCHAR
STARTCHAR uni02E9
ENCODING 745
SWIDTH 414 0
DWIDTH 10 0
BBX 8 17 1 0
BITMAP
01
01
01
01
01
01
01
01
01
01
01
01
01
01
01
01
FF
ENDCHAR
STARTCHAR uni02EC
ENCODING 748
SWIDTH 341 0
DWIDTH 8 0
BBX 8 6 0 -4
BITMAP
C3
66
24
3C
18
18
ENDCHAR
STARTCHAR uni02ED
ENCODING 749
SWIDTH 380 0
DWIDTH 9 0
BBX 7 4 1 14
BITMAP
FE
00
00
FE
ENDCHAR
STARTCHAR uni02F7
ENCODING 759
SWIDTH 381 0
DWIDTH 9 0
BBX 7 3 1 -4
BITMAP
62
F2
9C
ENDCHAR
STARTCHAR uni0300
ENCODING 768
SWIDTH 0 0
DWIDTH 0 0
BBX 4 4 -8 13
BITMAP
C0
60
20
30
ENDCHAR
STARTCHAR uni0301
ENCODING 769
SWIDTH 0 0
DWIDTH 0 0
BBX 4 4 -7 13
BITMAP
30
60
40
C0
ENDCHAR
STARTCHAR uni0302
ENCODING 770
SWIDTH 0 0
DWIDTH 0 0
BBX 7 4 -9 13
BITMAP
38
28
4C
C6
ENDCHAR
STARTCHAR uni0303
ENCODING 771
SWIDTH 0 0
DWIDTH 0 0
BBX 7 3 -9 13
BITMAP
62
F2
9C
ENDCHAR
STARTCHAR uni0304
ENCODING 772
SWIDTH 0 0
DWIDTH 0 0
BBX 7 1 -9 14
BITMAP
FE
ENDCHAR
STARTCHAR uni0305
ENCODING 773
SWIDTH 0 0
DWIDTH 0 0
BBX 10 1 -10 14
BITMAP
FFC0
ENDCHAR
STARTCHAR uni0306
ENCODING 774
SWIDTH 0 0
DWIDTH 0 0
BBX 7 4 -9 13
BITMAP
82
86
7C
78
ENDCHAR
STARTCHAR uni0307
ENCODING 775
SWIDTH 0 0
DWIDTH 0 0
BBX 3 3 -7 14
BITMAP
40
E0
E0
ENDCHAR
STARTCHAR uni0308
ENCODING 776
SWIDTH 0 0
DWIDTH 0 0
BBX 8 3 -10 14
BITMAP
63
E3
63
ENDCHAR
STARTCHAR uni0309
ENCODING 777
SWIDTH 0 0
DWIDTH 0 0
BBX 4 5 -7 13
BITMAP
E0
B0
30
30
40
ENDCHAR
STARTCHAR uni030A
ENCODING 778
SWIDTH 0 0
DWIDTH 0 0
BBX 5 5 -8 13
BITMAP
70
88
88
88
70
ENDCHAR
STARTCHAR uni030B
ENCODING 779
SWIDTH 0 0
DWIDTH 0 0
BBX 7 4 -8 13
BITMAP
36
6C
4C
D8
ENDCHAR
STARTCHAR uni030C
ENCODING 780
SWIDTH 0 0
DWIDTH 0 0
BBX 7 4 -9 13
BITMAP
C6
4C
28
38
ENDCHAR
STARTCHAR uni030D
ENCODING 781
SWIDTH 0 0
DWIDTH 0 0
BBX 1 5 -6 13
BITMAP
80
80
80
80
80
ENDCHAR
STARTCHAR uni030E
ENCODING 782
SWIDTH 0 0
DWIDTH 0 0
BBX 5 5 -8 13
BITMAP
98
98
98
98
98
ENDCHAR
STARTCHAR uni030F
ENCODING 783
SWIDTH 0 0
DWIDTH 0 0
BBX 7 4 -10 13
BITMAP
D8
6C
64
36
ENDCHAR
STARTCHAR uni0310
ENCODING 784
SWIDTH 0 0
DWIDTH 0 0
BBX 7 6 -9 13
BITMAP
10
38
BA
86
7C
78
ENDCHAR
STARTCHAR uni0311
ENCODING 785
SWIDTH 0 0
DWIDTH 0 0
BBX 7 3 -9 14
BITMAP
78
C4
82
ENDCHAR
STARTCHAR uni0312
ENCODING 786
SWIDTH 0 0
DWIDTH 0 0
BBX 3 6 -7 13
BITMAP
20
40
80
E0
E0
E0
ENDCHAR
STARTCHAR uni0313
ENCODING 787
SWIDTH 0 0
DWIDTH 0 0
BBX 3 6 -7 13
BITMAP
40
E0
E0
20
40
80
ENDCHAR
STARTCHAR uni0314
ENCODING 788
SWIDTH 0 0
DWIDTH 0 0
BBX 3 6 -7 13
BITMAP
40
E0
E0
80
40
20
ENDCHAR
STARTCHAR uni0315
ENCODING 789
SWIDTH 0 0
DWIDTH 0 0
BBX 2 5 -6 12
BITMAP
C0
C0
C0
C0
80
ENDCHAR
STARTCHAR uni0316
ENCODING 790
SWIDTH 0 0
DWIDTH 0 0
BBX 4 4 -8 -5
BITMAP
C0
60
20
30
ENDCHAR
STARTCHAR uni0317
ENCODING 791
SWIDTH 0 0
DWIDTH 0 0
BBX 4 4 -7 -5
BITMAP
30
30
60
C0
ENDCHAR
STARTCHAR uni0318
ENCODING 792
SWIDTH 0 0
DWIDTH 0 0
BBX 3 5 -7 -6
BITMAP
20
20
E0
20
20
ENDCHAR
STARTCHAR uni0319
ENCODING 793
SWIDTH 0 0
DWIDTH 0 0
BBX 3 5 -7 -6
BITMAP
80
80
E0
80
80
ENDCHAR
STARTCHAR uni031A
ENCODING 794
SWIDTH 0 0
DWIDTH 0 0
BBX 5 4 -8 13
BITMAP
F8
08
08
08
ENDCHAR
STARTCHAR uni031B
ENCODING 795
SWIDTH 0 0
DWIDTH 0 0
BBX 4 5 -4 11
BITMAP
20
30
30
30
E0
ENDCHAR
STARTCHAR uni031C
ENCODING 796
SWIDTH 0 0
DWIDTH 0 0
BBX 3 5 -7 -6
BITMAP
60
80
80
80
60
ENDCHAR
STARTCHAR uni031D
ENCODING 797
SWIDTH 0 0
DWIDTH 0 0
BBX 5 4 -8 -5
BITMAP
20
20
20
F8
ENDCHAR
STARTCHAR uni031E
ENCODING 798
SWIDTH 0 0
DWIDTH 0 0
BBX 5 4 -8 -5
BITMAP
F8
20
20
20
ENDCHAR
STARTCHAR uni031F
ENCODING 799
SWIDTH 0 0
DWIDTH 0 0
BBX 5 5 -8 -6
BITMAP
20
20
F8
20
20
ENDCHAR
STARTCHAR uni0320
ENCODING 800
SWIDTH 0 0
DWIDTH 0 0
BBX 5 1 -8 -4
BITMAP
F8
ENDCHAR
STARTCHAR uni0321
ENCODING 801
SWIDTH 0 0
DWIDTH 0 0
BBX 6 6 -10 -6
BITMAP
0C
0C
0C
CC
CC
F8
ENDCHAR
STARTCHAR uni0322
ENCODING 802
SWIDTH 0 0
DWIDTH 0 0
BBX 7 6 -6 -6
BITMAP
C0
C0
C0
46
6E
3E
ENDCHAR
STARTCHAR uni0323
ENCODING 803
SWIDTH 0 0
DWIDTH 0 0
BBX 3 3 -7 -4
BITMAP
40
E0
E0
ENDCHAR
STARTCHAR uni0324
ENCODING 804
SWIDTH 0 0
DWIDTH 0 0
BBX 8 3 -10 -4
BITMAP
63
E3
63
ENDCHAR
STARTCHAR uni0325
ENCODING 805
SWIDTH 0 0
DWIDTH 0 0
BBX 5 5 -8 -6
BITMAP
70
88
88
88
70
ENDCHAR
STARTCHAR uni0326
ENCODING 806
SWIDTH 0 0
DWIDTH 0 0
BBX 3 6 -7 -7
BITMAP
40
E0
E0
20
40
80
ENDCHAR
STARTCHAR uni0327
ENCODING 807
SWIDTH 0 0
DWIDTH 0 0
BBX 5 6 -8 -5
BITMAP
20
40
70
18
18
F0
ENDCHAR
STARTCHAR uni0328
ENCODING 808
SWIDTH 0 0
DWIDTH 0 0
BBX 5 5 -8 -5
BITMAP
30
40
C0
C8
70
ENDCHAR
STARTCHAR uni0329
ENCODING 809
SWIDTH 0 0
DWIDTH 0 0
BBX 1 4 -6 -6
BITMAP
80
80
80
80
ENDCHAR
STARTCHAR uni032A
ENCODING 810
SWIDTH 0 0
DWIDTH 0 0
BBX 6 3 -9 -4
BITMAP
FC
84
84
ENDCHAR
STARTCHAR uni032B
ENCODING 811
SWIDTH 0 0
DWIDTH 0 0
BBX 7 3 -9 -4
BITMAP
92
92
6E
ENDCHAR
STARTCHAR uni032C
ENCODING 812
SWIDTH 0 0
DWIDTH 0 0
BBX 7 4 -9 -5
BITMAP
C6
44
28
38
ENDCHAR
STARTCHAR uni032D
ENCODING 813
SWIDTH 0 0
DWIDTH 0 0
BBX 7 4 -9 -5
BITMAP
38
28
4C
C6
ENDCHAR
STARTCHAR uni032E
ENCODING 814
SWIDTH 0 0
DWIDTH 0 0
BBX 7 4 -9 -5
BITMAP
82
86
7C
78
ENDCHAR
STARTCHAR uni032F
ENCODING 815
SWIDTH 0 0
DWIDTH 0 0
BBX 7 4 -9 -5
BITMAP
38
7C
86
82
ENDCHAR
STARTCHAR uni0330
ENCODING 816
SWIDTH 0 0
DWIDTH 0 0
BBX 8 3 -10 -4
BITMAP
31
79
8E
ENDCHAR
STARTCHAR uni0331
ENCODING 817
SWIDTH 0 0
DWIDTH 0 0
BBX 7 1 -9 -3
BITMAP
FE
ENDCHAR
STARTCHAR uni0332
ENCODING 818
SWIDTH 0 0
DWIDTH 0 0
BBX 13 1 -12 -3
BITMAP
FFF8
ENDCHAR
STARTCHAR uni0333
ENCODING 819
SWIDTH 0 0
DWIDTH 0 0
BBX 13 4 -12 -6
BITMAP
FFF8
0000
0000
FFF8
ENDCHAR
STARTCHAR uni0334
ENCODING 820
SWIDTH 0 0
DWIDTH 0 0
BBX 9 2 -10 5
BITMAP
7980
8F00
ENDCHAR
STARTCHAR uni0335
ENCODING 821
SWIDTH 0 0
DWIDTH 0 0
BBX 7 1 -9 6
BITMAP
FE
ENDCHAR
STARTCHAR uni0336
ENCODING 822
SWIDTH 0 0
DWIDTH 0 0
BBX 13 1 -12 6
BITMAP
FFF8
ENDCHAR
STARTCHAR uni0337
ENCODING 823
SWIDTH 0 0
DWIDTH 0 0
BBX 7 6 -9 6
BITMAP
02
04
18
30
40
80
ENDCHAR
STARTCHAR uni0338
ENCODING 824
SWIDTH 0 0
DWIDTH 0 0
BBX 10 21 -10 -4
BITMAP
00C0
0080
0080
0100
0100
0300
0200
0600
0400
0400
0800
0800
1800
1000
3000
2000
2000
4000
4000
C000
8000
ENDCHAR
STARTCHAR uni0339
ENCODING 825
SWIDTH 0 0
DWIDTH 0 0
BBX 3 5 -7 -6
BITMAP
C0
20
20
20
C0
ENDCHAR
STARTCHAR uni033A
ENCODING 826
SWIDTH 0 0
DWIDTH 0 0
BBX 6 3 -9 -4
BITMAP
84
84
FC
ENDCHAR
STARTCHAR uni033B
ENCODING 827
SWIDTH 0 0
DWIDTH 0 0
BBX 5 4 -8 -6
BITMAP
F8
88
88
F8
ENDCHAR
STARTCHAR uni033C
ENCODING 828
SWIDTH 0 0
DWIDTH 0 0
BBX 7 3 -9 -5
BITMAP
EE
B2
10
ENDCHAR
STARTCHAR uni033D
ENCODING 829
SWIDTH 0 0
DWIDTH 0 0
BBX 5 5 -8 13
BITMAP
88
50
20
50
88
ENDCHAR
STARTCHAR uni033E
ENCODING 830
SWIDTH 0 0
DWIDTH 0 0
BBX 3 8 -7 12
BITMAP
60
C0
C0
40
60
60
40
80
ENDCHAR
STARTCHAR uni033F
ENCODING 831
SWIDTH 0 0
DWIDTH 0 0
BBX 9 4 -10 13
BITMAP
FF80
0000
0000
FF80
ENDCHAR
STARTCHAR uni0346
ENCODING 838
SWIDTH 0 0
DWIDTH 0 0
BBX 7 3 -9 13
BITMAP
FE
82
82
ENDCHAR
STARTCHAR uni0347
ENCODING 839
SWIDTH 0 0
DWIDTH 0 0
BBX 7 4 -9 -5
BITMAP
FE
00
00
FE
ENDCHAR
STARTCHAR uni034C
ENCODING 844
SWIDTH 0 0
DWIDTH 0 0
BBX 7 6 -9 13
BITMAP
62
F2
9C
62
F2
9C
ENDCHAR
STARTCHAR uni034D
ENCODING 845
SWIDTH 0 0
DWIDTH 0 0
BBX 11 5 -11 -7
BITMAP
2080
4040
FFE0
4040
2080
ENDCHAR
STARTCHAR uni0359
ENCODING 857
SWIDTH 0 0
DWIDTH 0 0
BBX 7 8 -9 -9
BITMAP
10
D6
FE
10
FE
D6
10
10
ENDCHAR
STARTCHAR uni035C
ENCODING 860
SWIDTH 0 0
DWIDTH 0 0
BBX 16 4 -8 -6
BITMAP
8001
8001
600E
1FF8
ENDCHAR
STARTCHAR uni0360
ENCODING 864
SWIDTH 0 0
DWIDTH 0 0
BBX 12 3 -6 13
BITMAP
7810
8610
81E0
ENDCHAR
STARTCHAR uni0361
ENCODING 865
SWIDTH 0 0
DWIDTH 0 0
BBX 12 4 -6 14
BITMAP
1F80
7FE0
6060
8010
ENDCHAR
STARTCHAR uni0362
ENCODING 866
SWIDTH 0 0
DWIDTH 0 0
BBX 18 5 -9 -7
BITMAP
000100
000080
FFFFC0
000080
000100
ENDCHAR
STARTCHAR uni037E
ENCODING 894
SWIDTH 261 0
DWIDTH 6 0
BBX 3 15 2 -3
BITMAP
C0
E0
C0
00
00
00
00
00
00
C0
E0
E0
20
60
C0
ENDCHAR
STARTCHAR tonos
ENCODING 900
SWIDTH 165 0
DWIDTH 4 0
BBX 2 4 1 13
BITMAP
C0
C0
80
80
ENDCHAR
STARTCHAR dieresistonos
ENCODING 901
SWIDTH 426 0
DWIDTH 10 0
BBX 9 4 1 13
BITMAP
1C00
DB80
DB00
1000
ENDCHAR
STARTCHAR Alphatonos
ENCODING 902
SWIDTH 718 0
DWIDTH 17 0
BBX 17 16 0 0
BITMAP
708000
61C000
61C000
43E000
026000
026000
067000
043000
0C3800
083800
0FFC00
181C00
100C00
300E00
300F00
F81F80
ENDCHAR
STARTCHAR anoteleia
ENCODING 903
SWIDTH 261 0
DWIDTH 6 0
BBX 3 3 2 9
BITMAP
C0
E0
C0
ENDCHAR
STARTCHAR Epsilontonos
ENCODING 904
SWIDTH 745 0
DWIDTH 18 0
BBX 17 16 0 0
BITMAP
CFFF00
C30100
830100
830000
030200
030200
030600
03FE00
030600
030200
030000
030080
030080
030080
030380
0FFF80
ENDCHAR
STARTCHAR Etatonos
ENCODING 905
SWIDTH 896 0
DWIDTH 22 0
BBX 21 16 0 0
BITMAP
CFE3F8
C380E0
8300C0
8300C0
0300C0
0300C0
0300C0
03FFC0
0300C0
0300C0
0300C0
0300C0
0300C0
0300C0
0380E0
0FE3F8
ENDCHAR
STARTCHAR Iotatonos
ENCODING 906
SWIDTH 478 0
DWIDTH 11 0
BBX 11 16 0 0
BITMAP
CFE0
C380
8300
8300
0300
0300
0300
0300
0300
0300
0300
0300
0300
0300
0380
0FE0
ENDCHAR
STARTCHAR Omicrontonos
ENCODING 908
SWIDTH 806 0
DWIDTH 19 0
BBX 18 16 0 0
BITMAP
C1FC00
C30600
860300
8C0180
1C01C0
1C01C0
1800C0
1800C0
1800C0
1800C0
1C01C0
1C0180
0C0180
060300
030600
01FC00
ENDCHAR
STARTCHAR Upsilontonos
ENCODING 910
SWIDTH 787 0
DWIDTH 19 0
BBX 20 16 -1 0
BITMAP
6FE1F0
C380C0
C18080
81C180
00E100
006200
007200
003C00
001C00
001800
001800
001800
001800
001800
001C00
007F00
ENDCHAR
STARTCHAR Omegatonos
ENCODING 911
SWIDTH 830 0
DWIDTH 20 0
BBX 19 16 0 0
BITMAP
C0FC00
C30700
860380
8C0180
1C01C0
1C01C0
1C01C0
1C01C0
1C01C0
0C01C0
0C0180
060300
230220
110460
1F8FC0
1F8FC0
ENDCHAR
STARTCHAR iotadieresistonos
ENCODING 912
SWIDTH 259 0
DWIDTH 6 0
BBX 8 17 -1 0
BITMAP
1C
DB
DB
10
00
18
18
18
18
10
10
10
10
10
10
1E
1C
ENDCHAR
STARTCHAR Alpha
ENCODING 913
SWIDTH 718 0
DWIDTH 17 0
BBX 17 16 0 0
BITMAP
008000
01C000
01C000
03E000
026000
026000
067000
043000
0C3800
083800
0FFC00
181C00
100C00
300E00
300F00
F81F80
ENDCHAR
STARTCHAR Beta
ENCODING 914
SWIDTH 618 0
DWIDTH 15 0
BBX 13 16 1 0
BITMAP
FFC0
3060
3030
3030
3030
3030
3060
3F80
3060
3030
3038
3038
3038
3038
3070
FFC0
ENDCHAR
STARTCHAR Gamma
ENCODING 915
SWIDTH 569 0
DWIDTH 14 0
BBX 12 16 1 0
BITMAP
FFF0
3030
3010
3010
3000
3000
3000
3000
3000
3000
3000
3000
3000
3000
3800
FE00
ENDCHAR
STARTCHAR Delta
ENCODING 916
SWIDTH 667 0
DWIDTH 16 0
BBX 14 16 1 0
BITMAP
0300
0300
0780
0580
0580
09C0
08C0
10E0
1060
3070
2070
6030
4038
C018
FFFC
FFFC
ENDCHAR
STARTCHAR Epsilon
ENCODING 917
SWIDTH 626 0
DWIDTH 15 0
BBX 13 16 1 0
BITMAP
FFF0
3018
3008
3000
3020
3020
3060
3FE0
3020
3020
3000
3008
3008
3008
3018
FFF8
ENDCHAR
STARTCHAR Zeta
ENCODING 918
SWIDTH 594 0
DWIDTH 14 0
BBX 13 16 1 0
BITMAP
7FF0
4070
40E0
80C0
01C0
0380
0300
0700
0E00
0C00
1C00
3800
3008
7010
E030
FFF0
ENDCHAR
STARTCHAR Eta
ENCODING 919
SWIDTH 777 0
DWIDTH 19 0
BBX 17 16 1 0
BITMAP
FE3F80
380E00
300C00
300C00
300C00
300C00
300C00
3FFC00
300C00
300C00
300C00
300C00
300C00
300C00
380E00
FE3F80
ENDCHAR
STARTCHAR Theta
ENCODING 920
SWIDTH 738 0
DWIDTH 18 0
BBX 16 16 1 0
BITMAP
07E0
1C38
301C
700C
600E
E426
E426
E7E7
E7E7
E426
E006
600E
700C
301C
1C38
07E0
ENDCHAR
STARTCHAR Iota
ENCODING 921
SWIDTH 357 0
DWIDTH 9 0
BBX 7 16 1 0
BITMAP
FE
38
30
30
30
30
30
30
30
30
30
30
30
30
38
FE
ENDCHAR
STARTCHAR Kappa
ENCODING 922
SWIDTH 702 0
DWIDTH 17 0
BBX 16 16 1 0
BITMAP
FE7E
3838
3030
3060
3080
3100
3200
3400
3E00
3380
31C0
30E0
3070
3038
383C
FE7F
ENDCHAR
STARTCHAR Lambda
ENCODING 923
SWIDTH 710 0
DWIDTH 17 0
BBX 17 16 0 0
BITMAP
008000
018000
01C000
03C000
02E000
026000
047000
043000
0C3800
083800
081800
101C00
100C00
300E00
300E00
F83F80
ENDCHAR
STARTCHAR Mu
ENCODING 924
SWIDTH 895 0
DWIDTH 21 0
BBX 19 16 1 0
BITMAP
F801E0
3803C0
3C0380
3C0780
2C0580
2E0580
260D80
270980
231980
239180
21B180
21A180
21E180
20E180
20C1C0
F847E0
ENDCHAR
STARTCHAR Nu
ENCODING 925
SWIDTH 742 0
DWIDTH 18 0
BBX 16 16 1 0
BITMAP
F03F
780E
3C04
3C04
2E04
2704
2384
2384
21C4
20E4
2074
203C
203C
201C
200C
F804
ENDCHAR
STARTCHAR Xi
ENCODING 926
SWIDTH 648 0
DWIDTH 16 0
BBX 13 16 1 0
BITMAP
7FF8
7FF8
4008
8008
0000
1020
1020
1FE0
1FE0
1020
1020
0000
8008
C008
FFF8
FFF8
ENDCHAR
STARTCHAR Omicron
ENCODING 927
SWIDTH 738 0
DWIDTH 18 0
BBX 16 16 1 0
BITMAP
07E0
1C38
301C
700C
600E
E006
E006
E007
E007
E006
E006
600E
700C
300C
1C38
07E0
ENDCHAR
STARTCHAR Pi
ENCODING 928
SWIDTH 759 0
DWIDTH 18 0
BBX 16 16 1 0
BITMAP
FFFF
300C
300C
300C
300C
300C
300C
300C
300C
300C
300C
300C
300C
300C
380C
FE3F
ENDCHAR
STARTCHAR Rho
ENCODING 929
SWIDTH 569 0
DWIDTH 14 0
BBX 12 16 1 0
BITMAP
FFC0
30E0
3070
3030
3030
3030
3060
30E0
3F80
3000
3000
3000
3000
3000
3800
FE00
ENDCHAR
STARTCHAR Sigma
ENCODING 931
SWIDTH 604 0
DWIDTH 15 0
BBX 13 16 1 0
BITMAP
FFF0
E030
7010
3810
1C00
0E00
0600
0700
0600
0C00
0800
1008
2018
6010
FFF0
FFF0
ENDCHAR
STARTCHAR Tau
ENCODING 932
SWIDTH 603 0
DWIDTH 14 0
BBX 14 16 0 0
BITMAP
7FFC
430C
C304
8304
0300
0300
0300
0300
0300
0300
0300
0300
0300
0300
0380
0FE0
ENDCHAR
STARTCHAR Upsilon
ENCODING 933
SWIDTH 647 0
DWIDTH 16 0
BBX 16 16 0 0
BITMAP
FC3F
780C
3808
1C10
0C30
0E20
0760
0340
0380
0180
0180
0180
0180
0180
0380
0FE0
ENDCHAR
STARTCHAR Phi
ENCODING 934
SWIDTH 718 0
DWIDTH 17 0
BBX 15 16 1 0
BITMAP
0FE0
0380
0380
1FF8
739C
E38E
C386
C386
C386
E386
E38E
739C
1FF0
0380
0380
0FE0
ENDCHAR
STARTCHAR Chi
ENCODING 935
SWIDTH 664 0
DWIDTH 16 0
BBX 16 16 0 0
BITMAP
FE3F
3C0C
1C18
0E30
0E20
0740
03C0
0180
01C0
02C0
0460
0C70
1838
1038
301C
F87F
ENDCHAR
STARTCHAR Psi
ENCODING 936
SWIDTH 720 0
DWIDTH 17 0
BBX 17 16 0 0
BITMAP
E7F180
61C300
30C700
30C700
30C700
30C700
30C700
30C700
30C600
1CCC00
07F000
00C000
00C000
00C000
01C000
07F000
ENDCHAR
STARTCHAR Omega
ENCODING 937
SWIDTH 777 0
DWIDTH 19 0
BBX 17 16 1 0
BITMAP
07F000
1C1800
380C00
300600
700600
700700
600700
700700
700700
700600
300E00
180C00
981880
C43100
FE3F00
7E3F00
ENDCHAR
STARTCHAR Iotadieresis
ENCODING 938
SWIDTH 357 0
DWIDTH 9 0
BBX 8 20 0 0
BITMAP
63
E3
63
00
7F
1C
18
18
18
18
18
18
18
18
18
18
18
18
1C
7F
ENDCHAR
STARTCHAR Upsilondieresis
ENCODING 939
SWIDTH 647 0
DWIDTH 16 0
BBX 16 20 0 0
BITMAP
0430
0E70
0E30
0000
FC3F
780C
3808
1C10
0C30
0E20
0760
0340
0380
0180
0180
0180
0180
0180
0380
0FE0
ENDCHAR
STARTCHAR alphatonos
ENCODING 940
SWIDTH 561 0
DWIDTH 13 0
BBX 12 17 1 0
BITMAP
0600
0600
0400
0400
0000
1E70
7E60
63C0
C1C0
8180
8180
8180
8180
8280
C690
7CF0
38E0
ENDCHAR
STARTCHAR epsilontonos
ENCODING 941
SWIDTH 381 0
DWIDTH 9 0
BBX 8 17 1 0
BITMAP
0E
0C
0C
08
00
3E
7F
E2
C0
40
78
58
C0
80
C2
FE
3C
ENDCHAR
STARTCHAR etatonos
ENCODING 942
SWIDTH 510 0
DWIDTH 12 0
BBX 11 22 0 -5
BITMAP
0180
0100
0300
0200
0000
7380
F3C0
9640
1460
1860
1860
1860
1060
3060
3060
3060
3060
0060
0060
00C0
00C0
00C0
ENDCHAR
STARTCHAR iotatonos
ENCODING 943
SWIDTH 259 0
DWIDTH 6 0
BBX 4 17 2 0
BITMAP
60
40
C0
80
00
C0
C0
C0
C0
80
80
80
80
80
80
F0
E0
ENDCHAR
STARTCHAR upsilondieresistonos
ENCODING 944
SWIDTH 491 0
DWIDTH 12 0
BBX 11 17 0 0
BITMAP
0600
65C0
7DC0
0C00
0000
7100
F080
B040
3040
3060
3060
2060
2060
20C0
31C0
1F80
1F00
ENDCHAR
STARTCHAR alpha
ENCODING 945
SWIDTH 561 0
DWIDTH 13 0
BBX 12 12 1 0
BITMAP
1E70
7E60
63C0
C1C0
8180
8180
8180
8180
8280
C690
7CF0
38E0
ENDCHAR
STARTCHAR beta
ENCODING 946
SWIDTH 530 0
DWIDTH 13 0
BBX 11 23 1 -5
BITMAP
0780
1FC0
18C0
3040
2040
2040
6180
4E00
4D80
40C0
4040
4060
4060
6060
6060
D0C0
DFC0
CF00
C000
C000
C000
C000
C000
ENDCHAR
STARTCHAR gamma
ENCODING 947
SWIDTH 466 0
DWIDTH 11 0
BBX 11 17 0 -5
BITMAP
70E0
F0C0
98C0
1980
0980
0900
0B00
0A00
0A00
0C00
0C00
0C00
0C00
0C00
1C00
1800
1800
ENDCHAR
STARTCHAR delta
ENCODING 948
SWIDTH 479 0
DWIDTH 12 0
BBX 10 18 1 0
BITMAP
1E00
2380
2180
3000
1800
0E00
1F00
3F00
6180
C180
80C0
80C0
80C0
8080
8180
C380
7F00
3C00
ENDCHAR
STARTCHAR epsilon
ENCODING 949
SWIDTH 381 0
DWIDTH 9 0
BBX 8 12 1 0
BITMAP
3E
7F
E2
C0
40
78
58
C0
80
C2
FE
3C
ENDCHAR
STARTCHAR zeta
ENCODING 950
SWIDTH 386 0
DWIDTH 9 0
BBX 9 25 1 -7
BITMAP
0800
1000
3180
3380
1F00
0C00
1800
3000
6000
4000
C000
8000
8000
8000
8000
C000
F000
7E00
3F00
0300
0100
0100
1E00
1C00
1000
ENDCHAR
STARTCHAR eta
ENCODING 951
SWIDTH 510 0
DWIDTH 12 0
BBX 11 17 0 -5
BITMAP
7380
F3C0
9640
1460
1860
1860
1860
1060
3060
3060
3060
3060
0060
0060
00C0
00C0
00C0
ENDCHAR
STARTCHAR theta
ENCODING 952
SWIDTH 514 0
DWIDTH 12 0
BBX 10 18 1 0
BITMAP
1E00
3F00
3180
6080
40C0
4040
C040
8040
FFC0
8040
8040
C040
C040
40C0
6080
7180
3F00
1E00
ENDCHAR
STARTCHAR iota
ENCODING 953
SWIDTH 259 0
DWIDTH 6 0
BBX 4 12 2 0
BITMAP
C0
C0
C0
C0
80
80
80
80
80
80
F0
E0
ENDCHAR
STARTCHAR kappa
ENCODING 954
SWIDTH 495 0
DWIDTH 12 0
BBX 12 12 0 0
BITMAP
7060
F0E0
B9C0
1300
1600
1400
1A00
1A00
1300
1110
31E0
30E0
ENDCHAR
STARTCHAR lambda
ENCODING 955
SWIDTH 506 0
DWIDTH 12 0
BBX 13 18 0 0
BITMAP
1C00
3C00
2600
0200
0200
0200
0200
0700
0500
0D00
0D00
1900
1900
3180
3180
71C8
60F0
E0E0
ENDCHAR
STARTCHAR mu
ENCODING 956
SWIDTH 552 0
DWIDTH 13 0
BBX 12 17 1 -5
BITMAP
60C0
60C0
60C0
6080
4080
4080
4180
4180
4280
6290
FEF0
DCE0
C000
C000
C000
C000
C000
ENDCHAR
STARTCHAR nu
ENCODING 957
SWIDTH 453 0
DWIDTH 11 0
BBX 10 12 0 0
BITMAP
7180
F0C0
B0C0
18C0
18C0
18C0
19C0
0980
0B00
0B00
0E00
1C00
ENDCHAR
STARTCHAR xi
ENCODING 958
SWIDTH 390 0
DWIDTH 9 0
BBX 9 23 1 -5
BITMAP
2000
6000
6300
3F00
3800
6000
4000
4000
2E00
3E00
4000
8000
8000
8000
C000
FC00
7F00
0F00
0180
0080
0100
1E00
1C00
ENDCHAR
STARTCHAR omicron
ENCODING 959
SWIDTH 475 0
DWIDTH 11 0
BBX 10 12 1 0
BITMAP
1E00
7F00
6180
C080
8080
80C0
80C0
8080
C080
E380
7F00
3E00
ENDCHAR
STARTCHAR pi
ENCODING 960
SWIDTH 591 0
DWIDTH 14 0
BBX 14 12 0 0
BITMAP
1FFC
7FFC
4440
8440
0440
0840
0840
0840
18C0
18E8
3078
3070
ENDCHAR
STARTCHAR rho
ENCODING 961
SWIDTH 515 0
DWIDTH 12 0
BBX 10 17 1 -5
BITMAP
0F00
3F80
30C0
6040
4040
4040
4040
4040
60C0
71C0
DF80
CF00
C000
C000
C000
E000
E000
ENDCHAR
STARTCHAR uni03C2
ENCODING 962
SWIDTH 377 0
DWIDTH 9 0
BBX 8 17 1 -5
BITMAP
1F
7E
61
80
80
80
80
C0
E0
7C
3E
07
01
01
03
1E
18
ENDCHAR
STARTCHAR sigma
ENCODING 963
SWIDTH 545 0
DWIDTH 13 0
BBX 12 12 1 0
BITMAP
1FF0
3FF0
6100
C080
8080
80C0
80C0
80C0
C0C0
E380
7F00
3E00
ENDCHAR
STARTCHAR tau
ENCODING 964
SWIDTH 392 0
DWIDTH 9 0
BBX 10 12 0 0
BITMAP
3FC0
7F80
8C00
0800
0800
0800
0800
0800
1800
0C80
0F00
0E00
ENDCHAR
STARTCHAR upsilon
ENCODING 965
SWIDTH 491 0
DWIDTH 12 0
BBX 11 12 0 0
BITMAP
7100
F080
B040
3040
3060
3060
2060
2060
20C0
31C0
1F80
1F00
ENDCHAR
STARTCHAR phi
ENCODING 966
SWIDTH 603 0
DWIDTH 14 0
BBX 13 17 1 -5
BITMAP
39E0
79F0
6330
C210
8618
8618
8618
8610
C630
7FE0
3FC0
0F00
0600
0600
0600
0600
0400
ENDCHAR
STARTCHAR chi
ENCODING 967
SWIDTH 462 0
DWIDTH 11 0
BBX 13 17 -1 -5
BITMAP
3038
7870
CC60
04E0
04C0
0580
0380
0300
0600
0600
0D00
1900
1900
3180
7088
60F0
E060
ENDCHAR
STARTCHAR psi
ENCODING 968
SWIDTH 620 0
DWIDTH 15 0
BBX 14 23 0 -5
BITMAP
0180
0180
0180
0180
0180
0180
7190
F118
B108
310C
310C
310C
210C
210C
3118
3978
1FF0
0FC0
0100
0100
0300
0300
0380
ENDCHAR
STARTCHAR omega
ENCODING 969
SWIDTH 660 0
DWIDTH 16 0
BBX 14 12 1 0
BITMAP
1820
3810
6018
C308
830C
830C
830C
820C
820C
C718
7DF8
38F0
ENDCHAR
STARTCHAR iotadieresis
ENCODING 970
SWIDTH 259 0
DWIDTH 6 0
BBX 8 16 -1 0
BITMAP
C3
E7
C2
00
18
18
18
18
10
10
10
10
10
10
1E
1C
ENDCHAR
STARTCHAR upsilondieresis
ENCODING 971
SWIDTH 491 0
DWIDTH 12 0
BBX 11 16 0 0
BITMAP
3180
7180
3180
0000
7100
F080
B040
3040
3060
3060
2060
2060
20C0
31C0
1F80
1F00
ENDCHAR
STARTCHAR omicrontonos
ENCODING 972
SWIDTH 475 0
DWIDTH 11 0
BBX 10 17 1 0
BITMAP
0600
0600
0400
0400
0000
1E00
7F00
6180
C080
8080
80C0
80C0
8080
C080
E380
7F00
3E00
ENDCHAR
STARTCHAR upsilontonos
ENCODING 973
SWIDTH 491 0
DWIDTH 12 0
BBX 11 17 0 0
BITMAP
0300
0600
0600
0400
0000
7100
F080
B040
3040
3060
3060
2060
2060
20C0
31C0
1F80
1F00
ENDCHAR
STARTCHAR omegatonos
ENCODING 974
SWIDTH 660 0
DWIDTH 16 0
BBX 14 17 1 0
BITMAP
0180
0100
0300
0200
0000
1820
3810
6018
C308
830C
830C
830C
820C
820C
C718
7DF8
38F0
ENDCHAR
STARTCHAR uni03D0
ENCODING 976
SWIDTH 438 0
DWIDTH 11 0
BBX 9 18 1 0
BITMAP
0700
1F80
1080
2080
6080
5080
5F00
4F00
C000
DE00
FF00
F100
C080
4080
6080
7180
3F00
1E00
ENDCHAR
STARTCHAR uni03D1
ENCODING 977
SWIDTH 541 0
DWIDTH 13 0
BBX 12 18 0 0
BITMAP
0700
0F80
18C0
1040
1040
1060
1020
1020
0C30
07F0
33E0
7820
9820
1820
1860
08C0
0FC0
0780
ENDCHAR
STARTCHAR uni03D2
ENCODING 978
SWIDTH 616 0
DWIDTH 15 0
BBX 15 16 0 0
BITMAP
7C1C
8C26
064E
0640
0280
0380
0380
0380
0380
0300
0300
0300
0300
0300
0380
0FE0
ENDCHAR
STARTCHAR uni03D5
ENCODING 981
SWIDTH 575 0
DWIDTH 14 0
BBX 12 23 1 -5
BITMAP
0300
0300
0700
0600
0600
0600
1F80
3FE0
6660
C630
8610
8610
8610
8610
C620
66E0
7FC0
1F00
0400
0400
0C00
0C00
0C00
ENDCHAR
STARTCHAR uni03D6
ENCODING 982
SWIDTH 821 0
DWIDTH 20 0
BBX 20 12 0 0
BITMAP
3FFFF0
7FFFF0
8C0100
080180
187080
107080
106080
106080
082180
0C6380
0F9F00
079E00
ENDCHAR
STARTCHAR uni03D8
ENCODING 984
SWIDTH 627 0
DWIDTH 15 0
BBX 13 16 1 0
BITMAP
0FC0
3060
6030
E038
C018
C018
C018
E018
E038
6030
38E0
0F80
0700
0700
0700
1FC0
ENDCHAR
STARTCHAR uni03D9
ENCODING 985
SWIDTH 475 0
DWIDTH 11 0
BBX 10 18 1 -6
BITMAP
1E00
3F00
6180
C080
8080
80C0
80C0
8080
8080
C180
7F00
3E00
0800
0800
0800
1800
1C00
1000
ENDCHAR
STARTCHAR uni03DA
ENCODING 986
SWIDTH 578 0
DWIDTH 14 0
BBX 12 16 1 0
BITMAP
0F90
3070
6030
E030
C010
C010
C000
C000
E000
7000
3800
1F80
0180
0180
0380
0FE0
ENDCHAR
STARTCHAR uni03DB
ENCODING 987
SWIDTH 490 0
DWIDTH 12 0
BBX 11 17 1 -5
BITMAP
0FE0
3FE0
6000
8000
8000
8000
8000
C000
E000
7800
3E00
0F00
0300
0100
0200
3C00
1800
ENDCHAR
STARTCHAR uni03DC
ENCODING 988
SWIDTH 588 0
DWIDTH 14 0
BBX 13 16 1 0
BITMAP
FFF8
3018
3008
3000
3020
3020
3060
3FE0
3060
3020
3000
3000
3000
3000
3800
FE00
ENDCHAR
STARTCHAR uni03DD
ENCODING 989
SWIDTH 386 0
DWIDTH 9 0
BBX 12 18 -3 -6
BITMAP
07F0
07F0
0600
0600
0600
0600
0400
05E0
07E0
0400
0400
0400
0400
0400
0C00
9800
7800
7000
ENDCHAR
STARTCHAR uni03DE
ENCODING 990
SWIDTH 525 0
DWIDTH 13 0
BBX 11 16 1 0
BITMAP
3E00
0800
1800
1000
2000
6000
4000
FFE0
FFC0
0040
0080
0180
0100
0200
0600
1F80
ENDCHAR
STARTCHAR uni03DF
ENCODING 991
SWIDTH 434 0
DWIDTH 10 0
BBX 11 16 -1 0
BITMAP
3000
7800
9800
1800
1800
1000
10C0
1780
3F80
3880
0080
0100
0100
01A0
01E0
01C0
ENDCHAR
STARTCHAR uni03E0
ENCODING 992
SWIDTH 697 0
DWIDTH 17 0
BBX 17 16 0 0
BITMAP
070000
038000
018000
01C000
01C000
03E000
02E000
067000
047000
0CF800
08B800
119C00
311C00
230E00
660E00
C43F80
ENDCHAR
STARTCHAR uni03E1
ENCODING 993
SWIDTH 458 0
DWIDTH 11 0
BBX 10 23 0 -7
BITMAP
C000
E000
7800
3C00
1C00
0600
0700
0300
1D80
7980
6080
00C0
01C0
1FC0
1C40
0040
0040
0040
0040
0040
0080
0080
0080
ENDCHAR
STARTCHAR uni03F0
ENCODING 1008
SWIDTH 504 0
DWIDTH 12 0
BBX 13 12 0 0
BITMAP
7070
7060
90C0
19C0
1980
0B00
1700
1F00
1D00
1988
30F0
70E0
ENDCHAR
STARTCHAR uni03F1
ENCODING 1009
SWIDTH 467 0
DWIDTH 11 0
BBX 9 18 1 -6
BITMAP
1E00
3F00
6180
4080
4080
C080
C080
E180
FF80
DE00
4000
7000
3C00
1E00
0600
0200
3C00
1800
ENDCHAR
STARTCHAR uni03F4
ENCODING 1012
SWIDTH 737 0
DWIDTH 18 0
BBX 15 16 1 0
BITMAP
07E0
1C38
301C
700C
600E
E006
E006
FFFE
E006
E006
E006
600E
700C
301C
1C38
07E0
ENDCHAR
STARTCHAR uni03F5
ENCODING 1013
SWIDTH 380 0
DWIDTH 9 0
BBX 8 12 1 0
BITMAP
1E
7F
42
80
80
FC
80
80
C0
E2
7E
3C
ENDCHAR
STARTCHAR uni03F6
ENCODING 1014
SWIDTH 382 0
DWIDTH 9 0
BBX 7 12 1 0
BITMAP
F8
FC
86
02
02
7E
02
02
06
8E
FC
78
ENDCHAR
STARTCHAR uni0400
ENCODING 1024
SWIDTH 626 0
DWIDTH 15 0
BBX 13 20 1 0
BITMAP
0E00
0300
0180
0000
FFF0
3018
3008
3000
3020
3020
3060
3FE0
3020
3020
3000
3008
3008
3008
3018
FFF8
ENDCHAR
STARTCHAR uni0401
ENCODING 1025
SWIDTH 626 0
DWIDTH 15 0
BBX 13 20 1 0
BITMAP
1840
18E0
18C0
0000
FFF0
3018
3008
3000
3020
3020
3060
3FE0
3020
3020
3000
3008
3008
3008
3018
FFF8
ENDCHAR
STARTCHAR uni0402
ENCODING 1026
SWIDTH 731 0
DWIDTH 18 0
BBX 17 16 0 0
BITMAP
7FFC00
430400
430400
830400
030000
030000
030000
037C00
038700
030300
030380
030180
030180
032300
033300
0F3E00
ENDCHAR
STARTCHAR uni0403
ENCODING 1027
SWIDTH 548 0
DWIDTH 13 0
BBX 12 20 1 0
BITMAP
0380
0700
0C00
0000
FFF0
3070
3030
3010
3010
3000
3000
3000
3000
3000
3000
3000
3000
3000
3800
FE00
ENDCHAR
STARTCHAR uni0404
ENCODING 1028
SWIDTH 668 0
DWIDTH 16 0
BBX 14 16 1 0
BITMAP
07EC
183C
301C
600C
600C
E004
E000
FFC0
E000
E000
E000
6000
7004
300C
1818
07E0
ENDCHAR
STARTCHAR uni0405
ENCODING 1029
SWIDTH 504 0
DWIDTH 12 0
BBX 10 16 1 0
BITMAP
3F80
6180
C080
C0C0
E040
F000
7800
3E00
0F80
03C0
01C0
80C0
80C0
C0C0
E180
FF00
ENDCHAR
STARTCHAR uni0406
ENCODING 1030
SWIDTH 357 0
DWIDTH 9 0
BBX 7 16 1 0
BITMAP
FE
38
30
30
30
30
30
30
30
30
30
30
30
30
38
FE
ENDCHAR
STARTCHAR uni0407
ENCODING 1031
SWIDTH 357 0
DWIDTH 9 0
BBX 8 20 0 0
BITMAP
63
E3
63
00
7F
1C
18
18
18
18
18
18
18
18
18
18
18
18
1C
7F
ENDCHAR
STARTCHAR uni0408
ENCODING 1032
SWIDTH 396 0
DWIDTH 10 0
BBX 9 16 0 0
BITMAP
3F80
0E00
0600
0600
0600
0600
0600
0600
0600
0600
0600
0600
0600
C600
EC00
7800
ENDCHAR
STARTCHAR uni0409
ENCODING 1033
SWIDTH 924 0
DWIDTH 22 0
BBX 21 16 0 0
BITMAP
1FFE00
021800
021800
021800
021800
061800
041800
041FE0
041870
041838
041818
081818
081818
D81838
F01870
E07FC0
ENDCHAR
STARTCHAR uni040A
ENCODING 1034
SWIDTH 1013 0
DWIDTH 24 0
BBX 23 16 1 0
BITMAP
FE3F80
380C00
300C00
300C00
300C00
300C00
300C00
3FFFF0
300C38
300C0C
300C0E
300C0E
300C0C
300C0C
380C18
FE3FF0
ENDCHAR
STARTCHAR uni040B
ENCODING 1035
SWIDTH 761 0
DWIDTH 18 0
BBX 18 16 0 0
BITMAP
7FFC00
430400
430400
830400
030000
030000
030000
037E00
038700
030300
030300
030300
030300
030300
038300
0FCFC0
ENDCHAR
STARTCHAR uni040C
ENCODING 1036
SWIDTH 658 0
DWIDTH 16 0
BBX 15 20 1 0
BITMAP
00C0
0180
0600
0000
FE1C
383E
3024
3040
3040
3040
3080
3F80
3180
30C0
30E0
3060
3070
3030
3838
FE1E
ENDCHAR
STARTCHAR uni040D
ENCODING 1037
SWIDTH 780 0
DWIDTH 19 0
BBX 17 20 1 0
BITMAP
0E0000
030000
018000
000000
FE3F80
380E00
300E00
300E00
301E00
302E00
304E00
30CE00
318E00
310E00
320E00
340E00
380E00
300E00
380E00
FE3F80
ENDCHAR
STARTCHAR uni040E
ENCODING 1038
SWIDTH 625 0
DWIDTH 15 0
BBX 15 22 0 0
BITMAP
0E30
0C30
0C30
03E0
0000
0000
FC3E
380C
3808
1818
1C10
0C30
0E20
0660
0340
0340
0180
0180
0100
3300
3E00
1C00
ENDCHAR
STARTCHAR uni040F
ENCODING 1039
SWIDTH 759 0
DWIDTH 18 0
BBX 16 21 1 -5
BITMAP
FE3F
380C
300C
300C
300C
300C
300C
300C
300C
300C
300C
300C
300C
300C
300C
FFFF
0080
0180
0180
0180
0180
ENDCHAR
STARTCHAR uni0410
ENCODING 1040
SWIDTH 718 0
DWIDTH 17 0
BBX 17 16 0 0
BITMAP
008000
01C000
01C000
03E000
026000
026000
067000
043000
0C3800
083800
0FFC00
181C00
100C00
300E00
300F00
F81F80
ENDCHAR
STARTCHAR uni0411
ENCODING 1041
SWIDTH 617 0
DWIDTH 15 0
BBX 13 16 1 0
BITMAP
FFF0
3030
3010
3010
3000
3000
3000
3FC0
3070
3030
3038
3038
3038
3030
3070
FFC0
ENDCHAR
STARTCHAR uni0412
ENCODING 1042
SWIDTH 618 0
DWIDTH 15 0
BBX 13 16 1 0
BITMAP
FFC0
3060
3030
3030
3030
3030
3060
3F80
3060
3030
3038
3038
3038
3038
3070
FFC0
ENDCHAR
STARTCHAR uni0413
ENCODING 1043
SWIDTH 548 0
DWIDTH 13 0
BBX 12 16 1 0
BITMAP
FFF0
3070
3030
3010
3010
3000
3000
3000
3000
3000
3000
3000
3000
3000
3800
FE00
ENDCHAR
STARTCHAR uni0414
ENCODING 1044
SWIDTH 663 0
DWIDTH 16 0
BBX 15 21 0 -5
BITMAP
1FFE
0438
0438
0438
0438
0438
0C38
0C38
0838
0838
1838
1838
1038
3038
6038
FFFE
C006
C006
8002
8002
8002
ENDCHAR
STARTCHAR uni0415
ENCODING 1045
SWIDTH 626 0
DWIDTH 15 0
BBX 13 16 1 0
BITMAP
FFF0
3018
3008
3000
3020
3020
3060
3FE0
3020
3020
3000
3008
3008
3008
3018
FFF8
ENDCHAR
STARTCHAR uni0416
ENCODING 1046
SWIDTH 937 0
DWIDTH 22 0
BBX 23 16 0 0
BITMAP
70FE1C
F8383C
48306C
0C3040
043040
043080
023080
03FF00
073180
0631C0
0E30C0
0C30E0
1C3060
183070
383830
F0FE3E
ENDCHAR
STARTCHAR uni0417
ENCODING 1047
SWIDTH 545 0
DWIDTH 13 0
BBX 11 16 1 0
BITMAP
5F00
61C0
40C0
40E0
80C0
00C0
0180
1E00
01C0
00E0
0060
0060
0060
80E0
61C0
1F00
ENDCHAR
STARTCHAR uni0418
ENCODING 1048
SWIDTH 780 0
DWIDTH 19 0
BBX 17 16 1 0
BITMAP
FE3F80
380E00
300E00
300E00
301E00
302E00
304E00
30CE00
318E00
310E00
320E00
340E00
380E00
300E00
380E00
FE3F80
ENDCHAR
STARTCHAR uni0419
ENCODING 1049
SWIDTH 780 0
DWIDTH 19 0
BBX 17 22 1 0
BITMAP
042000
0E3000
0C3000
063000
03E000
000000
FE3F80
380E00
300E00
300E00
301E00
302E00
304E00
30CE00
318E00
310E00
320E00
340E00
380E00
300E00
380E00
FE3F80
ENDCHAR
STARTCHAR uni041A
ENCODING 1050
SWIDTH 658 0
DWIDTH 16 0
BBX 15 16 1 0
BITMAP
FE1C
383E
3024
3040
3040
3040
3080
3F80
3180
30C0
30E0
3060
3070
3030
3838
FE1E
ENDCHAR
STARTCHAR uni041B
ENCODING 1051
SWIDTH 684 0
DWIDTH 16 0
BBX 16 16 0 0
BITMAP
1FFF
0218
0218
0218
0218
0618
0418
0418
0418
0418
0418
0818
0818
D818
F018
E07F
ENDCHAR
STARTCHAR uni041C
ENCODING 1052
SWIDTH 895 0
DWIDTH 21 0
BBX 19 16 1 0
BITMAP
F801E0
3803C0
3C0380
3C0780
2C0580
2E0580
260D80
270980
231980
239180
21B180
21A180
21E180
20E180
20C1C0
F847E0
ENDCHAR
STARTCHAR uni041D
ENCODING 1053
SWIDTH 777 0
DWIDTH 19 0
BBX 17 16 1 0
BITMAP
FE3F80
380E00
300C00
300C00
300C00
300C00
300C00
3FFC00
300C00
300C00
300C00
300C00
300C00
300C00
380E00
FE3F80
ENDCHAR
STARTCHAR uni041E
ENCODING 1054
SWIDTH 738 0
DWIDTH 18 0
BBX 16 16 1 0
BITMAP
07E0
1C38
301C
700C
600E
E006
E006
E007
E007
E006
E006
600E
700C
300C
1C38
07E0
ENDCHAR
STARTCHAR uni041F
ENCODING 1055
SWIDTH 759 0
DWIDTH 18 0
BBX 16 16 1 0
BITMAP
FFFF
300C
300C
300C
300C
300C
300C
300C
300C
300C
300C
300C
300C
300C
380C
FE3F
ENDCHAR
STARTCHAR uni0420
ENCODING 1056
SWIDTH 569 0
DWIDTH 14 0
BBX 12 16 1 0
BITMAP
FFC0
30E0
3070
3030
3030
3030
3060
30E0
3F80
3000
3000
3000
3000
3000
3800
FE00
ENDCHAR
STARTCHAR uni0421
ENCODING 1057
SWIDTH 670 0
DWIDTH 16 0
BBX 14 16 1 0
BITMAP
07E4
1C3C
301C
700C
600C
E004
E000
E000
E000
E000
E000
6000
7000
3004
1C18
07E0
ENDCHAR
STARTCHAR uni0422
ENCODING 1058
SWIDTH 603 0
DWIDTH 14 0
BBX 14 16 0 0
BITMAP
7FFC
430C
C304
8304
0300
0300
0300
0300
0300
0300
0300
0300
0300
0300
0380
0FE0
ENDCHAR
STARTCHAR uni0423
ENCODING 1059
SWIDTH 625 0
DWIDTH 15 0
BBX 15 16 0 0
BITMAP
FC3E
380C
3808
1818
1C10
0C30
0E20
0660
0340
0340
0180
0180
0100
3300
3E00
1C00
ENDCHAR
STARTCHAR uni0424
ENCODING 1060
SWIDTH 725 0
DWIDTH 17 0
BBX 16 16 1 0
BITMAP
0FE0
0380
0380
3DF8
618C
E186
C186
C187
C187
C186
E186
718C
1FF8
0180
0380
0FE0
ENDCHAR
STARTCHAR uni0425
ENCODING 1061
SWIDTH 664 0
DWIDTH 16 0
BBX 16 16 0 0
BITMAP
FE3F
3C0C
1C18
0E30
0E20
0740
03C0
0180
01C0
02C0
0460
0C70
1838
1038
301C
F87F
ENDCHAR
STARTCHAR uni0426
ENCODING 1062
SWIDTH 756 0
DWIDTH 18 0
BBX 16 21 1 -5
BITMAP
FE7F
381C
300C
300C
300C
300C
300C
300C
300C
300C
300C
300C
300C
300C
300C
FFFF
0003
0001
0001
0001
0001
ENDCHAR
STARTCHAR uni0427
ENCODING 1063
SWIDTH 650 0
DWIDTH 16 0
BBX 15 16 0 0
BITMAP
FCFE
3838
3030
3030
3030
3030
3030
1830
0FF0
0030
0030
0030
0030
0030
0038
00FE
ENDCHAR
STARTCHAR uni0428
ENCODING 1064
SWIDTH 1053 0
DWIDTH 25 0
BBX 23 16 1 0
BITMAP
FCFE7E
383818
301818
301818
301818
301818
301818
301818
301818
301818
301818
301818
301818
301818
301818
FFFFFE
ENDCHAR
STARTCHAR uni0429
ENCODING 1065
SWIDTH 1044 0
DWIDTH 25 0
BBX 23 21 1 -5
BITMAP
FCFE7E
383838
303818
303818
303818
303818
303818
303818
303818
303818
303818
303818
303818
303818
303818
FFFFFE
000006
000006
000002
000002
000002
ENDCHAR
STARTCHAR uni042A
ENCODING 1066
SWIDTH 723 0
DWIDTH 17 0
BBX 17 16 0 0
BITMAP
7FE000
438000
C30000
830000
030000
030000
030000
03FC00
030F00
030300
030380
030380
030300
030300
030600
0FFC00
ENDCHAR
STARTCHAR uni042B
ENCODING 1067
SWIDTH 887 0
DWIDTH 21 0
BBX 19 16 1 0
BITMAP
FE07E0
380180
300180
300180
300180
300180
300180
3FC180
30E180
307180
303180
303180
303180
303180
306180
FFC7E0
ENDCHAR
STARTCHAR uni042C
ENCODING 1068
SWIDTH 606 0
DWIDTH 15 0
BBX 13 16 1 0
BITMAP
FE00
3800
3000
3000
3000
3000
3000
3FC0
3070
3030
3038
3038
3038
3030
3070
FFC0
ENDCHAR
STARTCHAR uni042D
ENCODING 1069
SWIDTH 667 0
DWIDTH 16 0
BBX 14 16 1 0
BITMAP
5F80
F060
E030
C038
C018
801C
001C
0FFC
001C
001C
0018
0018
8038
C030
6060
1F80
ENDCHAR
STARTCHAR uni042E
ENCODING 1070
SWIDTH 1042 0
DWIDTH 25 0
BBX 23 16 1 0
BITMAP
FE07C0
381830
303018
30601C
30600C
30E00E
30C00E
3FC00E
30C00E
30E00E
30E00C
30600C
30600C
303018
381830
FE0FC0
ENDCHAR
STARTCHAR uni042F
ENCODING 1071
SWIDTH 654 0
DWIDTH 16 0
BBX 15 16 0 0
BITMAP
07FE
1C38
1838
3838
3838
3838
1838
0E38
07F8
0738
0E38
0C38
1C38
1838
3838
F0FE
ENDCHAR
STARTCHAR uni0430
ENCODING 1072
SWIDTH 480 0
DWIDTH 12 0
BBX 10 12 1 0
BITMAP
3E00
6300
C300
C300
0300
0700
3B00
6300
C300
C300
C740
79C0
ENDCHAR
STARTCHAR uni0431
ENCODING 1073
SWIDTH 520 0
DWIDTH 12 0
BBX 11 18 1 0
BITMAP
0040
03C0
0F80
3E00
7000
4000
CF00
B180
A0C0
E0C0
C0E0
C0E0
C0E0
C0E0
60C0
60C0
3180
1F00
ENDCHAR
STARTCHAR uni0432
ENCODING 1074
SWIDTH 505 0
DWIDTH 12 0
BBX 10 12 1 0
BITMAP
FF00
6180
60C0
60C0
60C0
6180
7F00
61C0
60C0
60C0
61C0
FF80
ENDCHAR
STARTCHAR uni0433
ENCODING 1075
SWIDTH 429 0
DWIDTH 10 0
BBX 9 12 1 0
BITMAP
FF80
6180
6080
6080
6000
6000
6000
6000
6000
6000
7000
F800
ENDCHAR
STARTCHAR uni0434
ENCODING 1076
SWIDTH 530 0
DWIDTH 13 0
BBX 12 16 0 -4
BITMAP
3FF0
08C0
08C0
08C0
08C0
08C0
10C0
10C0
10C0
30C0
60C0
FFF0
C030
8010
8010
8010
ENDCHAR
STARTCHAR uni0435
ENCODING 1077
SWIDTH 464 0
DWIDTH 11 0
BBX 9 12 1 0
BITMAP
1E00
6300
4180
C180
FF80
C000
C000
C000
E080
7080
7F00
1E00
ENDCHAR
STARTCHAR uni0436
ENCODING 1078
SWIDTH 754 0
DWIDTH 18 0
BBX 18 12 0 0
BITMAP
61F180
F0C3C0
08C200
08C400
08C400
04CC00
07F800
0CCC00
1CC600
18C700
30C300
F1F3C0
ENDCHAR
STARTCHAR uni0437
ENCODING 1079
SWIDTH 435 0
DWIDTH 10 0
BBX 8 12 1 0
BITMAP
BE
C7
83
83
07
3C
06
03
03
83
87
7C
ENDCHAR
STARTCHAR uni0438
ENCODING 1080
SWIDTH 609 0
DWIDTH 15 0
BBX 13 12 1 0
BITMAP
F8F8
7060
6060
60E0
6160
6260
6460
6C60
7860
7060
7060
F8F8
ENDCHAR
STARTCHAR uni0439
ENCODING 1081
SWIDTH 609 0
DWIDTH 15 0
BBX 13 17 1 0
BITMAP
18C0
30C0
10C0
0F80
0000
F8F8
7060
6060
60E0
6160
6260
6460
6C60
7860
7060
7060
F8F8
ENDCHAR
STARTCHAR uni043A
ENCODING 1082
SWIDTH 521 0
DWIDTH 13 0
BBX 12 12 1 0
BITMAP
F8E0
71E0
6100
6100
6200
6200
7E00
6700
6300
6180
71C0
F8F0
ENDCHAR
STARTCHAR uni043B
ENCODING 1083
SWIDTH 553 0
DWIDTH 13 0
BBX 13 12 0 0
BITMAP
1FF8
0460
0460
0460
0C60
0860
0860
0860
0860
9060
F060
E1F0
ENDCHAR
STARTCHAR uni043C
ENCODING 1084
SWIDTH 697 0
DWIDTH 17 0
BBX 16 12 0 0
BITMAP
F80F
381C
3C1C
2C1C
2E2C
262C
264C
234C
23CC
238C
218C
F91F
ENDCHAR
STARTCHAR uni043D
ENCODING 1085
SWIDTH 605 0
DWIDTH 15 0
BBX 13 12 1 0
BITMAP
F9F8
7060
6060
6060
6060
7FE0
6060
6060
6060
6060
7060
F9F8
ENDCHAR
STARTCHAR uni043E
ENCODING 1086
SWIDTH 514 0
DWIDTH 12 0
BBX 11 12 1 0
BITMAP
1F00
6180
60C0
C0C0
C0C0
C0E0
C0E0
C0C0
C0C0
60C0
7180
1F00
ENDCHAR
STARTCHAR uni043F
ENCODING 1087
SWIDTH 591 0
DWIDTH 14 0
BBX 12 12 1 0
BITMAP
FFF0
6060
6060
6060
6060
6060
6060
6060
6060
6060
7060
F9F0
ENDCHAR
STARTCHAR uni0440
ENCODING 1088
SWIDTH 537 0
DWIDTH 13 0
BBX 11 17 1 -5
BITMAP
6780
EFC0
70C0
60E0
6060
6060
6060
6060
6060
60C0
7180
6F00
6000
6000
6000
7000
FC00
ENDCHAR
STARTCHAR uni0441
ENCODING 1089
SWIDTH 446 0
DWIDTH 11 0
BBX 9 12 1 0
BITMAP
1F00
6380
4180
C100
C000
C000
C000
C000
C080
E180
7F00
3E00
ENDCHAR
STARTCHAR uni0442
ENCODING 1090
SWIDTH 456 0
DWIDTH 11 0
BBX 11 12 0 0
BITMAP
FFE0
CC60
8C20
8C20
0C00
0C00
0C00
0C00
0C00
0C00
0E00
1F00
ENDCHAR
STARTCHAR uni0443
ENCODING 1091
SWIDTH 483 0
DWIDTH 12 0
BBX 12 17 0 -5
BITMAP
F8F0
7060
7040
30C0
3880
1880
1D80
0D00
0D00
0600
0600
0600
0400
0400
0800
F800
F000
ENDCHAR
STARTCHAR uni0444
ENCODING 1092
SWIDTH 710 0
DWIDTH 17 0
BBX 15 23 1 -5
BITMAP
0300
0700
0100
0100
0100
0100
3D78
638C
6106
C106
C106
C106
C106
C106
C106
618C
638C
3D78
0100
0100
0100
0380
07C0
ENDCHAR
STARTCHAR uni0445
ENCODING 1093
SWIDTH 479 0
DWIDTH 12 0
BBX 12 12 0 0
BITMAP
F9E0
30C0
3880
1900
0E00
0E00
0600
0B00
1180
31C0
60C0
F1F0
ENDCHAR
STARTCHAR uni0446
ENCODING 1094
SWIDTH 590 0
DWIDTH 14 0
BBX 13 16 1 -4
BITMAP
F9F0
70E0
6060
6060
6060
6060
6060
6060
6060
6060
70E0
FFF8
0018
0018
0018
0008
ENDCHAR
STARTCHAR uni0447
ENCODING 1095
SWIDTH 535 0
DWIDTH 13 0
BBX 12 12 0 0
BITMAP
F9F0
70E0
30C0
30C0
30C0
30C0
1FC0
00C0
00C0
00C0
00E0
01F0
ENDCHAR
STARTCHAR uni0448
ENCODING 1096
SWIDTH 812 0
DWIDTH 19 0
BBX 18 12 1 0
BITMAP
FBE7C0
70C300
60C300
60C300
60C300
60C300
60C300
60C300
60C300
60C300
60C300
FFFFC0
ENDCHAR
STARTCHAR uni0449
ENCODING 1097
SWIDTH 814 0
DWIDTH 20 0
BBX 18 16 1 -4
BITMAP
FBE7C0
70C300
60C300
60C300
60C300
60C300
60C300
60C300
60C300
60C300
60C300
FFFFC0
0000C0
0000C0
000040
000040
ENDCHAR
STARTCHAR uni044A
ENCODING 1098
SWIDTH 568 0
DWIDTH 14 0
BBX 13 12 0 0
BITMAP
FF00
CE00
8C00
8C00
0C00
0FE0
0C30
0C18
0C18
0C18
0C30
1FE0
ENDCHAR
STARTCHAR uni044B
ENCODING 1099
SWIDTH 728 0
DWIDTH 17 0
BBX 16 12 1 0
BITMAP
F83F
700C
600C
600C
600C
7F0C
618C
61CC
60CC
61CC
618C
FF3F
ENDCHAR
STARTCHAR uni044C
ENCODING 1100
SWIDTH 489 0
DWIDTH 12 0
BBX 10 12 1 0
BITMAP
F800
7000
6000
6000
6000
7F00
61C0
60C0
60C0
60C0
6180
FF00
ENDCHAR
STARTCHAR uni044D
ENCODING 1101
SWIDTH 467 0
DWIDTH 11 0
BBX 9 12 1 0
BITMAP
BE00
C300
8180
8180
0180
3F80
0180
0180
0180
8380
C300
3E00
ENDCHAR
STARTCHAR uni044E
ENCODING 1102
SWIDTH 774 0
DWIDTH 19 0
BBX 17 12 1 0
BITMAP
F87C00
70C600
618300
618300
638380
7F0180
630180
618380
618300
618300
70C600
F87C00
ENDCHAR
STARTCHAR uni044F
ENCODING 1103
SWIDTH 518 0
DWIDTH 12 0
BBX 12 12 0 0
BITMAP
1FF0
30C0
30C0
70C0
30C0
38C0
0FC0
0CC0
18C0
38C0
30C0
F3F0
ENDCHAR
STARTCHAR uni0450
ENCODING 1104
SWIDTH 464 0
DWIDTH 11 0
BBX 9 17 1 0
BITMAP
3800
1800
0800
0400
0000
1E00
6300
4180
C180
FF80
C000
C000
C000
E080
7080
7F00
1E00
ENDCHAR
STARTCHAR uni0451
ENCODING 1105
SWIDTH 464 0
DWIDTH 11 0
BBX 9 17 1 0
BITMAP
6100
7380
6300
0000
0000
1E00
6300
4180
C180
FF80
C000
C000
C000
E080
7080
7F00
1E00
ENDCHAR
STARTCHAR uni0452
ENCODING 1106
SWIDTH 563 0
DWIDTH 14 0
BBX 11 23 1 -5
BITMAP
6000
E000
6000
FE00
6000
6000
6380
6FC0
78C0
60E0
6060
6060
6060
6060
6060
6060
7060
F840
0040
00C0
08C0
1C80
0F00
ENDCHAR
STARTCHAR uni0453
ENCODING 1107
SWIDTH 429 0
DWIDTH 10 0
BBX 9 17 1 0
BITMAP
0E00
0C00
1800
1000
0000
FF80
6180
6080
6080
6000
6000
6000
6000
6000
6000
7000
F800
ENDCHAR
STARTCHAR uni0454
ENCODING 1108
SWIDTH 460 0
DWIDTH 11 0
BBX 9 12 1 0
BITMAP
1F00
6380
4180
C000
C000
FE00
C000
C000
C000
6080
7080
1F00
ENDCHAR
STARTCHAR uni0455
ENCODING 1109
SWIDTH 394 0
DWIDTH 9 0
BBX 8 12 1 0
BITMAP
7E
C6
C2
C2
E0
78
1E
0F
83
83
C6
FC
ENDCHAR
STARTCHAR uni0456
ENCODING 1110
SWIDTH 285 0
DWIDTH 7 0
BBX 5 16 1 0
BITMAP
70
70
20
00
E0
60
60
60
60
60
60
60
60
60
70
F8
ENDCHAR
STARTCHAR uni0457
ENCODING 1111
SWIDTH 285 0
DWIDTH 7 0
BBX 8 16 -1 0
BITMAP
66
E7
42
00
38
18
18
18
18
18
18
18
18
18
1C
3E
ENDCHAR
STARTCHAR uni0458
ENCODING 1112
SWIDTH 263 0
DWIDTH 6 0
BBX 7 21 -2 -5
BITMAP
0C
0E
04
00
1C
0C
0C
0C
0C
0C
0C
0C
0C
0C
0C
0C
0C
0C
CC
C8
F0
ENDCHAR
STARTCHAR uni0459
ENCODING 1113
SWIDTH 742 0
DWIDTH 18 0
BBX 17 12 0 0
BITMAP
1FF000
046000
046000
046000
0C6000
087E00
086380
086180
086180
906180
F06380
E1FE00
ENDCHAR
STARTCHAR uni045A
ENCODING 1114
SWIDTH 790 0
DWIDTH 19 0
BBX 18 12 1 0
BITMAP
F9F800
706000
606000
606000
606000
7FFF00
606380
606180
6061C0
606180
706380
F9FE00
ENDCHAR
STARTCHAR uni045B
ENCODING 1115
SWIDTH 579 0
DWIDTH 14 0
BBX 12 17 1 0
BITMAP
E000
6000
6000
FE00
6000
6380
6FC0
78C0
60E0
6060
6060
6060
6060
6060
6060
70E0
F9F0
ENDCHAR
STARTCHAR uni045C
ENCODING 1116
SWIDTH 521 0
DWIDTH 13 0
BBX 12 17 1 0
BITMAP
0700
0600
0C00
0800
0000
F8E0
71E0
6100
6100
6200
6200
7E00
6700
6300
6180
71C0
F8F0
ENDCHAR
STARTCHAR uni045D
ENCODING 1117
SWIDTH 609 0
DWIDTH 15 0
BBX 13 17 1 0
BITMAP
1C00
0C00
0600
0200
0000
F8F8
7060
6060
60E0
6160
6260
6460
6C60
7860
7060
7060
F8F8
ENDCHAR
STARTCHAR uni045E
ENCODING 1118
SWIDTH 483 0
DWIDTH 12 0
BBX 12 23 0 -5
BITMAP
1080
38C0
30C0
10C0
0F80
0000
F8F0
7060
7040
3040
3880
1880
1C80
0D00
0D00
0600
0600
0600
0400
0400
0800
F800
F000
ENDCHAR
STARTCHAR uni045F
ENCODING 1119
SWIDTH 587 0
DWIDTH 14 0
BBX 12 17 1 -5
BITMAP
F9F0
70E0
6060
6060
6060
6060
6060
6060
6060
6060
7060
FFF0
0200
0600
0600
0600
0600
ENDCHAR
STARTCHAR uni0462
ENCODING 1122
SWIDTH 727 0
DWIDTH 17 0
BBX 16 18 0 0
BITMAP
1FC0
0300
0300
FFFE
C306
C302
8302
0300
0300
03FC
030E
0307
0303
0303
0303
0303
030E
0FFC
ENDCHAR
STARTCHAR uni0463
ENCODING 1123
SWIDTH 561 0
DWIDTH 13 0
BBX 13 18 0 0
BITMAP
0400
1C00
0C00
0C00
0C00
0C00
FFE0
CC60
8C20
8C20
0C00
0FE0
0C30
0C18
0C18
0C18
0C30
1FE0
ENDCHAR
STARTCHAR uni046A
ENCODING 1130
SWIDTH 881 0
DWIDTH 21 0
BBX 22 16 0 0
BITMAP
0FFF80
0E0100
070300
030200
018400
01CC00
00E800
007000
03FE00
077300
0E7380
0C71C0
1C71C0
3870E0
387060
F0F87C
ENDCHAR
STARTCHAR uni046B
ENCODING 1131
SWIDTH 667 0
DWIDTH 16 0
BBX 16 12 0 0
BITMAP
1FF8
1C10
0C30
0620
0340
03C0
0FF0
1998
1998
318C
318C
E3C7
ENDCHAR
STARTCHAR uni0472
ENCODING 1138
SWIDTH 737 0
DWIDTH 18 0
BBX 15 16 1 0
BITMAP
07E0
1838
301C
600C
6006
E006
EF06
FFFE
E1F6
E006
E006
6006
700C
301C
1838
07E0
ENDCHAR
STARTCHAR uni0473
ENCODING 1139
SWIDTH 514 0
DWIDTH 12 0
BBX 11 12 1 0
BITMAP
1F00
7180
60C0
C0C0
C0C0
FCC0
C7E0
C0C0
C0C0
60C0
7180
1F00
ENDCHAR
STARTCHAR uni0474
ENCODING 1140
SWIDTH 705 0
DWIDTH 17 0
BBX 18 16 0 0
BITMAP
FC0380
7807C0
380480
380C00
180800
1C1800
0C1000
0E1000
063000
062000
072000
034000
03C000
01C000
018000
008000
ENDCHAR
STARTCHAR uni0475
ENCODING 1141
SWIDTH 520 0
DWIDTH 12 0
BBX 13 12 0 0
BITMAP
F838
7078
3048
3080
3880
1880
1900
1D00
0D00
0E00
0600
0600
ENDCHAR
STARTCHAR uni0490
ENCODING 1168
SWIDTH 525 0
DWIDTH 13 0
BBX 11 20 1 0
BITMAP
0020
0020
0020
0060
FFE0
3000
3000
3000
3000
3000
3000
3000
3000
3000
3000
3000
3000
3000
3800
FE00
ENDCHAR
STARTCHAR uni0491
ENCODING 1169
SWIDTH 404 0
DWIDTH 10 0
BBX 9 15 1 0
BITMAP
0080
0180
0180
FF80
6000
6000
6000
6000
6000
6000
6000
6000
6000
7000
F800
ENDCHAR
STARTCHAR uni1D00
ENCODING 7424
SWIDTH 511 0
DWIDTH 12 0
BBX 13 12 0 0
BITMAP
0600
0600
0B00
0B00
0B80
1180
1180
3FC0
20C0
60E0
40E0
F1F8
ENDCHAR
STARTCHAR uni1D07
ENCODING 7431
SWIDTH 495 0
DWIDTH 12 0
BBX 10 12 1 0
BITMAP
FF80
6080
6040
6000
6100
6100
7F00
6100
6040
6040
60C0
FFC0
ENDCHAR
STARTCHAR uni1D1C
ENCODING 7452
SWIDTH 584 0
DWIDTH 14 0
BBX 14 12 0 0
BITMAP
FC7C
3030
3010
3010
3010
3010
3010
3010
3010
3010
1820
0FC0
ENDCHAR
STARTCHAR uni1D81
ENCODING 7553
SWIDTH 539 0
DWIDTH 13 0
BBX 11 22 1 -5
BITMAP
01C0
03C0
00C0
00C0
00C0
1EC0
21C0
41C0
C0C0
C0C0
C0C0
C0C0
C0C0
C0C0
E1C0
7EC0
3CE0
0020
0020
0020
0320
01C0
ENDCHAR
STARTCHAR uni1D84
ENCODING 7556
SWIDTH 542 0
DWIDTH 13 0
BBX 12 22 1 -5
BITMAP
E000
6000
6000
6000
6000
63E0
6180
6300
6600
6C00
7C00
6E00
6700
6300
6180
71C0
F9F0
0010
0010
0010
01B0
01E0
ENDCHAR
STARTCHAR uni1D85
ENCODING 7557
SWIDTH 283 0
DWIDTH 7 0
BBX 5 22 1 -5
BITMAP
60
E0
60
60
60
60
60
60
60
60
60
60
60
60
60
70
F8
08
08
08
C8
70
ENDCHAR
STARTCHAR uni1D8A
ENCODING 7562
SWIDTH 395 0
DWIDTH 9 0
BBX 8 17 1 -5
BITMAP
7E
C6
C2
C2
E0
78
1E
0F
83
83
C6
FE
02
02
02
32
1C
ENDCHAR
STARTCHAR uni1D8D
ENCODING 7565
SWIDTH 479 0
DWIDTH 12 0
BBX 12 17 0 -5
BITMAP
F9E0
30C0
3880
1900
0E00
0E00
0600
0B00
1180
31C0
60C0
F1F0
0010
0010
0020
0320
01C0
ENDCHAR
STARTCHAR uni1D8E
ENCODING 7566
SWIDTH 458 0
DWIDTH 11 0
BBX 9 17 1 -5
BITMAP
FF80
C380
8700
8600
0E00
0C00
1800
3800
3080
6080
E180
FF80
0080
0080
0080
0D80
0F00
ENDCHAR
STARTCHAR uni1D98
ENCODING 7576
SWIDTH 368 0
DWIDTH 9 0
BBX 11 23 0 -5
BITMAP
01E0
0260
0620
0600
0600
0600
0600
0600
0600
0600
0600
0600
0600
0600
0600
4600
E400
F800
8000
8000
8800
5800
3800
ENDCHAR
STARTCHAR uni1D9B
ENCODING 7579
SWIDTH 462 0
DWIDTH 11 0
BBX 10 10 0 6
BITMAP
EF00
3180
20C0
20C0
20C0
20C0
20C0
20C0
3180
3F00
ENDCHAR
STARTCHAR uni1DA3
ENCODING 7587
SWIDTH 488 0
DWIDTH 12 0
BBX 10 14 1 2
BITMAP
F7C0
6180
6180
6180
6180
6180
6180
6180
6380
3D80
0180
0180
0180
01C0
ENDCHAR
STARTCHAR uni1E00
ENCODING 7680
SWIDTH 718 0
DWIDTH 17 0
BBX 17 22 0 -6
BITMAP
008000
01C000
01C000
03E000
026000
026000
067000
043000
0C3800
083800
0FFC00
181C00
100C00
300E00
300F00
F81F80
000000
01C000
024000
026000
024000
01C000
ENDCHAR
STARTCHAR uni1E01
ENCODING 7681
SWIDTH 480 0
DWIDTH 12 0
BBX 10 18 1 -6
BITMAP
3E00
6300
C300
C300
0300
0700
3B00
6300
C300
C300
C740
79C0
0000
1C00
2200
2200
2200
1C00
ENDCHAR
STARTCHAR uni1E02
ENCODING 7682
SWIDTH 618 0
DWIDTH 15 0
BBX 13 20 1 0
BITMAP
0600
0600
0600
0000
FFC0
3060
3030
3030
3030
3030
3060
3F80
3060
3030
3038
3038
3038
3038
3070
FFC0
ENDCHAR
STARTCHAR uni1E03
ENCODING 7683
SWIDTH 522 0
DWIDTH 13 0
BBX 12 21 0 0
BITMAP
0600
0600
0600
0000
7000
F000
3000
3000
3000
33C0
37E0
38E0
3060
3070
3070
3070
3060
3060
3060
30C0
1F00
ENDCHAR
STARTCHAR uni1E04
ENCODING 7684
SWIDTH 618 0
DWIDTH 15 0
BBX 13 20 1 -4
BITMAP
FFC0
3060
3030
3030
3030
3030
3060
3F80
3060
3030
3038
3038
3038
3038
3070
FFC0
0000
0600
0600
0600
ENDCHAR
STARTCHAR uni1E05
ENCODING 7685
SWIDTH 522 0
DWIDTH 13 0
BBX 12 21 0 -4
BITMAP
7000
F000
3000
3000
3000
33C0
37E0
38E0
3060
3070
3070
3070
3060
3060
3060
30C0
1F00
0000
0600
0600
0600
ENDCHAR
STARTCHAR uni1E06
ENCODING 7686
SWIDTH 618 0
DWIDTH 15 0
BBX 13 19 1 -3
BITMAP
FFC0
3060
3030
3030
3030
3030
3060
3F80
3060
3030
3038
3038
3038
3038
3070
FFC0
0000
0000
1FC0
ENDCHAR
STARTCHAR uni1E07
ENCODING 7687
SWIDTH 522 0
DWIDTH 13 0
BBX 12 20 0 -3
BITMAP
7000
F000
3000
3000
3000
33C0
37E0
38E0
3060
3070
3070
3070
3060
3060
3060
30C0
1F00
0000
0000
1FC0
ENDCHAR
STARTCHAR uni1E08
ENCODING 7688
SWIDTH 670 0
DWIDTH 16 0
BBX 14 25 1 -5
BITMAP
00E0
0180
0300
0000
07E4
1C3C
301C
700C
600C
E004
E000
E000
E000
E000
E000
6000
7000
3004
1C18
07E0
0200
0380
00C0
00C0
0780
ENDCHAR
STARTCHAR uni1E09
ENCODING 7689
SWIDTH 446 0
DWIDTH 11 0
BBX 9 22 1 -5
BITMAP
0600
0E00
0C00
1800
0000
1F00
6380
4180
C100
C000
C000
C000
C000
C080
E180
7F00
3E00
0800
0E00
0200
0200
1C00
ENDCHAR
STARTCHAR uni1E0A
ENCODING 7690
SWIDTH 730 0
DWIDTH 18 0
BBX 15 20 1 0
BITMAP
0300
0380
0300
0000
FFC0
3070
301C
300C
300E
300E
3006
3006
3006
3006
3006
300E
300C
301C
3070
FFC0
ENDCHAR
STARTCHAR uni1E0B
ENCODING 7691
SWIDTH 539 0
DWIDTH 13 0
BBX 11 21 1 0
BITMAP
0400
0E00
0C00
0000
01C0
03C0
00C0
00C0
00C0
1EC0
21C0
41C0
C0C0
C0C0
C0C0
C0C0
C0C0
C0C0
E1C0
7EC0
3CE0
ENDCHAR
STARTCHAR uni1E0C
ENCODING 7692
SWIDTH 730 0
DWIDTH 18 0
BBX 15 20 1 -4
BITMAP
FFC0
3070
301C
300C
300E
300E
3006
3006
3006
3006
3006
300E
300C
301C
3070
FFC0
0000
0300
0700
0300
ENDCHAR
STARTCHAR uni1E0D
ENCODING 7693
SWIDTH 539 0
DWIDTH 13 0
BBX 11 21 1 -4
BITMAP
01C0
03C0
00C0
00C0
00C0
1EC0
21C0
41C0
C0C0
C0C0
C0C0
C0C0
C0C0
C0C0
E1C0
7EC0
3CE0
0000
0400
0E00
0C00
ENDCHAR
STARTCHAR uni1E0E
ENCODING 7694
SWIDTH 730 0
DWIDTH 18 0
BBX 15 19 1 -3
BITMAP
FFC0
3070
301C
300C
300E
300E
3006
3006
3006
3006
3006
300E
300C
301C
3070
FFC0
0000
0000
1FC0
ENDCHAR
STARTCHAR uni1E0F
ENCODING 7695
SWIDTH 539 0
DWIDTH 13 0
BBX 11 20 1 -3
BITMAP
01C0
03C0
00C0
00C0
00C0
1EC0
21C0
41C0
C0C0
C0C0
C0C0
C0C0
C0C0
C0C0
E1C0
7EC0
3CE0
0000
0000
3F80
ENDCHAR
STARTCHAR uni1E10
ENCODING 7696
SWIDTH 730 0
DWIDTH 18 0
BBX 15 23 1 -7
BITMAP
FFC0
3070
301C
300C
300E
300E
3006
3006
3006
3006
3006
300E
300C
301C
3070
FFC0
0000
0300
0700
0700
0100
0300
0400
ENDCHAR
STARTCHAR uni1E11
ENCODING 7697
SWIDTH 539 0
DWIDTH 13 0
BBX 11 24 1 -7
BITMAP
01C0
03C0
00C0
00C0
00C0
1EC0
21C0
41C0
C0C0
C0C0
C0C0
C0C0
C0C0
C0C0
E1C0
7EC0
3CE0
0000
0400
0E00
0E00
0200
0400
0800
ENDCHAR
STARTCHAR uni1E12
ENCODING 7698
SWIDTH 730 0
DWIDTH 18 0
BBX 15 21 1 -5
BITMAP
FFC0
3070
301C
300C
300E
300E
3006
3006
3006
3006
3006
300E
300C
301C
3070
FFC0
0000
0300
0700
0C80
1840
ENDCHAR
STARTCHAR uni1E13
ENCODING 7699
SWIDTH 539 0
DWIDTH 13 0
BBX 11 22 1 -5
BITMAP
01C0
03C0
00C0
00C0
00C0
1EC0
21C0
41C0
C0C0
C0C0
C0C0
C0C0
C0C0
C0C0
E1C0
7EC0
3CE0
0000
0E00
0E00
1300
2180
ENDCHAR
STARTCHAR uni1E14
ENCODING 7700
SWIDTH 626 0
DWIDTH 15 0
BBX 13 23 1 0
BITMAP
0E00
0300
0180
0000
1FC0
0000
0000
FFF0
3018
3008
3000
3020
3020
3060
3FE0
3020
3020
3000
3008
3008
3008
3018
FFF8
ENDCHAR
STARTCHAR uni1E15
ENCODING 7701
SWIDTH 464 0
DWIDTH 11 0
BBX 9 20 1 0
BITMAP
3800
1800
0800
0400
0000
7F00
0000
0000
1E00
6300
4180
C180
FF80
C000
C000
C000
E080
7080
7F00
1E00
ENDCHAR
STARTCHAR uni1E16
ENCODING 7702
SWIDTH 626 0
DWIDTH 15 0
BBX 13 23 1 0
BITMAP
0380
0300
0C00
0000
1FC0
0000
0000
FFF0
3018
3008
3000
3020
3020
3060
3FE0
3020
3020
3000
3008
3008
3008
3018
FFF8
ENDCHAR
STARTCHAR uni1E17
ENCODING 7703
SWIDTH 464 0
DWIDTH 11 0
BBX 9 20 1 0
BITMAP
0600
0600
0C00
0800
0000
7F00
0000
0000
1E00
6300
4180
C180
FF80
C000
C000
C000
E080
7080
7F00
1E00
ENDCHAR
STARTCHAR uni1E18
ENCODING 7704
SWIDTH 626 0
DWIDTH 15 0
BBX 13 21 1 -5
BITMAP
FFF0
3018
3008
3000
3020
3020
3060
3FE0
3020
3020
3000
3008
3008
3008
3018
FFF8
0000
0300
0700
0C80
1840
ENDCHAR
STARTCHAR uni1E19
ENCODING 7705
SWIDTH 464 0
DWIDTH 11 0
BBX 9 17 1 -5
BITMAP
1E00
6300
4180
C180
FF80
C000
C000
C000
E080
7080
7F00
1E00
0000
0C00
1E00
3200
6100
ENDCHAR
STARTCHAR uni1E1A
ENCODING 7706
SWIDTH 626 0
DWIDTH 15 0
BBX 13 20 1 -4
BITMAP
FFF0
3018
3008
3000
3020
3020
3060
3FE0
3020
3020
3000
3008
3008
3008
3018
FFF8
0000
0C20
1E40
1380
ENDCHAR
STARTCHAR uni1E1B
ENCODING 7707
SWIDTH 464 0
DWIDTH 11 0
BBX 9 16 1 -4
BITMAP
1E00
6300
4180
C180
FF80
C000
C000
C000
E080
7080
7F00
1E00
0000
3080
7900
4E00
ENDCHAR
STARTCHAR uni1E1C
ENCODING 7708
SWIDTH 626 0
DWIDTH 15 0
BBX 13 27 1 -5
BITMAP
1040
1840
0FC0
0780
0000
0000
FFF0
3018
3008
3000
3020
3020
3060
3FE0
3020
3020
3000
3008
3008
3008
3018
FFF8
0200
0300
0080
0080
0700
ENDCHAR
STARTCHAR uni1E1D
ENCODING 7709
SWIDTH 464 0
DWIDTH 11 0
BBX 9 22 1 -5
BITMAP
4100
6100
3F00
1E00
0000
1E00
6300
4180
C180
FF80
C000
C000
C000
E080
7080
7F00
1E00
0800
0C00
0200
0200
1C00
ENDCHAR
STARTCHAR uni1E1E
ENCODING 7710
SWIDTH 588 0
DWIDTH 14 0
BBX 13 20 1 0
BITMAP
0300
0700
0300
0000
FFF8
3018
3008
3000
3020
3020
3060
3FE0
3060
3020
3000
3000
3000
3000
3800
FE00
ENDCHAR
STARTCHAR uni1E1F
ENCODING 7711
SWIDTH 307 0
DWIDTH 7 0
BBX 9 21 0 0
BITMAP
1000
3800
1800
0F00
1980
1180
1000
3000
3000
7E00
3000
3000
3000
3000
3000
3000
3000
3000
3000
3800
FE00
ENDCHAR
STARTCHAR uni1E20
ENCODING 7712
SWIDTH 720 0
DWIDTH 17 0
BBX 15 19 1 0
BITMAP
0FF0
0000
0000
07E4
1C3C
300C
700C
600C
E004
E000
E000
E03E
E01C
E00C
600C
700C
300C
1C1C
07F0
ENDCHAR
STARTCHAR uni1E21
ENCODING 7713
SWIDTH 484 0
DWIDTH 12 0
BBX 11 20 0 -5
BITMAP
3F80
0000
0000
1FE0
3180
60C0
60C0
70C0
7180
3F00
1000
2000
6000
7FC0
3FE0
2060
4020
E020
60C0
3F00
ENDCHAR
STARTCHAR uni1E22
ENCODING 7714
SWIDTH 777 0
DWIDTH 19 0
BBX 17 20 1 0
BITMAP
018000
01C000
018000
000000
FE3F80
380E00
300C00
300C00
300C00
300C00
300C00
3FFC00
300C00
300C00
300C00
300C00
300C00
300C00
380E00
FE3F80
ENDCHAR
STARTCHAR uni1E23
ENCODING 7715
SWIDTH 577 0
DWIDTH 14 0
BBX 12 21 1 0
BITMAP
0600
0600
0600
0000
E000
6000
6000
6000
6000
6380
6FC0
70C0
60E0
6060
6060
6060
6060
6060
6060
70E0
F9F0
ENDCHAR
STARTCHAR uni1E24
ENCODING 7716
SWIDTH 777 0
DWIDTH 19 0
BBX 17 20 1 -4
BITMAP
FE3F80
380E00
300C00
300C00
300C00
300C00
300C00
3FFC00
300C00
300C00
300C00
300C00
300C00
300C00
380E00
FE3F80
000000
008000
01C000
018000
ENDCHAR
STARTCHAR uni1E25
ENCODING 7717
SWIDTH 577 0
DWIDTH 14 0
BBX 12 21 1 -4
BITMAP
E000
6000
6000
6000
6000
6380
6FC0
70C0
60E0
6060
6060
6060
6060
6060
6060
70E0
F9F0
0000
0600
0600
0600
ENDCHAR
STARTCHAR uni1E26
ENCODING 7718
SWIDTH 777 0
DWIDTH 19 0
BBX 17 20 1 0
BITMAP
043000
0E3000
063000
000000
FE3F80
380E00
300C00
300C00
300C00
300C00
300C00
3FFC00
300C00
300C00
300C00
300C00
300C00
300C00
380E00
FE3F80
ENDCHAR
STARTCHAR uni1E27
ENCODING 7719
SWIDTH 577 0
DWIDTH 14 0
BBX 12 21 1 0
BITMAP
1080
39C0
30C0
0000
E000
6000
6000
6000
6000
6380
6FC0
70C0
60E0
6060
6060
6060
6060
6060
6060
70E0
F9F0
ENDCHAR
STARTCHAR uni1E28
ENCODING 7720
SWIDTH 777 0
DWIDTH 19 0
BBX 17 21 1 -5
BITMAP
FE3F80
380E00
300C00
300C00
300C00
300C00
300C00
3FFC00
300C00
300C00
300C00
300C00
300C00
300C00
380E00
FE3F80
200000
380000
0C0000
080000
780000
ENDCHAR
STARTCHAR uni1E29
ENCODING 7721
SWIDTH 577 0
DWIDTH 14 0
BBX 12 22 1 -5
BITMAP
E000
6000
6000
6000
6000
6380
6FC0
70C0
60E0
6060
6060
6060
6060
6060
6060
70E0
F9F0
4000
7000
1800
1800
F000
ENDCHAR
STARTCHAR uni1E2A
ENCODING 7722
SWIDTH 777 0
DWIDTH 19 0
BBX 17 21 1 -5
BITMAP
FE3F80
380E00
300C00
300C00
300C00
300C00
300C00
3FFC00
300C00
300C00
300C00
300C00
300C00
300C00
380E00
FE3F80
000000
041000
043000
07E000
03C000
ENDCHAR
STARTCHAR uni1E2B
ENCODING 7723
SWIDTH 577 0
DWIDTH 14 0
BBX 12 22 1 -5
BITMAP
E000
6000
6000
6000
6000
6380
6FC0
70C0
60E0
6060
6060
6060
6060
6060
6060
70E0
F9F0
0000
2040
1080
1F80
0F00
ENDCHAR
STARTCHAR uni1E2C
ENCODING 7724
SWIDTH 357 0
DWIDTH 9 0
BBX 8 20 0 -4
BITMAP
7F
1C
18
18
18
18
18
18
18
18
18
18
18
18
1C
7F
00
31
79
8E
ENDCHAR
STARTCHAR uni1E2D
ENCODING 7725
SWIDTH 285 0
DWIDTH 7 0
BBX 8 20 -1 -4
BITMAP
1C
1C
08
00
38
18
18
18
18
18
18
18
18
18
1C
3E
00
31
79
8E
ENDCHAR
STARTCHAR uni1E2E
ENCODING 7726
SWIDTH 357 0
DWIDTH 9 0
BBX 8 23 0 0
BITMAP
0E
18
30
43
E3
63
00
7F
1C
18
18
18
18
18
18
18
18
18
18
18
18
1C
7F
ENDCHAR
STARTCHAR uni1E2F
ENCODING 7727
SWIDTH 285 0
DWIDTH 7 0
BBX 8 21 -1 0
BITMAP
0E
0C
18
10
00
66
E7
42
00
38
18
18
18
18
18
18
18
18
18
1C
3E
ENDCHAR
STARTCHAR uni1E30
ENCODING 7728
SWIDTH 702 0
DWIDTH 17 0
BBX 16 20 1 0
BITMAP
01C0
0380
0600
0000
FE7E
3838
3030
3060
3080
3100
3200
3400
3E00
3380
31C0
30E0
3070
3038
383C
FE7F
ENDCHAR
STARTCHAR uni1E31
ENCODING 7729
SWIDTH 542 0
DWIDTH 13 0
BBX 12 21 1 0
BITMAP
0700
0600
1800
0000
E000
6000
6000
6000
6000
63E0
6180
6300
6600
6C00
7C00
6E00
6700
6300
6180
71C0
F9F0
ENDCHAR
STARTCHAR uni1E32
ENCODING 7730
SWIDTH 702 0
DWIDTH 17 0
BBX 16 20 1 -4
BITMAP
FE7E
3838
3030
3060
3080
3100
3200
3400
3E00
3380
31C0
30E0
3070
3038
383C
FE7F
0000
0100
0380
0380
ENDCHAR
STARTCHAR uni1E33
ENCODING 7731
SWIDTH 542 0
DWIDTH 13 0
BBX 12 21 1 -4
BITMAP
E000
6000
6000
6000
6000
63E0
6180
6300
6600
6C00
7C00
6E00
6700
6300
6180
71C0
F9F0
0000
0400
0E00
0600
ENDCHAR
STARTCHAR uni1E34
ENCODING 7732
SWIDTH 702 0
DWIDTH 17 0
BBX 16 19 1 -3
BITMAP
FE7E
3838
3030
3060
3080
3100
3200
3400
3E00
3380
31C0
30E0
3070
3038
383C
FE7F
0000
0000
0FE0
ENDCHAR
STARTCHAR uni1E35
ENCODING 7733
SWIDTH 542 0
DWIDTH 13 0
BBX 12 20 1 -3
BITMAP
E000
6000
6000
6000
6000
63E0
6180
6300
6600
6C00
7C00
6E00
6700
6300
6180
71C0
F9F0
0000
0000
3F80
ENDCHAR
STARTCHAR uni1E36
ENCODING 7734
SWIDTH 585 0
DWIDTH 14 0
BBX 13 20 1 -4
BITMAP
FE00
3800
3800
3000
3000
3000
3000
3000
3000
3000
3000
3008
3010
3010
3830
FFF0
0000
0600
0600
0600
ENDCHAR
STARTCHAR uni1E37
ENCODING 7735
SWIDTH 283 0
DWIDTH 7 0
BBX 5 21 1 -4
BITMAP
60
E0
60
60
60
60
60
60
60
60
60
60
60
60
60
70
F8
00
20
70
60
ENDCHAR
STARTCHAR uni1E38
ENCODING 7736
SWIDTH 585 0
DWIDTH 14 0
BBX 13 23 1 -4
BITMAP
FE00
0000
0000
FE00
3800
3800
3000
3000
3000
3000
3000
3000
3000
3000
3008
3010
3010
3830
FFF0
0000
0600
0600
0600
ENDCHAR
STARTCHAR uni1E39
ENCODING 7737
SWIDTH 283 0
DWIDTH 7 0
BBX 7 24 0 -4
BITMAP
FE
00
00
30
70
30
30
30
30
30
30
30
30
30
30
30
30
30
38
7C
00
10
38
30
ENDCHAR
STARTCHAR uni1E3A
ENCODING 7738
SWIDTH 585 0
DWIDTH 14 0
BBX 13 19 1 -3
BITMAP
FE00
3800
3800
3000
3000
3000
3000
3000
3000
3000
3000
3008
3010
3010
3830
FFF0
0000
0000
3F80
ENDCHAR
STARTCHAR uni1E3B
ENCODING 7739
SWIDTH 283 0
DWIDTH 7 0
BBX 7 20 0 -3
BITMAP
30
70
30
30
30
30
30
30
30
30
30
30
30
30
30
38
7C
00
00
FE
ENDCHAR
STARTCHAR uni1E3C
ENCODING 7740
SWIDTH 585 0
DWIDTH 14 0
BBX 13 21 1 -5
BITMAP
FE00
3800
3800
3000
3000
3000
3000
3000
3000
3000
3000
3008
3010
3010
3830
FFF0
0000
0600
0F00
0900
1080
ENDCHAR
STARTCHAR uni1E3D
ENCODING 7741
SWIDTH 283 0
DWIDTH 7 0
BBX 7 22 0 -5
BITMAP
30
70
30
30
30
30
30
30
30
30
30
30
30
30
30
38
7C
00
30
38
4C
86
ENDCHAR
STARTCHAR uni1E3E
ENCODING 7742
SWIDTH 895 0
DWIDTH 21 0
BBX 19 20 1 0
BITMAP
007000
00E000
018000
000000
F801E0
3803C0
3C0380
3C0780
2C0580
2E0580
260D80
270980
231980
239180
21B180
21A180
21E180
20E180
20C1C0
F847E0
ENDCHAR
STARTCHAR uni1E3F
ENCODING 7743
SWIDTH 852 0
DWIDTH 20 0
BBX 19 17 1 0
BITMAP
007000
006000
004000
008000
000000
E78F00
68F180
70E180
60C180
60C180
60C180
60C180
60C180
60C180
60C180
70E180
F9F7E0
ENDCHAR
STARTCHAR uni1E40
ENCODING 7744
SWIDTH 895 0
DWIDTH 21 0
BBX 19 20 1 0
BITMAP
004000
00E000
00E000
000000
F801E0
3803C0
3C0380
3C0780
2C0580
2E0580
260D80
270980
231980
239180
21B180
21A180
21E180
20E180
20C1C0
F847E0
ENDCHAR
STARTCHAR uni1E41
ENCODING 7745
SWIDTH 852 0
DWIDTH 20 0
BBX 19 17 1 0
BITMAP
004000
00E000
00C000
000000
000000
E78F00
68F180
70E180
60C180
60C180
60C180
60C180
60C180
60C180
60C180
70E180
F9F7E0
ENDCHAR
STARTCHAR uni1E42
ENCODING 7746
SWIDTH 895 0
DWIDTH 21 0
BBX 19 20 1 -4
BITMAP
F801E0
3803C0
3C0380
3C0780
2C0580
2E0580
260D80
270980
231980
239180
21B180
21A180
21E180
20E180
20C1C0
F847E0
000000
00C000
00E000
00C000
ENDCHAR
STARTCHAR uni1E43
ENCODING 7747
SWIDTH 852 0
DWIDTH 20 0
BBX 19 16 1 -4
BITMAP
E78F00
68F180
70E180
60C180
60C180
60C180
60C180
60C180
60C180
60C180
70E180
F9F7E0
000000
004000
00E000
00C000
ENDCHAR
STARTCHAR uni1E44
ENCODING 7748
SWIDTH 742 0
DWIDTH 18 0
BBX 16 20 1 0
BITMAP
0180
0180
0180
0000
F03F
780E
3C04
3C04
2E04
2704
2384
2384
21C4
20E4
2074
203C
203C
201C
200C
F804
ENDCHAR
STARTCHAR uni1E45
ENCODING 7749
SWIDTH 576 0
DWIDTH 14 0
BBX 12 17 1 0
BITMAP
0600
0700
0600
0000
0000
E780
68C0
70C0
60E0
6060
6060
6060
6060
6060
6060
70E0
F9F0
ENDCHAR
STARTCHAR uni1E46
ENCODING 7750
SWIDTH 742 0
DWIDTH 18 0
BBX 16 20 1 -4
BITMAP
F03F
780E
3C04
3C04
2E04
2704
2384
2384
21C4
20E4
2074
203C
203C
201C
200C
F804
0000
0100
0380
0180
ENDCHAR
STARTCHAR uni1E47
ENCODING 7751
SWIDTH 576 0
DWIDTH 14 0
BBX 12 16 1 -4
BITMAP
E780
68C0
70C0
60E0
6060
6060
6060
6060
6060
6060
70E0
F9F0
0000
0600
0600
0600
ENDCHAR
STARTCHAR uni1E48
ENCODING 7752
SWIDTH 742 0
DWIDTH 18 0
BBX 16 19 1 -3
BITMAP
F03F
780E
3C04
3C04
2E04
2704
2384
2384
21C4
20E4
2074
203C
203C
201C
200C
F804
0000
0000
0FE0
ENDCHAR
STARTCHAR uni1E49
ENCODING 7753
SWIDTH 576 0
DWIDTH 14 0
BBX 12 15 1 -3
BITMAP
E780
68C0
70C0
60E0
6060
6060
6060
6060
6060
6060
70E0
F9F0
0000
0000
3F80
ENDCHAR
STARTCHAR uni1E4A
ENCODING 7754
SWIDTH 742 0
DWIDTH 18 0
BBX 16 21 1 -5
BITMAP
F03F
780E
3C04
3C04
2E04
2704
2384
2384
21C4
20E4
2074
203C
203C
201C
200C
F804
0000
0380
0380
0640
0C20
ENDCHAR
STARTCHAR uni1E4B
ENCODING 7755
SWIDTH 576 0
DWIDTH 14 0
BBX 12 17 1 -5
BITMAP
E780
68C0
70C0
60E0
6060
6060
6060
6060
6060
6060
70E0
F9F0
0000
0600
0F00
0900
1080
ENDCHAR
STARTCHAR uni1E4C
ENCODING 7756
SWIDTH 738 0
DWIDTH 18 0
BBX 16 23 1 0
BITMAP
00C0
0180
0610
0790
08E0
0000
0000
07E0
1C38
301C
700C
600E
E006
E006
E007
E007
E006
E006
600E
700C
300C
1C38
07E0
ENDCHAR
STARTCHAR uni1E4D
ENCODING 7757
SWIDTH 514 0
DWIDTH 12 0
BBX 11 21 1 0
BITMAP
0700
0600
0400
0800
0000
1880
3C80
4700
0000
1F00
6180
60C0
C0C0
C0C0
C0E0
C0E0
C0C0
C0C0
60C0
7180
1F00
ENDCHAR
STARTCHAR uni1E4E
ENCODING 7758
SWIDTH 738 0
DWIDTH 18 0
BBX 16 23 1 0
BITMAP
0C20
0E70
0E70
0790
08E0
0000
0000
07E0
1C38
301C
700C
600E
E006
E006
E007
E007
E006
E006
600E
700C
300C
1C38
07E0
ENDCHAR
STARTCHAR uni1E4F
ENCODING 7759
SWIDTH 514 0
DWIDTH 12 0
BBX 11 20 1 0
BITMAP
3180
7180
3180
0000
1880
3C80
4700
0000
1F00
6180
60C0
C0C0
C0C0
C0E0
C0E0
C0C0
C0C0
60C0
7180
1F00
ENDCHAR
STARTCHAR uni1E50
ENCODING 7760
SWIDTH 738 0
DWIDTH 18 0
BBX 16 23 1 0
BITMAP
0700
0180
00C0
0000
0FE0
0000
0000
07E0
1C38
301C
700C
600E
E006
E006
E007
E007
E006
E006
600E
700C
300C
1C38
07E0
ENDCHAR
STARTCHAR uni1E51
ENCODING 7761
SWIDTH 514 0
DWIDTH 12 0
BBX 11 20 1 0
BITMAP
1800
0C00
0C00
0600
0000
3F80
0000
0000
1F00
6180
60C0
C0C0
C0C0
C0E0
C0E0
C0C0
C0C0
60C0
7180
1F00
ENDCHAR
STARTCHAR uni1E52
ENCODING 7762
SWIDTH 738 0
DWIDTH 18 0
BBX 16 23 1 0
BITMAP
00C0
0180
0200
0000
0FE0
0000
0000
07E0
1C38
301C
700C
600E
E006
E006
E007
E007
E006
E006
600E
700C
300C
1C38
07E0
ENDCHAR
STARTCHAR uni1E53
ENCODING 7763
SWIDTH 514 0
DWIDTH 12 0
BBX 11 20 1 0
BITMAP
0700
0600
0400
0800
0000
3F80
0000
0000
1F00
6180
60C0
C0C0
C0C0
C0E0
C0E0
C0C0
C0C0
60C0
7180
1F00
ENDCHAR
STARTCHAR uni1E54
ENCODING 7764
SWIDTH 569 0
DWIDTH 14 0
BBX 12 20 1 0
BITMAP
0380
0600
0C00
0000
FFC0
30E0
3070
3030
3030
3030
3060
30E0
3F80
3000
3000
3000
3000
3000
3800
FE00
ENDCHAR
STARTCHAR uni1E55
ENCODING 7765
SWIDTH 537 0
DWIDTH 13 0
BBX 11 22 1 -5
BITMAP
0300
0600
0400
0C00
0000
6780
EFC0
70C0
60E0
6060
6060
6060
6060
6060
60C0
7180
6F00
6000
6000
6000
7000
FC00
ENDCHAR
STARTCHAR uni1E56
ENCODING 7766
SWIDTH 569 0
DWIDTH 14 0
BBX 12 20 1 0
BITMAP
0600
0600
0600
0000
FFC0
30E0
3070
3030
3030
3030
3060
30E0
3F80
3000
3000
3000
3000
3000
3800
FE00
ENDCHAR
STARTCHAR uni1E57
ENCODING 7767
SWIDTH 537 0
DWIDTH 13 0
BBX 11 22 1 -5
BITMAP
0400
0E00
0E00
0000
0000
6780
EFC0
70C0
60E0
6060
6060
6060
6060
6060
60C0
7180
6F00
6000
6000
6000
7000
FC00
ENDCHAR
STARTCHAR uni1E58
ENCODING 7768
SWIDTH 659 0
DWIDTH 16 0
BBX 15 20 1 0
BITMAP
0200
0700
0700
0000
FF80
30E0
3070
3030
3030
3030
3060
30E0
3F00
3380
31C0
30E0
3060
3070
3838
FE1E
ENDCHAR
STARTCHAR uni1E59
ENCODING 7769
SWIDTH 380 0
DWIDTH 9 0
BBX 8 17 1 0
BITMAP
10
38
18
00
00
67
EF
6B
70
60
60
60
60
60
60
70
FC
ENDCHAR
STARTCHAR uni1E5A
ENCODING 7770
SWIDTH 659 0
DWIDTH 16 0
BBX 15 20 1 -4
BITMAP
FF80
30E0
3070
3030
3030
3030
3060
30E0
3F00
3380
31C0
30E0
3060
3070
3838
FE1E
0000
0300
0300
0300
ENDCHAR
STARTCHAR uni1E5B
ENCODING 7771
SWIDTH 380 0
DWIDTH 9 0
BBX 8 16 1 -4
BITMAP
67
EF
6B
70
60
60
60
60
60
60
70
FC
00
20
70
30
ENDCHAR
STARTCHAR uni1E5C
ENCODING 7772
SWIDTH 659 0
DWIDTH 16 0
BBX 15 23 1 -4
BITMAP
1FC0
0000
0000
FF80
30E0
3070
3030
3030
3030
3060
30E0
3F00
3380
31C0
30E0
3060
3070
3838
FE1E
0000
0300
0300
0300
ENDCHAR
STARTCHAR uni1E5D
ENCODING 7773
SWIDTH 380 0
DWIDTH 9 0
BBX 8 19 1 -4
BITMAP
FE
00
00
67
EF
6B
70
60
60
60
60
60
60
70
FC
00
20
70
30
ENDCHAR
STARTCHAR uni1E5E
ENCODING 7774
SWIDTH 659 0
DWIDTH 16 0
BBX 15 19 1 -3
BITMAP
FF80
30E0
3070
3030
3030
3030
3060
30E0
3F00
3380
31C0
30E0
3060
3070
3838
FE1E
0000
0000
1FC0
ENDCHAR
STARTCHAR uni1E5F
ENCODING 7775
SWIDTH 380 0
DWIDTH 9 0
BBX 9 15 0 -3
BITMAP
3380
7780
3580
3800
3000
3000
3000
3000
3000
3000
3800
7E00
0000
0000
FE00
ENDCHAR
STARTCHAR uni1E60
ENCODING 7776
SWIDTH 504 0
DWIDTH 12 0
BBX 10 20 1 0
BITMAP
0C00
0C00
0C00
0000
3F80
6180
C080
C0C0
E040
F000
7800
3E00
0F80
03C0
01C0
80C0
80C0
C0C0
E180
FF00
ENDCHAR
STARTCHAR uni1E61
ENCODING 7777
SWIDTH 394 0
DWIDTH 9 0
BBX 8 17 1 0
BITMAP
18
38
18
00
00
7E
C6
C2
C2
E0
78
1E
0F
83
83
C6
FC
ENDCHAR
STARTCHAR uni1E62
ENCODING 7778
SWIDTH 504 0
DWIDTH 12 0
BBX 10 20 1 -4
BITMAP
3F80
6180
C080
C0C0
E040
F000
7800
3E00
0F80
03C0
01C0
80C0
80C0
C0C0
E180
FF00
0000
0C00
0C00
0C00
ENDCHAR
STARTCHAR uni1E63
ENCODING 7779
SWIDTH 394 0
DWIDTH 9 0
BBX 8 16 1 -4
BITMAP
7E
C6
C2
C2
E0
78
1E
0F
83
83
C6
FC
00
10
38
18
ENDCHAR
STARTCHAR uni1E64
ENCODING 7780
SWIDTH 504 0
DWIDTH 12 0
BBX 10 21 1 0
BITMAP
1000
3380
1600
0C00
0000
3F80
6180
C080
C0C0
E040
F000
7800
3E00
0F80
03C0
01C0
80C0
80C0
C0C0
E180
FF00
ENDCHAR
STARTCHAR uni1E65
ENCODING 7781
SWIDTH 394 0
DWIDTH 9 0
BBX 8 18 1 0
BITMAP
60
7E
2C
18
10
00
7E
C6
C2
C2
E0
78
1E
0F
83
83
C6
FC
ENDCHAR
STARTCHAR uni1E66
ENCODING 7782
SWIDTH 504 0
DWIDTH 12 0
BBX 10 22 1 0
BITMAP
0C00
2C80
3300
1E00
0C00
0000
3F80
6180
C080
C0C0
E040
F000
7800
3E00
0F80
03C0
01C0
80C0
80C0
C0C0
E180
FF00
ENDCHAR
STARTCHAR uni1E67
ENCODING 7783
SWIDTH 394 0
DWIDTH 9 0
BBX 8 19 1 0
BITMAP
18
38
D2
64
3C
18
00
7E
C6
C2
C2
E0
78
1E
0F
83
83
C6
FC
ENDCHAR
STARTCHAR uni1E68
ENCODING 7784
SWIDTH 504 0
DWIDTH 12 0
BBX 10 24 1 -4
BITMAP
0C00
0C00
0C00
0000
3F80
6180
C080
C0C0
E040
F000
7800
3E00
0F80
03C0
01C0
80C0
80C0
C0C0
E180
FF00
0000
0C00
0C00
0C00
ENDCHAR
STARTCHAR uni1E69
ENCODING 7785
SWIDTH 394 0
DWIDTH 9 0
BBX 8 21 1 -4
BITMAP
18
38
18
00
00
7E
C6
C2
C2
E0
78
1E
0F
83
83
C6
FC
00
10
38
18
ENDCHAR
STARTCHAR uni1E6A
ENCODING 7786
SWIDTH 603 0
DWIDTH 14 0
BBX 14 20 0 0
BITMAP
0300
0380
0300
0000
7FFC
430C
C304
8304
0300
0300
0300
0300
0300
0300
0300
0300
0300
0300
0380
0FE0
ENDCHAR
STARTCHAR uni1E6B
ENCODING 7787
SWIDTH 315 0
DWIDTH 8 0
BBX 6 19 1 0
BITMAP
30
70
30
20
20
20
60
FC
60
60
60
60
60
60
60
60
60
64
38
ENDCHAR
STARTCHAR uni1E6C
ENCODING 7788
SWIDTH 603 0
DWIDTH 14 0
BBX 14 20 0 -4
BITMAP
7FFC
430C
C304
8304
0300
0300
0300
0300
0300
0300
0300
0300
0300
0300
0380
0FE0
0000
0300
0380
0300
ENDCHAR
STARTCHAR uni1E6D
ENCODING 7789
SWIDTH 315 0
DWIDTH 8 0
BBX 6 20 1 -4
BITMAP
20
20
20
60
FC
60
60
60
60
60
60
60
60
60
64
38
00
10
38
38
ENDCHAR
STARTCHAR uni1E6E
ENCODING 7790
SWIDTH 603 0
DWIDTH 14 0
BBX 14 19 0 -3
BITMAP
7FFC
430C
C304
8304
0300
0300
0300
0300
0300
0300
0300
0300
0300
0300
0380
0FE0
0000
0000
0FE0
ENDCHAR
STARTCHAR uni1E6F
ENCODING 7791
SWIDTH 315 0
DWIDTH 8 0
BBX 7 19 1 -3
BITMAP
20
20
20
60
FC
60
60
60
60
60
60
60
60
60
64
38
00
00
FE
ENDCHAR
STARTCHAR uni1E70
ENCODING 7792
SWIDTH 603 0
DWIDTH 14 0
BBX 14 21 0 -5
BITMAP
7FFC
430C
C304
8304
0300
0300
0300
0300
0300
0300
0300
0300
0300
0300
0380
0FE0
0000
0300
0780
04C0
0860
ENDCHAR
STARTCHAR uni1E71
ENCODING 7793
SWIDTH 315 0
DWIDTH 8 0
BBX 7 21 1 -5
BITMAP
20
20
20
60
FC
60
60
60
60
60
60
60
60
60
64
38
00
38
38
4C
C6
ENDCHAR
STARTCHAR uni1E72
ENCODING 7794
SWIDTH 752 0
DWIDTH 18 0
BBX 18 20 0 -4
BITMAP
FE0FC0
380300
180200
180200
180200
180200
180200
180200
180200
180200
180200
180200
180200
0C0600
0E0C00
03F000
000000
021800
073800
061800
ENDCHAR
STARTCHAR uni1E73
ENCODING 7795
SWIDTH 570 0
DWIDTH 14 0
BBX 12 16 1 -4
BITMAP
E3C0
60C0
60C0
60C0
60C0
60C0
60C0
60C0
60C0
60C0
31C0
1EF0
0000
3180
31C0
3180
ENDCHAR
STARTCHAR uni1E74
ENCODING 7796
SWIDTH 752 0
DWIDTH 18 0
BBX 18 20 0 -4
BITMAP
FE0FC0
380300
180200
180200
180200
180200
180200
180200
180200
180200
180200
180200
180200
0C0600
0E0C00
03F000
000000
030800
03C800
047000
ENDCHAR
STARTCHAR uni1E75
ENCODING 7797
SWIDTH 570 0
DWIDTH 14 0
BBX 12 16 1 -4
BITMAP
E3C0
60C0
60C0
60C0
60C0
60C0
60C0
60C0
60C0
60C0
31C0
1EF0
0000
1880
3C80
2700
ENDCHAR
STARTCHAR uni1E76
ENCODING 7798
SWIDTH 752 0
DWIDTH 18 0
BBX 18 21 0 -5
BITMAP
FE0FC0
380300
180200
180200
180200
180200
180200
180200
180200
180200
180200
180200
180200
0C0600
0E0C00
03F000
000000
00C000
01E000
013000
021000
ENDCHAR
STARTCHAR uni1E77
ENCODING 7799
SWIDTH 570 0
DWIDTH 14 0
BBX 12 17 1 -5
BITMAP
E3C0
60C0
60C0
60C0
60C0
60C0
60C0
60C0
60C0
60C0
31C0
1EF0
0000
0E00
0E00
1900
3080
ENDCHAR
STARTCHAR uni1E78
ENCODING 7800
SWIDTH 752 0
DWIDTH 18 0
BBX 18 23 0 0
BITMAP
007000
006000
018400
03C800
027000
000000
000000
FE0FC0
380300
180200
180200
180200
180200
180200
180200
180200
180200
180200
180200
180200
0C0600
0E0C00
03F000
ENDCHAR
STARTCHAR uni1E79
ENCODING 7801
SWIDTH 570 0
DWIDTH 14 0
BBX 12 21 1 0
BITMAP
0300
0600
0600
0C00
0000
1840
3C80
2700
0000
E3C0
60C0
60C0
60C0
60C0
60C0
60C0
60C0
60C0
60C0
31C0
1EF0
ENDCHAR
STARTCHAR uni1E7A
ENCODING 7802
SWIDTH 752 0
DWIDTH 18 0
BBX 18 22 0 0
BITMAP
031800
031C00
031800
03F800
000000
000000
FE0FC0
380300
180200
180200
180200
180200
180200
180200
180200
180200
180200
180200
180200
0C0600
0E0C00
03F000
ENDCHAR
STARTCHAR uni1E7B
ENCODING 7803
SWIDTH 570 0
DWIDTH 14 0
BBX 12 20 1 0
BITMAP
3180
31C0
3180
0000
0000
3F80
0000
0000
E3C0
60C0
60C0
60C0
60C0
60C0
60C0
60C0
60C0
60C0
31C0
1EF0
ENDCHAR
STARTCHAR uni1E7C
ENCODING 7804
SWIDTH 680 0
DWIDTH 16 0
BBX 16 21 0 0
BITMAP
0310
0790
08E0
0000
0000
FC1F
7806
3804
3804
1808
1C08
0C18
0E10
0610
0620
0720
0360
03C0
01C0
0180
0080
ENDCHAR
STARTCHAR uni1E7D
ENCODING 7805
SWIDTH 481 0
DWIDTH 12 0
BBX 12 16 0 0
BITMAP
0C40
1E40
2380
0000
F8F0
7060
3040
3040
3080
1880
1980
1D00
0D00
0E00
0600
0600
ENDCHAR
STARTCHAR uni1E7E
ENCODING 7806
SWIDTH 680 0
DWIDTH 16 0
BBX 16 20 0 -4
BITMAP
FC1F
7806
3804
3804
1808
1C08
0C18
0E10
0610
0620
0720
0360
03C0
01C0
0180
0080
0000
0180
01C0
0180
ENDCHAR
STARTCHAR uni1E7F
ENCODING 7807
SWIDTH 481 0
DWIDTH 12 0
BBX 12 16 0 -4
BITMAP
F8F0
7060
3040
3040
3080
1880
1980
1D00
0D00
0E00
0600
0600
0000
0600
0E00
0600
ENDCHAR
STARTCHAR Wgrave
ENCODING 7808
SWIDTH 944 0
DWIDTH 23 0
BBX 23 20 0 0
BITMAP
00E000
003000
001800
000000
FCFC3E
703018
383018
383810
181810
1C1C30
0C1C20
0C2C20
0E2E60
066640
074740
0343C0
038380
038380
018100
010100
ENDCHAR
STARTCHAR wgrave
ENCODING 7809
SWIDTH 749 0
DWIDTH 18 0
BBX 18 17 0 0
BITMAP
038000
018000
00C000
004000
000000
FBE3C0
70C180
30C180
306100
38E100
18E200
18B200
1D3200
0D1C00
0E1C00
061C00
060800
ENDCHAR
STARTCHAR Wacute
ENCODING 7810
SWIDTH 944 0
DWIDTH 23 0
BBX 23 20 0 0
BITMAP
001C00
003000
006000
000000
FCFC3E
703018
383018
383810
181810
1C1C30
0C1C20
0C2C20
0E2E60
066640
074740
0343C0
038380
038380
018100
010100
ENDCHAR
STARTCHAR wacute
ENCODING 7811
SWIDTH 749 0
DWIDTH 18 0
BBX 18 17 0 0
BITMAP
007000
006000
00C000
008000
000000
FBE3C0
70C180
30C180
306100
38E100
18E200
18B200
1D3200
0D1C00
0E1C00
061C00
060800
ENDCHAR
STARTCHAR Wdieresis
ENCODING 7812
SWIDTH 944 0
DWIDTH 23 0
BBX 23 20 0 0
BITMAP
008400
01CE00
018600
000000
FCFC3E
703018
383018
383810
181810
1C1C30
0C1C20
0C2C20
0E2E60
066640
074740
0343C0
038380
038380
018100
010100
ENDCHAR
STARTCHAR wdieresis
ENCODING 7813
SWIDTH 749 0
DWIDTH 18 0
BBX 18 17 0 0
BITMAP
021800
073800
061800
000000
000000
FBE3C0
70C180
30C180
306100
38E100
18E200
18B200
1D3200
0D1C00
0E1C00
061C00
060800
ENDCHAR
STARTCHAR uni1E86
ENCODING 7814
SWIDTH 944 0
DWIDTH 23 0
BBX 23 20 0 0
BITMAP
003000
003000
003000
000000
FCFC3E
703018
383018
383810
181810
1C1C30
0C1C20
0C2C20
0E2E60
066640
074740
0343C0
038380
038380
018100
010100
ENDCHAR
STARTCHAR uni1E87
ENCODING 7815
SWIDTH 749 0
DWIDTH 18 0
BBX 18 17 0 0
BITMAP
00C000
00C000
00C000
000000
000000
FBE3C0
70C180
30C180
306100
38E100
18E200
18B200
1D3200
0D1C00
0E1C00
061C00
060800
ENDCHAR
STARTCHAR uni1E88
ENCODING 7816
SWIDTH 944 0
DWIDTH 23 0
BBX 23 20 0 -4
BITMAP
FCFC3E
703018
383018
383810
181810
1C1C30
0C1C20
0C2C20
0E2E60
066640
074740
0343C0
038380
038380
018100
010100
000000
001000
003800
003800
ENDCHAR
STARTCHAR uni1E89
ENCODING 7817
SWIDTH 749 0
DWIDTH 18 0
BBX 18 16 0 -4
BITMAP
FBE3C0
70C180
30C180
306100
38E100
18E200
18B200
1D3200
0D1C00
0E1C00
061C00
060800
000000
00C000
00C000
00C000
ENDCHAR
STARTCHAR uni1E8A
ENCODING 7818
SWIDTH 664 0
DWIDTH 16 0
BBX 16 20 0 0
BITMAP
0180
01C0
0180
0000
FE3F
3C0C
1C18
0E30
0E20
0740
03C0
0180
01C0
02C0
0460
0C70
1838
1038
301C
F87F
ENDCHAR
STARTCHAR uni1E8B
ENCODING 7819
SWIDTH 479 0
DWIDTH 12 0
BBX 12 17 0 0
BITMAP
0600
0E00
0600
0000
0000
F9E0
30C0
3880
1900
0E00
0E00
0600
0B00
1180
31C0
60C0
F1F0
ENDCHAR
STARTCHAR uni1E8C
ENCODING 7820
SWIDTH 664 0
DWIDTH 16 0
BBX 16 20 0 0
BITMAP
0430
0E30
0630
0000
FE3F
3C0C
1C18
0E30
0E20
0740
03C0
0180
01C0
02C0
0460
0C70
1838
1038
301C
F87F
ENDCHAR
STARTCHAR uni1E8D
ENCODING 7821
SWIDTH 479 0
DWIDTH 12 0
BBX 12 17 0 0
BITMAP
3080
39C0
31C0
0000
0000
F9E0
30C0
3880
1900
0E00
0E00
0600
0B00
1180
31C0
60C0
F1F0
ENDCHAR
STARTCHAR uni1E8E
ENCODING 7822
SWIDTH 647 0
DWIDTH 16 0
BBX 16 20 0 0
BITMAP
0180
01C0
0180
0000
FC3F
780C
3808
1C10
0C30
0E20
0760
0340
0380
0180
0180
0180
0180
0180
0380
0FE0
ENDCHAR
STARTCHAR uni1E8F
ENCODING 7823
SWIDTH 483 0
DWIDTH 12 0
BBX 12 22 0 -5
BITMAP
0600
0700
0600
0000
0000
F8F0
7060
7040
30C0
3880
1880
1D80
0D00
0D00
0600
0600
0600
0400
0400
0800
F800
F000
ENDCHAR
STARTCHAR uni1E90
ENCODING 7824
SWIDTH 594 0
DWIDTH 14 0
BBX 13 21 1 0
BITMAP
0200
0700
0D80
18C0
0000
7FF0
4070
40E0
80C0
01C0
0380
0300
0700
0E00
0C00
1C00
3800
3008
7010
E030
FFF0
ENDCHAR
STARTCHAR uni1E91
ENCODING 7825
SWIDTH 458 0
DWIDTH 11 0
BBX 9 17 1 0
BITMAP
0C00
1E00
3200
6100
0000
FF80
C380
8300
8600
0E00
0C00
1800
3800
3080
6080
E180
FF80
ENDCHAR
STARTCHAR uni1E92
ENCODING 7826
SWIDTH 594 0
DWIDTH 14 0
BBX 13 20 1 -4
BITMAP
7FF0
4070
40E0
80C0
01C0
0380
0300
0700
0E00
0C00
1C00
3800
3008
7010
E030
FFF0
0000
0600
0600
0600
ENDCHAR
STARTCHAR uni1E93
ENCODING 7827
SWIDTH 458 0
DWIDTH 11 0
BBX 9 16 1 -4
BITMAP
FF80
C380
8300
8600
0E00
0C00
1800
3800
3080
6080
E180
FF80
0000
0800
1C00
1C00
ENDCHAR
STARTCHAR uni1E94
ENCODING 7828
SWIDTH 594 0
DWIDTH 14 0
BBX 13 19 1 -3
BITMAP
7FF0
4070
40E0
80C0
01C0
0380
0300
0700
0E00
0C00
1C00
3800
3008
7010
E030
FFF0
0000
0000
3F80
ENDCHAR
STARTCHAR uni1E95
ENCODING 7829
SWIDTH 458 0
DWIDTH 11 0
BBX 9 15 1 -3
BITMAP
FF80
C380
8300
8600
0E00
0C00
1800
3800
3080
6080
E180
FF80
0000
0000
7F00
ENDCHAR
STARTCHAR uni1E96
ENCODING 7830
SWIDTH 577 0
DWIDTH 14 0
BBX 12 20 1 -3
BITMAP
E000
6000
6000
6000
6000
6380
6FC0
70C0
60E0
6060
6060
6060
6060
6060
6060
70E0
F9F0
0000
0000
1FC0
ENDCHAR
STARTCHAR uni1E97
ENCODING 7831
SWIDTH 315 0
DWIDTH 8 0
BBX 8 19 0 0
BITMAP
C2
E7
C7
10
10
10
30
7E
30
30
30
30
30
30
30
30
30
32
1C
ENDCHAR
STARTCHAR uni1E98
ENCODING 7832
SWIDTH 749 0
DWIDTH 18 0
BBX 18 18 0 0
BITMAP
01C000
012000
012000
012000
00C000
000000
FBE3C0
70C180
30C180
306100
38E100
18E200
18B200
1D3200
0D1C00
0E1C00
061C00
060800
ENDCHAR
STARTCHAR uni1E99
ENCODING 7833
SWIDTH 483 0
DWIDTH 12 0
BBX 12 23 0 -5
BITMAP
0700
0900
0880
0900
0700
0000
F8F0
7060
7040
30C0
3880
1880
1D80
0D00
0D00
0600
0600
0600
0400
0400
0800
F800
F000
ENDCHAR
STARTCHAR uni1E9A
ENCODING 7834
SWIDTH 480 0
DWIDTH 12 0
BBX 10 18 1 0
BITMAP
1800
0400
0400
0400
1800
0000
3E00
6300
C300
C300
0300
0700
3B00
6300
C300
C300
C740
79C0
ENDCHAR
STARTCHAR uni1E9B
ENCODING 7835
SWIDTH 285 0
DWIDTH 7 0
BBX 9 21 0 0
BITMAP
1000
3800
1800
0F00
1980
1180
1000
3000
3000
7000
3000
3000
3000
3000
3000
3000
3000
3000
3000
3800
FE00
ENDCHAR
STARTCHAR uni1E9C
ENCODING 7836
SWIDTH 300 0
DWIDTH 7 0
BBX 9 18 0 0
BITMAP
0780
0980
1880
1800
1800
1800
7800
1A00
1C00
1800
3800
D800
1800
1800
1800
1800
3800
7E00
ENDCHAR
STARTCHAR uni1E9D
ENCODING 7837
SWIDTH 285 0
DWIDTH 7 0
BBX 9 18 0 0
BITMAP
0700
0B80
1980
1800
7E00
3000
7000
3000
3000
3000
3000
3000
3000
3000
3000
3000
3800
FE00
ENDCHAR
STARTCHAR uni1E9E
ENCODING 7838
SWIDTH 684 0
DWIDTH 16 0
BBX 15 16 0 0
BITMAP
03FC
0E0C
0C1C
1818
1830
1870
1860
18F8
181C
180E
1806
1806
1806
1B06
1B8C
F9F8
ENDCHAR
STARTCHAR uni1E9F
ENCODING 7839
SWIDTH 517 0
DWIDTH 12 0
BBX 11 18 1 0
BITMAP
1F00
3180
20C0
3000
3800
1C00
0E00
1F00
7180
61C0
C0C0
C0E0
C0E0
C0E0
C0C0
60C0
7180
1F00
ENDCHAR
STARTCHAR uni1EA0
ENCODING 7840
SWIDTH 718 0
DWIDTH 17 0
BBX 17 20 0 -4
BITMAP
008000
01C000
01C000
03E000
026000
026000
067000
043000
0C3800
083800
0FFC00
181C00
100C00
300E00
300F00
F81F80
000000
018000
018000
018000
ENDCHAR
STARTCHAR uni1EA1
ENCODING 7841
SWIDTH 480 0
DWIDTH 12 0
BBX 10 16 1 -4
BITMAP
3E00
6300
C300
C300
0300
0700
3B00
6300
C300
C300
C740
79C0
0000
0800
1C00
0C00
ENDCHAR
STARTCHAR uni1EA2
ENCODING 7842
SWIDTH 718 0
DWIDTH 17 0
BBX 17 22 0 0
BITMAP
01C000
016000
006000
004000
008000
000000
008000
01C000
01C000
03E000
026000
026000
067000
043000
0C3800
083800
0FFC00
181C00
100C00
300E00
300F00
F81F80
ENDCHAR
STARTCHAR uni1EA3
ENCODING 7843
SWIDTH 480 0
DWIDTH 12 0
BBX 10 18 1 0
BITMAP
1C00
1600
0200
0600
0800
0000
3E00
6300
C300
C300
0300
0700
3B00
6300
C300
C300
C740
79C0
ENDCHAR
STARTCHAR uni1EA4
ENCODING 7844
SWIDTH 718 0
DWIDTH 17 0
BBX 17 22 0 0
BITMAP
000600
008C00
01D800
036000
063000
000000
008000
01C000
01C000
03E000
026000
026000
067000
043000
0C3800
083800
0FFC00
181C00
100C00
300E00
300F00
F81F80
ENDCHAR
STARTCHAR uni1EA5
ENCODING 7845
SWIDTH 480 0
DWIDTH 12 0
BBX 10 18 1 0
BITMAP
00C0
0080
1D00
1400
2200
4100
3E00
6300
C300
C300
0300
0700
3B00
6300
C300
C300
C740
79C0
ENDCHAR
STARTCHAR uni1EA6
ENCODING 7846
SWIDTH 718 0
DWIDTH 17 0
BBX 17 22 0 0
BITMAP
003000
009800
01CC00
036000
063000
000000
008000
01C000
01C000
03E000
026000
026000
067000
043000
0C3800
083800
0FFC00
181C00
100C00
300E00
300F00
F81F80
ENDCHAR
STARTCHAR uni1EA7
ENCODING 7847
SWIDTH 480 0
DWIDTH 12 0
BBX 10 18 1 0
BITMAP
0600
0300
1D00
1C80
3600
6100
3E00
6300
C300
C300
0300
0700
3B00
6300
C300
C300
C740
79C0
ENDCHAR
STARTCHAR uni1EA8
ENCODING 7848
SWIDTH 718 0
DWIDTH 17 0
BBX 17 24 0 0
BITMAP
003800
002C00
000400
000C00
01D000
022000
041000
000000
008000
01C000
01C000
03E000
026000
026000
067000
043000
0C3800
083800
0FFC00
181C00
100C00
300E00
300F00
F81F80
ENDCHAR
STARTCHAR uni1EA9
ENCODING 7849
SWIDTH 480 0
DWIDTH 12 0
BBX 10 20 1 0
BITMAP
0380
02C0
00C0
0080
1D00
3600
6300
0000
3E00
6300
C300
C300
0300
0700
3B00
6300
C300
C300
C740
79C0
ENDCHAR
STARTCHAR uni1EAA
ENCODING 7850
SWIDTH 718 0
DWIDTH 17 0
BBX 17 23 0 0
BITMAP
039000
07F000
000000
01C000
036000
063000
000000
008000
01C000
01C000
03E000
026000
026000
067000
043000
0C3800
083800
0FFC00
181C00
100C00
300E00
300F00
F81F80
ENDCHAR
STARTCHAR uni1EAB
ENCODING 7851
SWIDTH 480 0
DWIDTH 12 0
BBX 10 19 1 0
BITMAP
3900
4F00
0000
1C00
1C00
3600
6100
3E00
6300
C300
C300
0300
0700
3B00
6300
C300
C300
C740
79C0
ENDCHAR
STARTCHAR uni1EAC
ENCODING 7852
SWIDTH 718 0
DWIDTH 17 0
BBX 17 25 0 -4
BITMAP
008000
01C000
036000
063000
000000
008000
01C000
01C000
03E000
026000
026000
067000
043000
0C3800
083800
0FFC00
181C00
100C00
300E00
300F00
F81F80
000000
018000
018000
018000
ENDCHAR
STARTCHAR uni1EAD
ENCODING 7853
SWIDTH 480 0
DWIDTH 12 0
BBX 10 21 1 -4
BITMAP
1C00
1C00
3200
6100
0000
3E00
6300
C300
C300
0300
0700
3B00
6300
C300
C300
C740
79C0
0000
0800
1C00
0C00
ENDCHAR
STARTCHAR uni1EAE
ENCODING 7854
SWIDTH 718 0
DWIDTH 17 0
BBX 17 23 0 0
BITMAP
006000
00E000
049000
051000
03E000
03C000
000000
008000
01C000
01C000
03E000
026000
026000
067000
043000
0C3800
083800
0FFC00
181C00
100C00
300E00
300F00
F81F80
ENDCHAR
STARTCHAR uni1EAF
ENCODING 7855
SWIDTH 480 0
DWIDTH 12 0
BBX 10 19 1 0
BITMAP
0600
0600
0C00
4900
5100
3E00
3C00
3E00
6300
C300
C300
0300
0700
3B00
6300
C300
C300
C740
79C0
ENDCHAR
STARTCHAR uni1EB0
ENCODING 7856
SWIDTH 718 0
DWIDTH 17 0
BBX 17 23 0 0
BITMAP
030000
038000
049000
045000
03E000
03C000
000000
008000
01C000
01C000
03E000
026000
026000
067000
043000
0C3800
083800
0FFC00
181C00
100C00
300E00
300F00
F81F80
ENDCHAR
STARTCHAR uni1EB1
ENCODING 7857
SWIDTH 480 0
DWIDTH 12 0
BBX 10 19 1 0
BITMAP
3000
3000
1800
4900
4500
3E00
3C00
3E00
6300
C300
C300
0300
0700
3B00
6300
C300
C300
C740
79C0
ENDCHAR
STARTCHAR uni1EB2
ENCODING 7858
SWIDTH 718 0
DWIDTH 17 0
BBX 17 24 0 0
BITMAP
01C000
036000
006000
004000
049000
07F000
03E000
000000
008000
01C000
01C000
03E000
026000
026000
067000
043000
0C3800
083800
0FFC00
181C00
100C00
300E00
300F00
F81F80
ENDCHAR
STARTCHAR uni1EB3
ENCODING 7859
SWIDTH 480 0
DWIDTH 12 0
BBX 10 20 1 0
BITMAP
1C00
3600
0600
0400
4900
6300
3E00
1C00
3E00
6300
C300
C300
0300
0700
3B00
6300
C300
C300
C740
79C0
ENDCHAR
STARTCHAR uni1EB4
ENCODING 7860
SWIDTH 718 0
DWIDTH 17 0
BBX 17 23 0 0
BITMAP
039000
04E000
041000
041000
07E000
03C000
000000
008000
01C000
01C000
03E000
026000
026000
067000
043000
0C3800
083800
0FFC00
181C00
100C00
300E00
300F00
F81F80
ENDCHAR
STARTCHAR uni1EB5
ENCODING 7861
SWIDTH 480 0
DWIDTH 12 0
BBX 10 19 1 0
BITMAP
3900
4F00
0000
4100
4100
3E00
3C00
3E00
6300
C300
C300
0300
0700
3B00
6300
C300
C300
C740
79C0
ENDCHAR
STARTCHAR uni1EB6
ENCODING 7862
SWIDTH 718 0
DWIDTH 17 0
BBX 17 26 0 -4
BITMAP
041000
041000
03E000
03C000
000000
000000
008000
01C000
01C000
03E000
026000
026000
067000
043000
0C3800
083800
0FFC00
181C00
100C00
300E00
300F00
F81F80
000000
018000
018000
018000
ENDCHAR
STARTCHAR uni1EB7
ENCODING 7863
SWIDTH 480 0
DWIDTH 12 0
BBX 10 21 1 -4
BITMAP
4100
4100
3E00
3C00
0000
3E00
6300
C300
C300
0300
0700
3B00
6300
C300
C300
C740
79C0
0000
0800
1C00
0C00
ENDCHAR
STARTCHAR uni1EB8
ENCODING 7864
SWIDTH 626 0
DWIDTH 15 0
BBX 13 20 1 -4
BITMAP
FFF0
3018
3008
3000
3020
3020
3060
3FE0
3020
3020
3000
3008
3008
3008
3018
FFF8
0000
0200
0700
0300
ENDCHAR
STARTCHAR uni1EB9
ENCODING 7865
SWIDTH 464 0
DWIDTH 11 0
BBX 9 16 1 -4
BITMAP
1E00
6300
4180
C180
FF80
C000
C000
C000
E080
7080
7F00
1E00
0000
0C00
1C00
0C00
ENDCHAR
STARTCHAR uni1EBA
ENCODING 7866
SWIDTH 626 0
DWIDTH 15 0
BBX 13 22 1 0
BITMAP
0700
0480
0080
0180
0200
0000
FFF0
3018
3008
3000
3020
3020
3060
3FE0
3020
3020
3000
3008
3008
3008
3018
FFF8
ENDCHAR
STARTCHAR uni1EBB
ENCODING 7867
SWIDTH 464 0
DWIDTH 11 0
BBX 9 18 1 0
BITMAP
1E00
1200
0200
0600
0800
0000
1E00
6300
4180
C180
FF80
C000
C000
C000
E080
7080
7F00
1E00
ENDCHAR
STARTCHAR uni1EBC
ENCODING 7868
SWIDTH 626 0
DWIDTH 15 0
BBX 13 21 1 0
BITMAP
0C20
1F40
11C0
0000
0000
FFF0
3018
3008
3000
3020
3020
3060
3FE0
3020
3020
3000
3008
3008
3008
3018
FFF8
ENDCHAR
STARTCHAR uni1EBD
ENCODING 7869
SWIDTH 464 0
DWIDTH 11 0
BBX 9 16 1 0
BITMAP
3080
7C80
4700
0000
1E00
6300
4180
C180
FF80
C000
C000
C000
E080
7080
7F00
1E00
ENDCHAR
STARTCHAR uni1EBE
ENCODING 7870
SWIDTH 626 0
DWIDTH 15 0
BBX 14 22 1 0
BITMAP
001C
0338
0760
0C80
1840
0000
FFF0
3018
3008
3000
3020
3020
3060
3FE0
3020
3020
3000
3008
3008
3008
3018
FFF8
ENDCHAR
STARTCHAR uni1EBF
ENCODING 7871
SWIDTH 464 0
DWIDTH 11 0
BBX 11 18 1 0
BITMAP
00E0
00C0
0D80
1E00
3200
4100
1E00
6300
4180
C180
FF80
C000
C000
C000
E040
7080
7F00
1E00
ENDCHAR
STARTCHAR uni1EC0
ENCODING 7872
SWIDTH 626 0
DWIDTH 15 0
BBX 13 22 1 0
BITMAP
00C0
0360
0730
0D80
1840
0000
FFF0
3018
3008
3000
3020
3020
3060
3FE0
3020
3020
3000
3008
3008
3008
3018
FFF8
ENDCHAR
STARTCHAR uni1EC1
ENCODING 7873
SWIDTH 464 0
DWIDTH 11 0
BBX 9 18 1 0
BITMAP
0700
0300
0D80
1E80
3200
6100
1E00
6300
4180
C180
FF80
C000
C000
C000
E080
7080
7F00
1E00
ENDCHAR
STARTCHAR uni1EC2
ENCODING 7874
SWIDTH 626 0
DWIDTH 15 0
BBX 13 24 1 0
BITMAP
00E0
0090
0010
0030
0740
0C80
1040
0000
FFF0
3018
3008
3000
3020
3020
3060
3FE0
3020
3020
3000
3008
3008
3008
3018
FFF8
ENDCHAR
STARTCHAR uni1EC3
ENCODING 7875
SWIDTH 464 0
DWIDTH 11 0
BBX 10 20 1 0
BITMAP
0380
0240
0040
00C0
0D00
1600
6100
0000
1E00
6300
4180
C180
FF80
C000
C000
C000
E040
7080
7F00
1E00
ENDCHAR
STARTCHAR uni1EC4
ENCODING 7876
SWIDTH 626 0
DWIDTH 15 0
BBX 13 23 1 0
BITMAP
0E20
1FC0
0000
0700
0D80
1840
0000
FFF0
3018
3008
3000
3020
3020
3060
3FE0
3020
3020
3000
3008
3008
3008
3018
FFF8
ENDCHAR
STARTCHAR uni1EC5
ENCODING 7877
SWIDTH 464 0
DWIDTH 11 0
BBX 9 19 1 0
BITMAP
3880
4700
0000
0C00
1E00
3200
6100
1E00
6300
4180
C180
FF80
C000
C000
C000
E080
7080
7F00
1E00
ENDCHAR
STARTCHAR uni1EC6
ENCODING 7878
SWIDTH 626 0
DWIDTH 15 0
BBX 13 25 1 -4
BITMAP
0300
0700
0D80
1840
0000
FFF0
3018
3008
3000
3020
3020
3060
3FE0
3020
3020
3000
3008
3008
3008
3018
FFF8
0000
0200
0700
0300
ENDCHAR
STARTCHAR uni1EC7
ENCODING 7879
SWIDTH 464 0
DWIDTH 11 0
BBX 9 21 1 -4
BITMAP
0C00
1E00
3200
6100
0000
1E00
6300
4180
C180
FF80
C000
C000
C000
E080
7080
7F00
1E00
0000
0C00
1C00
0C00
ENDCHAR
STARTCHAR uni1EC8
ENCODING 7880
SWIDTH 357 0
DWIDTH 9 0
BBX 7 22 1 0
BITMAP
38
6C
0C
08
10
00
FE
38
30
30
30
30
30
30
30
30
30
30
30
30
38
FE
ENDCHAR
STARTCHAR uni1EC9
ENCODING 7881
SWIDTH 285 0
DWIDTH 7 0
BBX 5 18 1 0
BITMAP
70
90
18
10
60
00
E0
60
60
60
60
60
60
60
60
60
70
F8
ENDCHAR
STARTCHAR uni1ECA
ENCODING 7882
SWIDTH 357 0
DWIDTH 9 0
BBX 7 20 1 -4
BITMAP
FE
38
30
30
30
30
30
30
30
30
30
30
30
30
38
FE
00
30
38
30
ENDCHAR
STARTCHAR uni1ECB
ENCODING 7883
SWIDTH 285 0
DWIDTH 7 0
BBX 5 20 1 -4
BITMAP
70
70
20
00
E0
60
60
60
60
60
60
60
60
60
70
F8
00
20
70
70
ENDCHAR
STARTCHAR uni1ECC
ENCODING 7884
SWIDTH 738 0
DWIDTH 18 0
BBX 16 20 1 -4
BITMAP
07E0
1C38
301C
700C
600E
E006
E006
E007
E007
E006
E006
600E
700C
300C
1C38
07E0
0000
0180
0380
0180
ENDCHAR
STARTCHAR uni1ECD
ENCODING 7885
SWIDTH 514 0
DWIDTH 12 0
BBX 11 16 1 -4
BITMAP
1F00
6180
60C0
C0C0
C0C0
C0E0
C0E0
C0C0
C0C0
60C0
7180
1F00
0000
0C00
0E00
0C00
ENDCHAR
STARTCHAR uni1ECE
ENCODING 7886
SWIDTH 738 0
DWIDTH 18 0
BBX 16 22 1 0
BITMAP
03C0
0240
0040
00C0
0100
0000
07E0
1C38
301C
700C
600E
E006
E006
E007
E007
E006
E006
600E
700C
300C
1C38
07E0
ENDCHAR
STARTCHAR uni1ECF
ENCODING 7887
SWIDTH 514 0
DWIDTH 12 0
BBX 11 18 1 0
BITMAP
0E00
1B00
0300
0200
0400
0000
1F00
6180
60C0
C0C0
C0C0
C0E0
C0E0
C0C0
C0C0
60C0
7180
1F00
ENDCHAR
STARTCHAR uni1ED0
ENCODING 7888
SWIDTH 738 0
DWIDTH 18 0
BBX 16 22 1 0
BITMAP
0006
018C
03F0
0640
0C20
0000
07E0
1C38
301C
700C
600E
E006
E006
E007
E007
E006
E006
600E
700C
300C
1C38
07E0
ENDCHAR
STARTCHAR uni1ED1
ENCODING 7889
SWIDTH 514 0
DWIDTH 12 0
BBX 11 18 1 0
BITMAP
0060
00C0
0C80
1F00
1100
2080
1F00
6180
60C0
C0C0
C0C0
C0E0
C0E0
C0C0
C0C0
60C0
7180
1F00
ENDCHAR
STARTCHAR uni1ED2
ENCODING 7890
SWIDTH 738 0
DWIDTH 18 0
BBX 16 22 1 0
BITMAP
0060
01B0
03C8
0640
0C20
0000
07E0
1C38
301C
700C
600E
E006
E006
E007
E007
E006
E006
600E
700C
300C
1C38
07E0
ENDCHAR
STARTCHAR uni1ED3
ENCODING 7891
SWIDTH 514 0
DWIDTH 12 0
BBX 11 18 1 0
BITMAP
0300
0180
0C80
1E40
1300
2180
1F00
6180
60C0
C0C0
C0C0
C0E0
C0E0
C0C0
C0C0
60C0
7180
1F00
ENDCHAR
STARTCHAR uni1ED4
ENCODING 7892
SWIDTH 738 0
DWIDTH 18 0
BBX 16 24 1 0
BITMAP
0038
0048
0008
0018
03A0
0660
0800
0000
07E0
1C38
301C
700C
600E
E006
E006
E007
E007
E006
E006
600E
700C
300C
1C38
07E0
ENDCHAR
STARTCHAR uni1ED5
ENCODING 7893
SWIDTH 514 0
DWIDTH 12 0
BBX 11 20 1 0
BITMAP
01C0
0360
0060
0040
0E80
1A00
2180
0000
1F00
6180
60C0
C0C0
C0C0
C0E0
C0E0
C0C0
C0C0
60C0
7180
1F00
ENDCHAR
STARTCHAR uni1ED6
ENCODING 7894
SWIDTH 738 0
DWIDTH 18 0
BBX 16 23 1 0
BITMAP
0710
0FE0
0000
0380
06C0
0C20
0000
07E0
1C38
301C
700C
600E
E006
E006
E007
E007
E006
E006
600E
700C
300C
1C38
07E0
ENDCHAR
STARTCHAR uni1ED7
ENCODING 7895
SWIDTH 514 0
DWIDTH 12 0
BBX 11 19 1 0
BITMAP
3C80
2700
0000
0C00
1E00
1300
2180
1F00
6180
60C0
C0C0
C0C0
C0E0
C0E0
C0C0
C0C0
60C0
7180
1F00
ENDCHAR
STARTCHAR uni1ED8
ENCODING 7896
SWIDTH 738 0
DWIDTH 18 0
BBX 16 25 1 -4
BITMAP
0180
03C0
0640
0C20
0000
07E0
1C38
301C
700C
600E
E006
E006
E007
E007
E006
E006
600E
700C
300C
1C38
07E0
0000
0180
0380
0180
ENDCHAR
STARTCHAR uni1ED9
ENCODING 7897
SWIDTH 514 0
DWIDTH 12 0
BBX 11 21 1 -4
BITMAP
0C00
1E00
1300
2180
0000
1F00
6180
60C0
C0C0
C0C0
C0E0
C0E0
C0C0
C0C0
60C0
7180
1F00
0000
0C00
0E00
0C00
ENDCHAR
STARTCHAR uni1EDA
ENCODING 7898
SWIDTH 737 0
DWIDTH 18 0
BBX 16 20 1 0
BITMAP
00C3
0183
0203
0003
07FE
1C38
301C
700E
600E
E006
E006
E006
E006
E006
E006
600E
700C
301C
1838
07E0
ENDCHAR
STARTCHAR uni1EDB
ENCODING 7899
SWIDTH 516 0
DWIDTH 12 0
BBX 11 17 1 0
BITMAP
0700
0660
0460
0820
0020
1FC0
6180
60C0
C0C0
C0C0
C0E0
C0E0
C0C0
C0C0
60C0
7180
1F00
ENDCHAR
STARTCHAR uni1EDC
ENCODING 7900
SWIDTH 737 0
DWIDTH 18 0
BBX 16 20 1 0
BITMAP
0703
0183
00C3
0003
07FE
1C38
301C
700E
600E
E006
E006
E006
E006
E006
E006
600E
700C
301C
1838
07E0
ENDCHAR
STARTCHAR uni1EDD
ENCODING 7901
SWIDTH 516 0
DWIDTH 12 0
BBX 11 17 1 0
BITMAP
1800
0C60
0C60
0620
0020
1FC0
6180
60C0
C0C0
C0C0
C0E0
C0E0
C0C0
C0C0
60C0
7180
1F00
ENDCHAR
STARTCHAR uni1EDE
ENCODING 7902
SWIDTH 737 0
DWIDTH 18 0
BBX 16 22 1 0
BITMAP
03C0
0240
0043
00C3
0103
0003
07FE
1C38
301C
700E
600E
E006
E006
E006
E006
E006
E006
600E
700C
301C
1838
07E0
ENDCHAR
STARTCHAR uni1EDF
ENCODING 7903
SWIDTH 516 0
DWIDTH 12 0
BBX 11 18 1 0
BITMAP
0E00
1B00
0360
0260
0420
0020
1FC0
6180
60C0
C0C0
C0C0
C0E0
C0E0
C0C0
C0C0
60C0
7180
1F00
ENDCHAR
STARTCHAR uni1EE0
ENCODING 7904
SWIDTH 737 0
DWIDTH 18 0
BBX 16 21 1 0
BITMAP
0610
0F93
08E3
0003
0003
07FE
1C38
301C
700E
600E
E006
E006
E006
E006
E006
E006
600E
700C
301C
1838
07E0
ENDCHAR
STARTCHAR uni1EE1
ENCODING 7905
SWIDTH 516 0
DWIDTH 12 0
BBX 11 16 1 0
BITMAP
38C0
7F60
0020
0020
1FC0
6180
60C0
C0C0
C0C0
C0E0
C0E0
C0C0
C0C0
60C0
7180
1F00
ENDCHAR
STARTCHAR uni1EE2
ENCODING 7906
SWIDTH 737 0
DWIDTH 18 0
BBX 16 24 1 -4
BITMAP
0003
0003
0003
0003
07FE
1C38
301C
700E
600E
E006
E006
E006
E006
E006
E006
600E
700C
301C
1838
07E0
0000
0180
0380
0180
ENDCHAR
STARTCHAR uni1EE3
ENCODING 7907
SWIDTH 516 0
DWIDTH 12 0
BBX 11 20 1 -4
BITMAP
0060
0060
0020
0020
1FC0
6180
60C0
C0C0
C0C0
C0E0
C0E0
C0C0
C0C0
60C0
7180
1F00
0000
0C00
0E00
0C00
ENDCHAR
STARTCHAR uni1EE4
ENCODING 7908
SWIDTH 752 0
DWIDTH 18 0
BBX 18 20 0 -4
BITMAP
FE0FC0
380300
180200
180200
180200
180200
180200
180200
180200
180200
180200
180200
180200
0C0600
0E0C00
03F000
000000
00C000
00C000
00C000
ENDCHAR
STARTCHAR uni1EE5
ENCODING 7909
SWIDTH 570 0
DWIDTH 14 0
BBX 12 16 1 -4
BITMAP
E3C0
60C0
60C0
60C0
60C0
60C0
60C0
60C0
60C0
60C0
31C0
1EF0
0000
0600
0E00
0600
ENDCHAR
STARTCHAR uni1EE6
ENCODING 7910
SWIDTH 752 0
DWIDTH 18 0
BBX 18 22 0 0
BITMAP
00E000
00B000
001000
003000
004000
000000
FE0FC0
380300
180200
180200
180200
180200
180200
180200
180200
180200
180200
180200
180200
0C0600
0E0C00
03F000
ENDCHAR
STARTCHAR uni1EE7
ENCODING 7911
SWIDTH 570 0
DWIDTH 14 0
BBX 12 18 1 0
BITMAP
0E00
0900
0100
0300
0400
0000
E3C0
60C0
60C0
60C0
60C0
60C0
60C0
60C0
60C0
60C0
31C0
1EF0
ENDCHAR
STARTCHAR uni1EE8
ENCODING 7912
SWIDTH 762 0
DWIDTH 18 0
BBX 20 21 0 0
BITMAP
000060
007070
006030
018020
000060
FE0F80
380200
180200
180200
180200
180200
180200
180200
180200
180200
180200
180200
180200
0C0400
0E0C00
03F000
ENDCHAR
STARTCHAR uni1EE9
ENCODING 7913
SWIDTH 574 0
DWIDTH 14 0
BBX 13 17 1 0
BITMAP
0300
0610
0418
0C18
0018
E3F0
E1C0
60C0
60C0
60C0
60C0
60C0
60C0
60C0
60C0
31C0
1EF0
ENDCHAR
STARTCHAR uni1EEA
ENCODING 7914
SWIDTH 762 0
DWIDTH 18 0
BBX 20 21 0 0
BITMAP
000060
01C070
00E030
003020
000060
FE0F80
380200
180200
180200
180200
180200
180200
180200
180200
180200
180200
180200
180200
0C0400
0E0C00
03F000
ENDCHAR
STARTCHAR uni1EEB
ENCODING 7915
SWIDTH 574 0
DWIDTH 14 0
BBX 13 17 1 0
BITMAP
1800
0C10
0418
0618
0018
E3F0
E1C0
60C0
60C0
60C0
60C0
60C0
60C0
60C0
60C0
31C0
1EF0
ENDCHAR
STARTCHAR uni1EEC
ENCODING 7916
SWIDTH 762 0
DWIDTH 18 0
BBX 20 22 0 0
BITMAP
00E000
00B060
001070
003030
004020
000060
FE0F80
380200
180200
180200
180200
180200
180200
180200
180200
180200
180200
180200
180200
0C0400
0E0C00
03F000
ENDCHAR
STARTCHAR uni1EED
ENCODING 7917
SWIDTH 574 0
DWIDTH 14 0
BBX 13 18 1 0
BITMAP
0E00
0B00
0310
0218
0418
0018
E3F0
E1C0
60C0
60C0
60C0
60C0
60C0
60C0
60C0
60C0
31C0
1EF0
ENDCHAR
STARTCHAR uni1EEE
ENCODING 7918
SWIDTH 762 0
DWIDTH 18 0
BBX 20 21 0 0
BITMAP
018460
03E870
027830
000020
000060
FE0F80
380200
180200
180200
180200
180200
180200
180200
180200
180200
180200
180200
180200
0C0400
0E0C00
03F000
ENDCHAR
STARTCHAR uni1EEF
ENCODING 7919
SWIDTH 574 0
DWIDTH 14 0
BBX 13 16 1 0
BITMAP
1850
3C98
2718
0018
E3F0
E1C0
60C0
60C0
60C0
60C0
60C0
60C0
60C0
60C0
31C0
1EF0
ENDCHAR
STARTCHAR uni1EF0
ENCODING 7920
SWIDTH 762 0
DWIDTH 18 0
BBX 20 25 0 -4
BITMAP
000060
000070
000030
000020
000060
FE0F80
380200
180200
180200
180200
180200
180200
180200
180200
180200
180200
180200
180200
0C0400
0E0C00
03F000
000000
00C000
00C000
00C000
ENDCHAR
STARTCHAR uni1EF1
ENCODING 7921
SWIDTH 574 0
DWIDTH 14 0
BBX 13 20 1 -4
BITMAP
0010
0018
0018
0018
E3F0
E1C0
60C0
60C0
60C0
60C0
60C0
60C0
60C0
60C0
31C0
1EF0
0000
0400
0E00
0C00
ENDCHAR
STARTCHAR Ygrave
ENCODING 7922
SWIDTH 647 0
DWIDTH 16 0
BBX 16 20 0 0
BITMAP
0300
0180
0060
0000
FC3F
780C
3808
1C10
0C30
0E20
0760
0340
0380
0180
0180
0180
0180
0180
0380
0FE0
ENDCHAR
STARTCHAR ygrave
ENCODING 7923
SWIDTH 483 0
DWIDTH 12 0
BBX 12 22 0 -5
BITMAP
0C00
0600
0600
0300
0000
F8F0
7060
7040
30C0
3880
1880
1D80
0D00
0D00
0600
0600
0600
0400
0400
0800
F800
F000
ENDCHAR
STARTCHAR uni1EF4
ENCODING 7924
SWIDTH 647 0
DWIDTH 16 0
BBX 16 20 0 -4
BITMAP
FC3F
780C
3808
1C10
0C30
0E20
0760
0340
0380
0180
0180
0180
0180
0180
0380
0FE0
0000
0180
0380
0180
ENDCHAR
STARTCHAR uni1EF5
ENCODING 7925
SWIDTH 483 0
DWIDTH 12 0
BBX 12 17 0 -5
BITMAP
F8F0
7060
7040
30C0
3880
1880
1D80
0D00
0D00
0600
0600
0600
0400
0580
0980
F980
F000
ENDCHAR
STARTCHAR uni1EF6
ENCODING 7926
SWIDTH 647 0
DWIDTH 16 0
BBX 16 22 0 0
BITMAP
01C0
0360
0060
0040
0080
0000
FC3F
780C
3808
1C10
0C30
0E20
0760
0340
0380
0180
0180
0180
0180
0180
0380
0FE0
ENDCHAR
STARTCHAR uni1EF7
ENCODING 7927
SWIDTH 483 0
DWIDTH 12 0
BBX 12 23 0 -5
BITMAP
0700
0D80
0180
0100
0200
0000
F8F0
7060
7040
30C0
3880
1880
1D80
0D00
0D00
0600
0600
0600
0400
0400
0800
F800
F000
ENDCHAR
STARTCHAR uni1EF8
ENCODING 7928
SWIDTH 647 0
DWIDTH 16 0
BBX 16 21 0 0
BITMAP
0310
0790
08E0
0000
0000
FC3F
780C
3808
1C10
0C30
0E20
0760
0340
0380
0180
0180
0180
0180
0180
0380
0FE0
ENDCHAR
STARTCHAR uni1EF9
ENCODING 7929
SWIDTH 483 0
DWIDTH 12 0
BBX 12 21 0 -5
BITMAP
0C40
1E40
2380
0000
F8F0
7060
7040
30C0
3880
1880
1D80
0D00
0D00
0600
0600
0600
0400
0400
0800
F800
F000
ENDCHAR
STARTCHAR uni2000
ENCODING 8192
SWIDTH 500 0
DWIDTH 12 0
BBX 1 1 0 0
BITMAP
00
ENDCHAR
STARTCHAR uni2001
ENCODING 8193
SWIDTH 1000 0
DWIDTH 24 0
BBX 1 1 0 0
BITMAP
00
ENDCHAR
STARTCHAR uni2002
ENCODING 8194
SWIDTH 500 0
DWIDTH 12 0
BBX 1 1 0 0
BITMAP
00
ENDCHAR
STARTCHAR uni2003
ENCODING 8195
SWIDTH 1000 0
DWIDTH 24 0
BBX 1 1 0 0
BITMAP
00
ENDCHAR
STARTCHAR uni2004
ENCODING 8196
SWIDTH 334 0
DWIDTH 8 0
BBX 1 1 0 0
BITMAP
00
ENDCHAR
STARTCHAR uni2005
ENCODING 8197
SWIDTH 250 0
DWIDTH 6 0
BBX 1 1 0 0
BITMAP
00
ENDCHAR
STARTCHAR uni2006
ENCODING 8198
SWIDTH 167 0
DWIDTH 4 0
BBX 1 1 0 0
BITMAP
00
ENDCHAR
STARTCHAR uni2007
ENCODING 8199
SWIDTH 560 0
DWIDTH 13 0
BBX 1 1 0 0
BITMAP
00
ENDCHAR
STARTCHAR uni2008
ENCODING 8200
SWIDTH 297 0
DWIDTH 7 0
BBX 1 1 0 0
BITMAP
00
ENDCHAR
STARTCHAR uni2009
ENCODING 8201
SWIDTH 125 0
DWIDTH 3 0
BBX 1 1 0 0
BITMAP
00
ENDCHAR
STARTCHAR uni200A
ENCODING 8202
SWIDTH 63 0
DWIDTH 2 0
BBX 1 1 0 0
BITMAP
00
ENDCHAR
STARTCHAR uni200B
ENCODING 8203
SWIDTH 0 0
DWIDTH 0 0
BBX 1 1 0 0
BITMAP
00
ENDCHAR
STARTCHAR uni200C
ENCODING 8204
SWIDTH 0 0
DWIDTH 0 0
BBX 1 26 0 -6
BITMAP
80
80
80
80
80
80
80
80
80
80
80
80
80
80
80
80
80
80
80
80
80
80
80
80
80
80
ENDCHAR
STARTCHAR uni200D
ENCODING 8205
SWIDTH 0 0
DWIDTH 0 0
BBX 6 28 -3 -6
BITMAP
84
48
30
48
A4
20
20
20
20
20
20
20
20
20
20
20
20
20
20
20
20
20
20
20
20
20
20
20
ENDCHAR
STARTCHAR uni2010
ENCODING 8208
SWIDTH 315 0
DWIDTH 8 0
BBX 5 2 1 5
BITMAP
F8
F8
ENDCHAR
STARTCHAR uni2011
ENCODING 8209
SWIDTH 315 0
DWIDTH 8 0
BBX 5 2 1 5
BITMAP
F8
F8
ENDCHAR
STARTCHAR figuredash
ENCODING 8210
SWIDTH 495 0
DWIDTH 12 0
BBX 10 1 1 6
BITMAP
FFC0
ENDCHAR
STARTCHAR endash
ENCODING 8211
SWIDTH 500 0
DWIDTH 12 0
BBX 10 1 1 6
BITMAP
FFC0
ENDCHAR
STARTCHAR emdash
ENCODING 8212
SWIDTH 1000 0
DWIDTH 24 0
BBX 22 1 1 6
BITMAP
FFFFFC
ENDCHAR
STARTCHAR uni2015
ENCODING 8213
SWIDTH 940 0
DWIDTH 23 0
BBX 23 1 0 6
BITMAP
FFFFFE
ENDCHAR
STARTCHAR uni2016
ENCODING 8214
SWIDTH 427 0
DWIDTH 10 0
BBX 5 22 3 -5
BITMAP
98
98
98
98
98
98
98
98
98
98
98
98
98
98
98
98
98
98
98
98
98
98
ENDCHAR
STARTCHAR underscoredbl
ENCODING 8215
SWIDTH 512 0
DWIDTH 12 0
BBX 12 4 0 -6
BITMAP
FFF0
0000
0000
FFF0
ENDCHAR
STARTCHAR quoteleft
ENCODING 8216
SWIDTH 245 0
DWIDTH 6 0
BBX 4 6 1 12
BITMAP
30
40
40
E0
F0
60
ENDCHAR
STARTCHAR quoteright
ENCODING 8217
SWIDTH 245 0
DWIDTH 6 0
BBX 3 6 1 11
BITMAP
E0
E0
60
20
20
C0
ENDCHAR
STARTCHAR quotesinglbase
ENCODING 8218
SWIDTH 243 0
DWIDTH 6 0
BBX 3 6 1 -3
BITMAP
60
E0
E0
20
20
C0
ENDCHAR
STARTCHAR quotereversed
ENCODING 8219
SWIDTH 243 0
DWIDTH 6 0
BBX 4 6 1 11
BITMAP
60
F0
E0
40
40
30
ENDCHAR
STARTCHAR quotedblleft
ENCODING 8220
SWIDTH 435 0
DWIDTH 10 0
BBX 8 6 1 12
BITMAP
31
42
44
E7
F7
67
ENDCHAR
STARTCHAR quotedblright
ENCODING 8221
SWIDTH 434 0
DWIDTH 10 0
BBX 8 6 1 11
BITMAP
E6
E7
67
21
22
C4
ENDCHAR
STARTCHAR quotedblbase
ENCODING 8222
SWIDTH 433 0
DWIDTH 10 0
BBX 8 6 1 -3
BITMAP
66
E7
E7
21
22
C4
ENDCHAR
STARTCHAR uni201F
ENCODING 8223
SWIDTH 434 0
DWIDTH 10 0
BBX 8 6 1 11
BITMAP
63
F7
E7
44
42
31
ENDCHAR
STARTCHAR dagger
ENCODING 8224
SWIDTH 512 0
DWIDTH 12 0
BBX 10 21 1 -4
BITMAP
0C00
0C00
0C00
0400
0400
7FC0
E5C0
0400
0400
0400
0C00
0C00
0C00
0C00
0400
0400
0400
0400
0400
0400
0400
ENDCHAR
STARTCHAR daggerdbl
ENCODING 8225
SWIDTH 512 0
DWIDTH 12 0
BBX 10 20 1 -3
BITMAP
0C00
0C00
0C00
0400
0400
7FC0
E5C0
0400
0400
0C00
0C00
0C00
0400
0400
FFC0
65C0
0400
0C00
0C00
0C00
ENDCHAR
STARTCHAR bullet
ENCODING 8226
SWIDTH 457 0
DWIDTH 11 0
BBX 5 6 3 3
BITMAP
70
F8
F8
F8
F8
70
ENDCHAR
STARTCHAR twodotenleader
ENCODING 8229
SWIDTH 500 0
DWIDTH 12 0
BBX 10 3 1 0
BITMAP
C080
E1C0
E1C0
ENDCHAR
STARTCHAR ellipsis
ENCODING 8230
SWIDTH 887 0
DWIDTH 21 0
BBX 17 3 2 0
BITMAP
60C380
E1C380
61C380
ENDCHAR
STARTCHAR uni202F
ENCODING 8239
SWIDTH 125 0
DWIDTH 3 0
BBX 1 1 0 0
BITMAP
00
ENDCHAR
STARTCHAR perthousand
ENCODING 8240
SWIDTH 1017 0
DWIDTH 24 0
BBX 22 16 1 0
BITMAP
1C3800
63D000
423000
C26000
C24000
C4C000
CC8000
718000
033838
026464
06C2C4
04C2C4
08C484
08C484
10C8C8
307070
ENDCHAR
STARTCHAR uni2031
ENCODING 8241
SWIDTH 1342 0
DWIDTH 32 0
BBX 30 16 1 0
BITMAP
1C380000
63D00000
42300000
C2600000
C2400000
C4C00000
CC800000
71800000
03383838
02646444
06C2C4C4
04C2C484
08C48484
08C48484
10C8C888
30707070
ENDCHAR
STARTCHAR minute
ENCODING 8242
SWIDTH 296 0
DWIDTH 7 0
BBX 3 8 2 9
BITMAP
20
60
60
40
C0
80
80
80
ENDCHAR
STARTCHAR second
ENCODING 8243
SWIDTH 436 0
DWIDTH 10 0
BBX 7 8 2 9
BITMAP
26
66
6C
4C
C8
98
90
90
ENDCHAR
STARTCHAR uni2034
ENCODING 8244
SWIDTH 576 0
DWIDTH 14 0
BBX 10 8 2 9
BITMAP
26C0
66C0
6CC0
4D80
C980
9900
9300
9100
ENDCHAR
STARTCHAR uni2035
ENCODING 8245
SWIDTH 296 0
DWIDTH 7 0
BBX 4 8 2 9
BITMAP
80
C0
C0
40
60
20
20
30
ENDCHAR
STARTCHAR uni2036
ENCODING 8246
SWIDTH 436 0
DWIDTH 10 0
BBX 7 8 2 9
BITMAP
D8
D8
CC
4C
64
24
22
32
ENDCHAR
STARTCHAR uni2037
ENCODING 8247
SWIDTH 576 0
DWIDTH 14 0
BBX 10 8 2 9
BITMAP
DB00
DB80
CD80
4D80
6480
24C0
2240
3240
ENDCHAR
STARTCHAR uni2038
ENCODING 8248
SWIDTH 523 0
DWIDTH 13 0
BBX 10 7 1 -4
BITMAP
0400
0E00
1200
3100
2080
40C0
8040
ENDCHAR
STARTCHAR guilsinglleft
ENCODING 8249
SWIDTH 307 0
DWIDTH 7 0
BBX 5 10 1 1
BITMAP
08
18
30
60
C0
C0
60
30
10
08
ENDCHAR
STARTCHAR guilsinglright
ENCODING 8250
SWIDTH 307 0
DWIDTH 7 0
BBX 6 10 1 1
BITMAP
80
40
60
30
18
1C
18
30
40
80
ENDCHAR
STARTCHAR uni203B
ENCODING 8251
SWIDTH 701 0
DWIDTH 17 0
BBX 14 14 1 0
BITMAP
C304
638C
3398
1830
0C60
06C0
639C
731C
678C
0CC0
1860
3330
6398
C38C
ENDCHAR
STARTCHAR exclamdbl
ENCODING 8252
SWIDTH 565 0
DWIDTH 14 0
BBX 10 16 2 0
BITMAP
C180
E180
E180
E180
C180
C180
C180
4180
4180
4080
4080
4080
0000
C180
E1C0
E180
ENDCHAR
STARTCHAR uni203E
ENCODING 8254
SWIDTH 512 0
DWIDTH 12 0
BBX 12 1 0 20
BITMAP
FFF0
ENDCHAR
STARTCHAR uni2040
ENCODING 8256
SWIDTH 810 0
DWIDTH 19 0
BBX 16 5 2 13
BITMAP
07C0
1FF8
701C
4006
8001
ENDCHAR
STARTCHAR uni2043
ENCODING 8259
SWIDTH 352 0
DWIDTH 8 0
BBX 6 4 1 4
BITMAP
FC
FC
FC
FC
ENDCHAR
STARTCHAR fraction
ENCODING 8260
SWIDTH 205 0
DWIDTH 5 0
BBX 11 17 -3 0
BITMAP
0020
0040
0040
0080
0180
0100
0200
0200
0400
0C00
0800
1800
1000
2000
6000
4000
C000
ENDCHAR
STARTCHAR uni2047
ENCODING 8263
SWIDTH 822 0
DWIDTH 20 0
BBX 18 16 1 0
BITMAP
7C1F00
C73180
C320C0
C330C0
C330C0
0300C0
060180
040100
0C0300
080200
100400
100400
000000
180600
180E00
180600
ENDCHAR
STARTCHAR uni204B
ENCODING 8267
SWIDTH 605 0
DWIDTH 15 0
BBX 12 20 1 -4
BITMAP
FFC0
3260
1230
1230
1230
1230
1230
1230
1260
1380
1200
1200
1200
1200
1200
1200
1200
1200
3300
F380
ENDCHAR
STARTCHAR uni204C
ENCODING 8268
SWIDTH 479 0
DWIDTH 12 0
BBX 8 6 2 3
BITMAP
7F
F4
F4
F4
F4
7F
ENDCHAR
STARTCHAR uni204D
ENCODING 8269
SWIDTH 479 0
DWIDTH 12 0
BBX 8 6 1 3
BITMAP
FE
27
27
27
27
FE
ENDCHAR
STARTCHAR uni204E
ENCODING 8270
SWIDTH 410 0
DWIDTH 10 0
BBX 8 9 1 -4
BITMAP
18
DB
F7
3C
3C
F7
DB
18
18
ENDCHAR
STARTCHAR uni204F
ENCODING 8271
SWIDTH 245 0
DWIDTH 6 0
BBX 4 15 1 -3
BITMAP
60
E0
60
00
00
00
00
00
00
60
F0
E0
C0
40
20
ENDCHAR
STARTCHAR uni2050
ENCODING 8272
SWIDTH 809 0
DWIDTH 19 0
BBX 17 18 1 -1
BITMAP
07F000
1C0C00
300600
600300
400180
C00180
000000
000000
000000
000000
000000
000000
C00100
400180
600100
300200
1C0C00
03F000
ENDCHAR
STARTCHAR uni2051
ENCODING 8273
SWIDTH 410 0
DWIDTH 10 0
BBX 8 19 1 -2
BITMAP
18
DB
F7
3C
3C
F7
DB
18
18
00
18
DB
F7
38
3C
D7
DB
18
18
ENDCHAR
STARTCHAR uni2052
ENCODING 8274
SWIDTH 482 0
DWIDTH 12 0
BBX 9 23 1 -5
BITMAP
0180
6180
6100
6300
0300
0300
0200
0600
0600
0400
0C00
0C00
0800
1800
1800
1000
3000
3000
2000
6100
6380
6180
C000
ENDCHAR
STARTCHAR uni2057
ENCODING 8279
SWIDTH 727 0
DWIDTH 17 0
BBX 14 8 2 9
BITMAP
26CC
66CC
6CD8
4D98
C990
9930
9320
9120
ENDCHAR
STARTCHAR uni205F
ENCODING 8287
SWIDTH 222 0
DWIDTH 5 0
BBX 1 1 0 0
BITMAP
00
ENDCHAR
STARTCHAR uni2061
ENCODING 8289
SWIDTH 0 0
DWIDTH 0 0
BBX 1 1 0 0
BITMAP
00
ENDCHAR
STARTCHAR uni2062
ENCODING 8290
SWIDTH 0 0
DWIDTH 0 0
BBX 1 1 0 0
BITMAP
00
ENDCHAR
STARTCHAR uni2063
ENCODING 8291
SWIDTH 0 0
DWIDTH 0 0
BBX 1 1 0 0
BITMAP
00
ENDCHAR
STARTCHAR uni2064
ENCODING 8292
SWIDTH 0 0
DWIDTH 0 0
BBX 1 1 0 0
BITMAP
00
ENDCHAR
STARTCHAR zerosuperior
ENCODING 8304
SWIDTH 412 0
DWIDTH 10 0
BBX 8 12 1 6
BITMAP
3C
66
C3
C3
C3
C3
C3
C3
C3
C3
66
3C
ENDCHAR
STARTCHAR uni2071
ENCODING 8305
SWIDTH 245 0
DWIDTH 6 0
BBX 4 14 1 6
BITMAP
60
60
00
00
E0
60
60
60
60
60
60
60
60
F0
ENDCHAR
STARTCHAR foursuperior
ENCODING 8308
SWIDTH 403 0
DWIDTH 10 0
BBX 9 12 0 6
BITMAP
0200
0600
0A00
1200
1200
2200
4200
FF80
FF80
0200
0200
0200
ENDCHAR
STARTCHAR fivesuperior
ENCODING 8309
SWIDTH 358 0
DWIDTH 9 0
BBX 7 12 1 6
BITMAP
7C
7C
40
40
F8
FC
0E
06
06
04
84
F8
ENDCHAR
STARTCHAR sixsuperior
ENCODING 8310
SWIDTH 390 0
DWIDTH 9 0
BBX 8 12 1 6
BITMAP
0E
30
60
C0
FC
C6
C3
C3
C3
C3
46
3C
ENDCHAR
STARTCHAR sevensuperior
ENCODING 8311
SWIDTH 364 0
DWIDTH 9 0
BBX 7 12 1 6
BITMAP
FE
FE
82
04
04
0C
08
18
18
10
30
20
ENDCHAR
STARTCHAR eightsuperior
ENCODING 8312
SWIDTH 374 0
DWIDTH 9 0
BBX 7 12 1 6
BITMAP
7C
C6
C6
C6
E4
78
3C
C6
86
82
C6
7C
ENDCHAR
STARTCHAR ninesuperior
ENCODING 8313
SWIDTH 390 0
DWIDTH 9 0
BBX 8 12 1 6
BITMAP
7C
C6
C6
82
83
C3
C6
7A
06
04
18
F0
ENDCHAR
STARTCHAR uni207A
ENCODING 8314
SWIDTH 536 0
DWIDTH 13 0
BBX 11 11 1 6
BITMAP
0400
0400
0400
0400
0400
FFE0
0400
0400
0400
0400
0400
ENDCHAR
STARTCHAR uni207B
ENCODING 8315
SWIDTH 536 0
DWIDTH 13 0
BBX 11 1 1 11
BITMAP
FFE0
ENDCHAR
STARTCHAR uni207C
ENCODING 8316
SWIDTH 534 0
DWIDTH 13 0
BBX 11 5 1 9
BITMAP
FFE0
0000
0000
0000
FFE0
ENDCHAR
STARTCHAR parenleftsuperior
ENCODING 8317
SWIDTH 268 0
DWIDTH 6 0
BBX 5 17 1 3
BITMAP
08
30
20
40
C0
C0
80
80
80
80
80
C0
C0
40
20
10
08
ENDCHAR
STARTCHAR parenrightsuperior
ENCODING 8318
SWIDTH 268 0
DWIDTH 6 0
BBX 5 17 1 3
BITMAP
80
40
20
30
10
10
18
18
18
18
18
10
10
20
60
C0
80
ENDCHAR
STARTCHAR nsuperior
ENCODING 8319
SWIDTH 491 0
DWIDTH 12 0
BBX 10 10 1 6
BITMAP
EF00
7100
6180
6180
6180
6180
6180
6180
6180
F3C0
ENDCHAR
STARTCHAR zeroinferior
ENCODING 8320
SWIDTH 412 0
DWIDTH 10 0
BBX 8 12 1 -6
BITMAP
3C
66
C3
C3
C3
C3
C3
C3
C3
C3
66
3C
ENDCHAR
STARTCHAR oneinferior
ENCODING 8321
SWIDTH 333 0
DWIDTH 8 0
BBX 6 12 1 -6
BITMAP
70
B0
30
30
30
30
30
30
30
30
30
FC
ENDCHAR
STARTCHAR twoinferior
ENCODING 8322
SWIDTH 373 0
DWIDTH 9 0
BBX 8 12 1 -6
BITMAP
78
8E
86
06
06
0C
08
10
21
42
FE
FE
ENDCHAR
STARTCHAR threeinferior
ENCODING 8323
SWIDTH 374 0
DWIDTH 9 0
BBX 7 12 1 -6
BITMAP
78
8C
84
04
08
38
0E
06
06
06
84
F8
ENDCHAR
STARTCHAR fourinferior
ENCODING 8324
SWIDTH 403 0
DWIDTH 10 0
BBX 9 12 0 -6
BITMAP
0200
0600
0A00
1200
1200
2200
4200
FF80
FF80
0200
0200
0200
ENDCHAR
STARTCHAR fiveinferior
ENCODING 8325
SWIDTH 358 0
DWIDTH 9 0
BBX 7 12 1 -6
BITMAP
7C
7C
40
40
F8
FC
0E
06
06
04
84
F8
ENDCHAR
STARTCHAR sixinferior
ENCODING 8326
SWIDTH 390 0
DWIDTH 9 0
BBX 8 12 1 -6
BITMAP
0E
30
60
C0
FC
C6
C3
C3
C3
C3
46
3C
ENDCHAR
STARTCHAR seveninferior
ENCODING 8327
SWIDTH 364 0
DWIDTH 9 0
BBX 7 12 1 -6
BITMAP
FE
FE
82
04
04
0C
08
18
18
10
30
20
ENDCHAR
STARTCHAR eightinferior
ENCODING 8328
SWIDTH 374 0
DWIDTH 9 0
BBX 7 12 1 -6
BITMAP
7C
C6
C6
C6
E4
78
3C
C6
86
82
C6
7C
ENDCHAR
STARTCHAR nineinferior
ENCODING 8329
SWIDTH 390 0
DWIDTH 9 0
BBX 8 12 1 -6
BITMAP
7C
C6
C6
82
83
C3
C6
7A
06
04
18
F0
ENDCHAR
STARTCHAR uni208A
ENCODING 8330
SWIDTH 536 0
DWIDTH 13 0
BBX 11 11 1 -6
BITMAP
0400
0400
0400
0400
0400
FFE0
0400
0400
0400
0400
0400
ENDCHAR
STARTCHAR uni208B
ENCODING 8331
SWIDTH 536 0
DWIDTH 13 0
BBX 11 1 1 -1
BITMAP
FFE0
ENDCHAR
STARTCHAR uni208C
ENCODING 8332
SWIDTH 534 0
DWIDTH 13 0
BBX 11 5 1 -3
BITMAP
FFE0
0000
0000
0000
FFE0
ENDCHAR
STARTCHAR parenleftinferior
ENCODING 8333
SWIDTH 268 0
DWIDTH 6 0
BBX 5 17 1 -9
BITMAP
08
30
20
40
C0
C0
80
80
80
80
80
C0
C0
40
20
10
08
ENDCHAR
STARTCHAR parenrightinferior
ENCODING 8334
SWIDTH 268 0
DWIDTH 6 0
BBX 5 17 1 -9
BITMAP
80
40
20
30
10
10
18
18
18
18
18
10
10
20
60
C0
80
ENDCHAR
STARTCHAR uni20A3
ENCODING 8355
SWIDTH 495 0
DWIDTH 12 0
BBX 10 16 1 0
BITMAP
FFC0
30C0
3040
3040
3040
3000
3000
FF00
3000
FF00
3000
3000
3000
3000
7000
FC00
ENDCHAR
STARTCHAR uni20A4
ENCODING 8356
SWIDTH 495 0
DWIDTH 12 0
BBX 12 16 0 0
BITMAP
03C0
0CE0
0860
1800
1800
1800
7F80
1C00
1C00
7F80
0C00
0C00
7810
8C20
9FC0
7380
ENDCHAR
STARTCHAR uni20A7
ENCODING 8359
SWIDTH 1193 0
DWIDTH 29 0
BBX 27 16 1 0
BITMAP
FF800000
30E10000
30620000
30720000
307FC7C0
30660C40
30660840
30C61C20
3F060E00
30060780
300603C0
300600E0
30061060
30021860
38032860
FE03CF80
ENDCHAR
STARTCHAR uni20AB
ENCODING 8363
SWIDTH 495 0
DWIDTH 12 0
BBX 10 16 1 0
BITMAP
0300
0700
0300
1FC0
1D00
6300
4300
C100
C100
C100
C100
E300
7D80
39C0
0000
7F80
ENDCHAR
STARTCHAR Euro
ENCODING 8364
SWIDTH 495 0
DWIDTH 12 0
BBX 12 16 0 0
BITMAP
07A0
0C60
1820
3020
3020
3000
FF80
7000
7000
FF00
3000
3000
3810
1820
1FE0
0780
ENDCHAR
STARTCHAR uni20B9
ENCODING 8377
SWIDTH 495 0
DWIDTH 12 0
BBX 11 15 1 0
BITMAP
FFC0
0600
0300
FFC0
0300
0700
0E00
F800
1800
1C00
0E00
0600
0700
0380
01E0
ENDCHAR
STARTCHAR uni20BA
ENCODING 8378
SWIDTH 495 0
DWIDTH 12 0
BBX 12 16 0 0
BITMAP
FE00
3800
1800
1800
1800
1B00
3C00
D800
1F00
7800
D870
1860
1860
1860
38C0
FF80
ENDCHAR
STARTCHAR uni20BD
ENCODING 8381
SWIDTH 495 0
DWIDTH 12 0
BBX 10 16 1 0
BITMAP
FF00
71C0
30C0
30C0
30C0
30C0
30C0
3180
FE00
3000
3000
FF00
3000
3000
7000
FC00
ENDCHAR
STARTCHAR uni20D0
ENCODING 8400
SWIDTH 0 0
DWIDTH 0 0
BBX 11 4 -11 17
BITMAP
1000
2000
6000
FFE0
ENDCHAR
STARTCHAR uni20D1
ENCODING 8401
SWIDTH 0 0
DWIDTH 0 0
BBX 11 4 -11 17
BITMAP
0100
0080
00C0
FFE0
ENDCHAR
STARTCHAR uni20D2
ENCODING 8402
SWIDTH 0 0
DWIDTH 0 0
BBX 1 20 -6 -3
BITMAP
80
80
80
80
80
80
80
80
80
80
80
80
80
80
80
80
80
80
80
80
ENDCHAR
STARTCHAR uni20D3
ENCODING 8403
SWIDTH 0 0
DWIDTH 0 0
BBX 1 16 -6 -4
BITMAP
80
80
80
80
80
80
80
80
80
80
80
80
80
80
80
80
ENDCHAR
STARTCHAR uni20D4
ENCODING 8404
SWIDTH 0 0
DWIDTH 0 0
BBX 13 6 -13 14
BITMAP
07C0
0C20
9010
9010
6008
7C08
ENDCHAR
STARTCHAR uni20D5
ENCODING 8405
SWIDTH 0 0
DWIDTH 0 0
BBX 13 6 -11 14
BITMAP
1F00
2180
4048
C050
8030
81F0
ENDCHAR
STARTCHAR uni20D6
ENCODING 8406
SWIDTH 0 0
DWIDTH 0 0
BBX 10 7 -11 14
BITMAP
1000
2000
4000
FFC0
4000
2000
1000
ENDCHAR
STARTCHAR uni20D7
ENCODING 8407
SWIDTH 0 0
DWIDTH 0 0
BBX 11 7 -11 14
BITMAP
0100
0080
00C0
FFE0
0040
0080
0100
ENDCHAR
STARTCHAR uni20D8
ENCODING 8408
SWIDTH 0 0
DWIDTH 0 0
BBX 7 7 -9 3
BITMAP
38
C6
82
82
82
C6
7C
ENDCHAR
STARTCHAR uni20D9
ENCODING 8409
SWIDTH 0 0
DWIDTH 0 0
BBX 8 7 -9 3
BITMAP
38
C7
8F
82
82
C6
7C
ENDCHAR
STARTCHAR uni20DA
ENCODING 8410
SWIDTH 0 0
DWIDTH 0 0
BBX 8 7 -9 3
BITMAP
38
C4
86
82
8F
C7
7C
ENDCHAR
STARTCHAR uni20DB
ENCODING 8411
SWIDTH 0 0
DWIDTH 0 0
BBX 13 2 -12 13
BITMAP
E738
6630
ENDCHAR
STARTCHAR uni20DC
ENCODING 8412
SWIDTH 0 0
DWIDTH 0 0
BBX 17 2 -14 13
BITMAP
C63180
C63180
ENDCHAR
STARTCHAR uni20DD
ENCODING 8413
SWIDTH 0 0
DWIDTH 0 0
BBX 23 23 -17 -5
BITMAP
00FE00
03FF80
0F01E0
1C0070
380038
300018
60000C
400004
C00006
C00006
C00006
800006
C00006
C00006
C00006
400004
60000C
300018
380038
1C0070
0F01E0
03FF80
00FE00
ENDCHAR
STARTCHAR uni20DE
ENCODING 8414
SWIDTH 0 0
DWIDTH 0 0
BBX 23 24 -17 -4
BITMAP
FFFFFE
FFFFFE
800002
800002
800002
800002
800002
800002
800002
800002
800002
800002
800002
800002
800002
800002
800002
800002
800002
800002
800002
800002
FFFFFE
FFFFFE
ENDCHAR
STARTCHAR uni20DF
ENCODING 8415
SWIDTH 0 0
DWIDTH 0 0
BBX 29 29 -20 -8
BITMAP
00020000
00070000
000F8000
001DC000
0038E000
00707000
00E03800
01C01C00
03800E00
07000700
0E000380
1C0001C0
380000E0
70000070
E0000038
60000030
30000060
180000C0
0C000180
06000300
03000600
01800C00
00C01800
00603000
00306000
0018C000
000D8000
00070000
00020000
ENDCHAR
STARTCHAR uni20E1
ENCODING 8417
SWIDTH 0 0
DWIDTH 0 0
BBX 11 7 -11 14
BITMAP
2100
2080
4040
FFE0
C060
2080
2080
ENDCHAR
STARTCHAR uni20E4
ENCODING 8420
SWIDTH 0 0
DWIDTH 0 0
BBX 35 29 -23 -4
BITMAP
0000400000
0000C00000
0000E00000
0001F00000
0003B00000
0003180000
0006180000
00060C0000
000C0E0000
001C060000
0018030000
0030038000
0030018000
006000C000
00E000C000
00C0006000
0180007000
0180003000
0300001800
0600001C00
0600000C00
0C00000600
1C00000600
1800000300
3000000180
3000000180
60000000C0
FFFFFFFFE0
FFFFFFFFE0
ENDCHAR
STARTCHAR uni20E5
ENCODING 8421
SWIDTH 0 0
DWIDTH 0 0
BBX 9 20 -10 -4
BITMAP
8000
C000
4000
4000
2000
2000
3000
1000
1800
0800
0800
0C00
0400
0600
0200
0200
0300
0100
0180
0080
ENDCHAR
STARTCHAR uni20E6
ENCODING 8422
SWIDTH 0 0
DWIDTH 0 0
BBX 5 20 -8 -4
BITMAP
88
88
88
88
88
88
88
88
88
88
88
88
88
88
88
88
88
88
88
88
ENDCHAR
STARTCHAR uni20E7
ENCODING 8423
SWIDTH 0 0
DWIDTH 0 0
BBX 20 22 -15 -4
BITMAP
FFFFF0
FFFFF0
000030
000030
000030
000030
000030
000030
000030
000030
000030
000030
000030
000030
000030
000030
000030
000030
000030
000030
000030
000030
ENDCHAR
STARTCHAR uni20E8
ENCODING 8424
SWIDTH 0 0
DWIDTH 0 0
BBX 13 2 -12 -5
BITMAP
E738
6630
ENDCHAR
STARTCHAR uni20E9
ENCODING 8425
SWIDTH 0 0
DWIDTH 0 0
BBX 13 3 -12 14
BITMAP
FFF8
8008
8008
ENDCHAR
STARTCHAR uni20EA
ENCODING 8426
SWIDTH 0 0
DWIDTH 0 0
BBX 19 8 -16 2
BITMAP
040000
080000
100000
7FFFE0
FFFFE0
300000
080000
040000
ENDCHAR
STARTCHAR uni20EB
ENCODING 8427
SWIDTH 0 0
DWIDTH 0 0
BBX 15 24 -13 -5
BITMAP
0062
0046
00C4
0084
008C
0188
0118
0310
0210
0220
0620
0460
0C40
08C0
0880
1080
1180
3100
2300
6200
4200
4600
C400
8C00
ENDCHAR
STARTCHAR uni20EC
ENCODING 8428
SWIDTH 0 0
DWIDTH 0 0
BBX 11 4 -11 -7
BITMAP
FFE0
00C0
0080
0100
ENDCHAR
STARTCHAR uni20ED
ENCODING 8429
SWIDTH 0 0
DWIDTH 0 0
BBX 11 4 -11 -7
BITMAP
FFE0
6000
2000
1000
ENDCHAR
STARTCHAR uni20EE
ENCODING 8430
SWIDTH 0 0
DWIDTH 0 0
BBX 10 7 -11 -7
BITMAP
1000
2000
4000
FFC0
4000
2000
1000
ENDCHAR
STARTCHAR uni20EF
ENCODING 8431
SWIDTH 0 0
DWIDTH 0 0
BBX 11 7 -11 -7
BITMAP
0100
0080
00C0
FFE0
0040
0080
0100
ENDCHAR
STARTCHAR uni20F0
ENCODING 8432
SWIDTH 0 0
DWIDTH 0 0
BBX 7 8 -9 13
BITMAP
10
10
D6
7C
38
D6
92
10
ENDCHAR
STARTCHAR uni2100
ENCODING 8448
SWIDTH 939 0
DWIDTH 23 0
BBX 21 17 1 0
BITMAP
000080
3C0100
460300
C60200
060600
1E0400
660800
C618F0
C61330
CEB218
732610
004600
00C600
008600
018308
0103F0
0201E0
ENDCHAR
STARTCHAR uni2101
ENCODING 8449
SWIDTH 936 0
DWIDTH 22 0
BBX 21 17 1 0
BITMAP
000080
3C0100
460300
C60200
060600
1E0400
660800
C619F0
C61310
CEB210
732300
0041C0
00C0F0
008030
018218
010210
0203E0
ENDCHAR
STARTCHAR uni2102
ENCODING 8450
SWIDTH 695 0
DWIDTH 17 0
BBX 15 16 1 0
BITMAP
07E0
1818
300C
7002
5000
D000
9000
9000
9000
9000
D000
5000
7002
300C
1818
07E0
ENDCHAR
STARTCHAR uni2103
ENCODING 8451
SWIDTH 1028 0
DWIDTH 25 0
BBX 23 18 1 0
BITMAP
3C0000
660000
C203F4
C30C1C
C3180C
C23004
467004
3C7004
006000
006000
006000
006000
007000
007000
003000
003806
001C08
0007F0
ENDCHAR
STARTCHAR uni2104
ENCODING 8452
SWIDTH 646 0
DWIDTH 16 0
BBX 14 16 1 0
BITMAP
7F00
1C00
0C00
1F80
6D80
CC80
CC00
CC00
CC00
CC00
EC80
7F04
1C04
0C0C
1C1C
7FF8
ENDCHAR
STARTCHAR uni2105
ENCODING 8453
SWIDTH 953 0
DWIDTH 23 0
BBX 21 17 1 0
BITMAP
000300
3C0200
660600
C20400
C00800
C01800
C01000
C033E0
E32630
7E4C18
3CCC18
008C18
018C18
010C18
020C10
060630
0403E0
ENDCHAR
STARTCHAR uni2106
ENCODING 8454
SWIDTH 1072 0
DWIDTH 26 0
BBX 24 17 1 0
BITMAP
000180
3C0300
660200
430400
C00400
C00800
C01800
C01186
E1339E
7E2186
3C4186
004186
008186
018186
010186
02018E
0600F7
ENDCHAR
STARTCHAR uni2107
ENCODING 8455
SWIDTH 612 0
DWIDTH 15 0
BBX 13 17 1 0
BITMAP
1F90
3870
7030
6010
6010
6008
7000
3800
0F80
7800
E000
E000
E000
E018
E038
7070
1F80
ENDCHAR
STARTCHAR uni2108
ENCODING 8456
SWIDTH 669 0
DWIDTH 16 0
BBX 14 17 1 0
BITMAP
9F80
F0E0
E030
C038
C018
841C
041C
061C
07FC
041C
041C
0018
0018
8038
6070
3FE0
1F80
ENDCHAR
STARTCHAR uni2109
ENCODING 8457
SWIDTH 949 0
DWIDTH 23 0
BBX 21 18 1 0
BITMAP
3C0000
660000
C27FF8
C31808
C31808
C21800
461820
3C1820
001820
001FE0
001820
001820
001800
001800
001800
001800
001800
007F00
ENDCHAR
STARTCHAR uni210A
ENCODING 8458
SWIDTH 657 0
DWIDTH 16 0
BBX 16 17 -1 -5
BITMAP
007C
008E
010C
020C
060C
0618
0E18
161F
2638
C658
8798
0F18
1830
3030
3060
38C0
1F00
ENDCHAR
STARTCHAR uni210B
ENCODING 8459
SWIDTH 951 0
DWIDTH 23 0
BBX 24 16 0 0
BITMAP
01F80E
067017
186020
106040
1860C0
186080
006080
00FF80
00C180
00C180
008300
018300
010300
430310
E60390
7801E0
ENDCHAR
STARTCHAR uni210C
ENCODING 8460
SWIDTH 728 0
DWIDTH 17 0
BBX 15 20 1 -5
BITMAP
0318
0FE0
0BC0
1000
3020
3878
39FC
1E1E
1E0E
0E06
0706
0706
2206
7C06
F80C
900C
0018
0F30
1FE0
3180
ENDCHAR
STARTCHAR uni210D
ENCODING 8461
SWIDTH 715 0
DWIDTH 17 0
BBX 13 16 2 0
BITMAP
F038
9028
9028
9028
9028
9028
9028
9028
9FE8
9028
9028
9028
9028
9028
9028
F038
ENDCHAR
STARTCHAR uni210E
ENCODING 8462
SWIDTH 569 0
DWIDTH 14 0
BBX 12 17 1 0
BITMAP
3C00
1800
1800
1800
1800
10E0
33E0
3660
3460
3860
70C0
70C0
60C0
60C0
6190
C1E0
C0C0
ENDCHAR
STARTCHAR uni210F
ENCODING 8463
SWIDTH 569 0
DWIDTH 14 0
BBX 12 17 1 0
BITMAP
3C00
1800
1980
1E00
3800
D0E0
33E0
3660
3460
2860
70C0
70C0
60C0
60C0
6190
C1E0
C0C0
ENDCHAR
STARTCHAR uni2110
ENCODING 8464
SWIDTH 496 0
DWIDTH 12 0
BBX 12 16 0 0
BITMAP
03F0
0C60
1060
3060
30E0
30C0
00C0
00C0
00C0
0080
0180
0180
0100
4300
E600
7800
ENDCHAR
STARTCHAR uni2111
ENCODING 8465
SWIDTH 673 0
DWIDTH 16 0
BBX 14 17 1 -1
BITMAP
1F00
3FC4
73F8
60F8
4000
6038
6064
3C60
0060
0070
0078
3838
7838
9C18
1C38
0E30
07E0
ENDCHAR
STARTCHAR uni2112
ENCODING 8466
SWIDTH 699 0
DWIDTH 17 0
BBX 15 16 0 0
BITMAP
0078
019C
030C
0300
0700
0600
0600
0600
0C00
0C00
1802
1002
7C04
6F0C
83F8
80F0
ENDCHAR
STARTCHAR uni2113
ENCODING 8467
SWIDTH 529 0
DWIDTH 13 0
BBX 12 16 0 0
BITMAP
00F0
0190
0310
0210
0610
0420
0C40
0980
1E00
3800
F000
3080
3080
3100
3200
1C00
ENDCHAR
STARTCHAR uni2114
ENCODING 8468
SWIDTH 787 0
DWIDTH 19 0
BBX 18 17 0 0
BITMAP
30C000
71C000
30C000
FFFC00
30C000
30CF00
30DF80
30E1C0
30C1C0
30C0C0
30C0C0
30C0C0
30C0C0
30C0C0
30C180
38E300
7C7E00
ENDCHAR
STARTCHAR uni2115
ENCODING 8469
SWIDTH 692 0
DWIDTH 17 0
BBX 13 16 2 0
BITMAP
E008
9008
9808
C808
C408
A208
9308
9908
8888
84C8
8268
8328
8118
8098
8048
8078
ENDCHAR
STARTCHAR uni2116
ENCODING 8470
SWIDTH 1070 0
DWIDTH 26 0
BBX 25 16 0 0
BITMAP
1E00F000
0F013000
07013000
05830000
05821E00
04C23300
04E22180
04622180
04322180
043A2180
041A3180
040E3100
040E1E00
44060000
E8060000
F0023F80
ENDCHAR
STARTCHAR uni2117
ENCODING 8471
SWIDTH 781 0
DWIDTH 19 0
BBX 16 17 1 0
BITMAP
07E0
0C18
3004
2002
4FE1
4231
8231
8231
8231
83E1
8201
4201
4F81
2002
3004
0C18
07E0
ENDCHAR
STARTCHAR uni2118
ENCODING 8472
SWIDTH 846 0
DWIDTH 20 0
BBX 19 19 1 -5
BITMAP
078000
1C4000
300F80
6038C0
60E0C0
E1C0E0
E380E0
C700C0
6E00C0
6C20C0
1C7180
1E6300
3B6300
333C00
730000
630000
630000
660000
3C0000
ENDCHAR
STARTCHAR uni2119
ENCODING 8473
SWIDTH 665 0
DWIDTH 16 0
BBX 13 16 2 0
BITMAP
FFC0
9070
9050
9048
9048
9048
9048
9050
9070
9FC0
9000
9000
9000
9000
9000
F000
ENDCHAR
STARTCHAR uni211A
ENCODING 8474
SWIDTH 751 0
DWIDTH 18 0
BBX 16 18 1 -2
BITMAP
07E0
1838
300C
700E
500A
D00B
9009
9009
9009
9009
9009
500B
500A
700E
33CC
1E38
07F0
000F
ENDCHAR
STARTCHAR uni211B
ENCODING 8475
SWIDTH 789 0
DWIDTH 19 0
BBX 18 17 0 0
BITMAP
002000
01FE00
066300
0C6180
186180
18C180
38C180
00C300
00C600
00F800
019800
019800
019800
030C00
C20C40
C40F80
780700
ENDCHAR
STARTCHAR uni211C
ENCODING 8476
SWIDTH 778 0
DWIDTH 19 0
BBX 17 17 1 0
BITMAP
3C3800
667C00
C79E00
C30E00
E30E00
730C00
3B8C00
3B1000
33F800
231800
431C00
031C00
061C00
261C00
7C1D80
780E00
980C00
ENDCHAR
STARTCHAR uni211D
ENCODING 8477
SWIDTH 729 0
DWIDTH 18 0
BBX 15 16 2 0
BITMAP
FFC0
9070
9050
9048
9048
9048
9048
9058
9070
9FC0
9260
9120
9190
9088
904C
F03E
ENDCHAR
STARTCHAR uni211E
ENCODING 8478
SWIDTH 725 0
DWIDTH 17 0
BBX 15 18 1 -2
BITMAP
FF80
30E0
3070
3030
3030
3030
3070
30E0
3F00
3382
31C2
30E4
3078
3030
3078
FC9E
0100
0100
ENDCHAR
STARTCHAR uni211F
ENCODING 8479
SWIDTH 659 0
DWIDTH 16 0
BBX 15 26 1 -5
BITMAP
0380
0640
0640
0040
0040
FFC0
30E0
30B0
3130
3130
3270
32E0
3F00
3780
35C0
38C0
38E0
3870
3070
3838
FE1E
2000
2000
2200
3600
1E00
ENDCHAR
STARTCHAR uni2120
ENCODING 8480
SWIDTH 937 0
DWIDTH 22 0
BBX 21 10 1 6
BITMAP
7CE078
C47060
C470A0
C050A0
7058A0
1C4920
064D20
864620
864620
FCE4F8
ENDCHAR
STARTCHAR uni2121
ENCODING 8481
SWIDTH 1200 0
DWIDTH 29 0
BBX 28 10 0 6
BITMAP
7FBFEF00
4C886600
8C882600
0C088600
0C0F8600
0C088600
0C080610
0C082610
0C186610
1E3FEFF0
ENDCHAR
STARTCHAR trademark
ENCODING 8482
SWIDTH 881 0
DWIDTH 21 0
BBX 21 8 0 7
BITMAP
7F7078
893860
88A8A0
082CA0
082520
082720
082220
3C7278
ENDCHAR
STARTCHAR uni2123
ENCODING 8483
SWIDTH 680 0
DWIDTH 16 0
BBX 16 26 0 -5
BITMAP
01C0
0320
0320
0020
0020
FC7F
7846
3844
3884
188C
1D88
0D18
0F10
0610
0720
0720
0760
07C0
09C0
0980
1080
1000
1000
1300
1300
0E00
ENDCHAR
STARTCHAR uni2124
ENCODING 8484
SWIDTH 648 0
DWIDTH 16 0
BBX 15 16 0 0
BITMAP
3FFE
0026
0064
0048
0098
0110
0320
0260
0440
0C80
0900
1300
2200
6400
4C00
FFFE
ENDCHAR
STARTCHAR uni2125
ENCODING 8485
SWIDTH 434 0
DWIDTH 10 0
BBX 9 22 1 -5
BITMAP
FF00
8600
8C00
1800
3000
7F00
0600
0C00
1C00
3800
3C00
0700
0300
0300
0380
0380
0300
0300
0300
0600
CC00
F800
ENDCHAR
STARTCHAR uni2126
ENCODING 8486
SWIDTH 763 0
DWIDTH 18 0
BBX 17 16 1 0
BITMAP
07E000
1C3800
380C00
700E00
600700
E00700
E00700
E00700
E00700
700600
700E00
381C00
8E3080
822080
FE3F80
FE3F80
ENDCHAR
STARTCHAR uni2127
ENCODING 8487
SWIDTH 763 0
DWIDTH 18 0
BBX 17 16 1 0
BITMAP
FE3F80
FE3F80
822080
8E3080
381C00
700E00
700600
E00700
E00700
E00700
E00700
600700
700E00
380C00
1C3800
07E000
ENDCHAR
STARTCHAR uni2128
ENCODING 8488
SWIDTH 641 0
DWIDTH 15 0
BBX 13 21 1 -5
BITMAP
07C0
1860
2030
2038
4038
0038
0038
0830
0870
07C0
07C0
0870
1038
0038
0018
3018
7818
9838
1C30
0E70
07C0
ENDCHAR
STARTCHAR uni2129
ENCODING 8489
SWIDTH 368 0
DWIDTH 9 0
BBX 6 11 1 0
BITMAP
78
BC
9C
1C
1C
1C
1C
1C
1C
1C
1C
ENDCHAR
STARTCHAR uni212A
ENCODING 8490
SWIDTH 702 0
DWIDTH 17 0
BBX 16 16 1 0
BITMAP
FE7E
3838
3030
3060
3080
3100
3200
3400
3E00
3380
31C0
30E0
3070
3038
383C
FE7F
ENDCHAR
STARTCHAR uni212B
ENCODING 8491
SWIDTH 722 0
DWIDTH 17 0
BBX 17 20 0 0
BITMAP
01C000
022000
022000
022000
01C000
01C000
01C000
01E000
026000
026000
067000
043000
0C3800
083800
0FFC00
181C00
100E00
300E00
300F00
F81F80
ENDCHAR
STARTCHAR uni212C
ENCODING 8492
SWIDTH 754 0
DWIDTH 18 0
BBX 16 17 1 0
BITMAP
0040
03FE
0CC7
31C3
3183
6182
6186
0198
03FC
030E
0306
0206
0606
0C06
180C
FFF8
FFE0
ENDCHAR
ENDFONT
